<svg id="Group_88" data-name="Group 88" xmlns="http://www.w3.org/2000/svg" xmlns:xlink="http://www.w3.org/1999/xlink" width="109.528" height="109.528" viewBox="0 0 109.528 109.528">
  <defs>
    <clipPath id="clip-path">
      <rect id="Rectangle_72" data-name="Rectangle 72" width="109.528" height="109.528" fill="none" stroke="#fff" stroke-width="1"/>
    </clipPath>
  </defs>
  <g id="Group_87" data-name="Group 87" clip-path="url(#clip-path)">
    <path id="Path_828" data-name="Path 828" d="M69.736,43.521s5.051,1.5,15.733,0c0,0-2.153,3.016-4.078,3.425,0,0,7.951-1.688,9.795-.213,0,0-6.165.036-9.236,3.223s11.489,1.983,12.878,1.114c0,0-4.464,3.143-6.509,3.046,0,0,4.523.889,6.563,3.86a41.071,41.071,0,0,0-8.36-1.141c-3.883-.025-13.023-3.273-13.5-4.382,0,0,1.48,3.743,3.66,4.181,0,0-7-.747-9.229-5.243" fill="none" stroke="#fff" stroke-width="1.417"/>
    <path id="Path_829" data-name="Path 829" d="M78.4,35.31,98.36,45.444V68.311l-55.6,20.213L13.082,69.907V46.557L42.958,62.075l27.236-7.629" fill="none" stroke="#fff" stroke-width="1.417"/>
    <path id="Path_830" data-name="Path 830" d="M28.553,69.641l-4.928-3.259A2.982,2.982,0,0,1,22.289,63.9v-.814a.838.838,0,0,1,1.3-.7l4.927,3.259a2.981,2.981,0,0,1,1.337,2.487v.814A.838.838,0,0,1,28.553,69.641Z" fill="none" stroke="#fff" stroke-width="1.417"/>
    <path id="Path_831" data-name="Path 831" d="M69.607,44.63A8.269,8.269,0,0,0,62.8,37.6c-1.739-.3-6.307-4.653-6.307-4.653a9.268,9.268,0,0,0-5.107-5.086l3.625,8.384a5.184,5.184,0,0,1-.487,4.932,8.246,8.246,0,0,0-.638,8" fill="none" stroke="#fff" stroke-width="1.417"/>
    <path id="Path_832" data-name="Path 832" d="M69.607,44.63a8.292,8.292,0,0,1-2.151,6.762s-1.75,1.589-1.371,2.979l.379,1.389" fill="none" stroke="#fff" stroke-width="1.417"/>
    <path id="Path_833" data-name="Path 833" d="M63.2,34.413a8.269,8.269,0,0,1,8.939-3.975c1.724.375,7.589-1.959,7.589-1.959a9.274,9.274,0,0,1,6.639-2.808l-6.5,6.422a5.184,5.184,0,0,0-1.392,4.756,8.243,8.243,0,0,1-2.4,7.66" fill="none" stroke="#fff" stroke-width="1.417"/>
    <path id="Path_834" data-name="Path 834" d="M63.2,34.413a8.244,8.244,0,0,0-1.026,3.114" fill="none" stroke="#fff" stroke-width="1.417"/>
    <path id="Path_835" data-name="Path 835" d="M44.7,61.589a8.968,8.968,0,0,1,8.236-12.507,9.68,9.68,0,0,1,9.025,7.644" fill="none" stroke="#fff" stroke-width="1.417"/>
    <path id="Path_836" data-name="Path 836" d="M31.937,56.326a7.728,7.728,0,0,1,13.984-4.1" fill="none" stroke="#fff" stroke-width="1.417"/>
    <path id="Path_837" data-name="Path 837" d="M41.252,49.037a2.437,2.437,0,0,0,.571.2,3.284,3.284,0,0,1,1.473.7,1.669,1.669,0,0,0,1.508.361,3.128,3.128,0,0,1,1.742-.014,2.329,2.329,0,0,0,.564.109,2.389,2.389,0,0,0,2.314-1.331,2.324,2.324,0,0,1,1-.993,1.655,1.655,0,0,0,.867-1.344c0-.038.005-.077.005-.115a3.441,3.441,0,0,1,.479-1.651,1.646,1.646,0,0,0,.17-.471,1.627,1.627,0,0,0-.4-1.381,3.083,3.083,0,0,1,1.3-1.27,2.18,2.18,0,0,0,1.142-1.769q.006-.076.006-.153a4.548,4.548,0,0,1,.631-2.174,2.135,2.135,0,0,0,.224-.62,2.277,2.277,0,0,0-1.077-2.3,2.217,2.217,0,0,0-.317-.173A3.1,3.1,0,0,1,52,33.195a3.145,3.145,0,0,0-2.576-1.7,3.111,3.111,0,0,0-1.408.225,3.237,3.237,0,0,1-1.3.243,1.965,1.965,0,0,0-.595-.613,1.681,1.681,0,0,0-.24-.131,2.357,2.357,0,0,1-1.1-1.114,2.387,2.387,0,0,0-1.956-1.288,2.358,2.358,0,0,0-1.069.171,2.436,2.436,0,0,1-1.15.18l-.042,0a2.379,2.379,0,0,0-.816.085,2.839,2.839,0,0,1-.4-.424,1.662,1.662,0,0,0-.869-.611,1.642,1.642,0,0,0-.525-.068,3.126,3.126,0,0,1-1.7-.364,2.388,2.388,0,0,0-3.075.57,2.319,2.319,0,0,1-1.192.752,1.658,1.658,0,0,0-1.138,1.124c-.011.037-.021.075-.029.112a2.818,2.818,0,0,1-.257.682,1.585,1.585,0,0,0-.175.067,2.655,2.655,0,0,1-1.292.261,1.339,1.339,0,0,0-.83.213,1.32,1.32,0,0,0-.317.286,2.515,2.515,0,0,1-1.115.854,1.962,1.962,0,0,0-.417.2,1.928,1.928,0,0,0-.844,1.982,1.872,1.872,0,0,1-.163,1.125,1.347,1.347,0,0,0-.086.861,2.854,2.854,0,0,1-1.119.759,2.345,2.345,0,0,0-.516.252,2.389,2.389,0,0,0-1.047,2.456,2.329,2.329,0,0,1-.2,1.4,1.658,1.658,0,0,0,.116,1.6l.031.045a2.09,2.09,0,0,1-.605.338,1.986,1.986,0,0,0-.417.2,1.93,1.93,0,0,0-.844,1.982,1.872,1.872,0,0,1-.163,1.125,1.34,1.34,0,0,0,.093,1.288c.017.026.035.051.054.076a2.794,2.794,0,0,1,.493,1.3,1.333,1.333,0,0,0,.118.386,1.4,1.4,0,0,0,1.374.727,1.3,1.3,0,0,0,.219-.032,1.9,1.9,0,0,1,1.25.183,1.931,1.931,0,0,0,1.619.023,3.944,3.944,0,0,1,.172.717,1.438,1.438,0,0,0,.131.426,1.625,1.625,0,0,0,1.757.767,2.1,2.1,0,0,1,1.379.2A2.127,2.127,0,0,0,31.3,52.96a2.1,2.1,0,0,0,.668-.694" fill="none" stroke="#fff" stroke-width="1.417"/>
    <path id="Path_838" data-name="Path 838" d="M46.8,32.112a1.938,1.938,0,0,0-.679-.758,1.654,1.654,0,0,0-.241-.132,2.355,2.355,0,0,1-1.1-1.114,2.39,2.39,0,0,0-3.026-1.117,2.445,2.445,0,0,1-1.149.181l-.042,0" fill="none" stroke="#fff" stroke-width="1.417"/>
    <path id="Path_839" data-name="Path 839" d="M41.252,49.037a2.437,2.437,0,0,0,.571.2,3.284,3.284,0,0,1,1.473.7,1.669,1.669,0,0,0,1.508.361,3.128,3.128,0,0,1,1.742-.014,2.329,2.329,0,0,0,.564.109,2.389,2.389,0,0,0,2.314-1.331,2.324,2.324,0,0,1,1-.993,1.655,1.655,0,0,0,.867-1.344c0-.038.005-.077.005-.115a3.438,3.438,0,0,1,.479-1.651,1.646,1.646,0,0,0,.17-.471,1.731,1.731,0,0,0-.818-1.745" fill="none" stroke="#fff" stroke-width="1.417"/>
    <path id="Path_840" data-name="Path 840" d="M51.52,43.152a3.063,3.063,0,0,1,1.318-1.307,2.182,2.182,0,0,0,1.142-1.769c0-.051.006-.1.006-.152a4.544,4.544,0,0,1,.63-2.174,2.158,2.158,0,0,0,.225-.62,2.4,2.4,0,0,0-1.394-2.47A3.094,3.094,0,0,1,52,33.194a3.147,3.147,0,0,0-3.984-1.471,3.217,3.217,0,0,1-1.513.238l-.056-.005" fill="none" stroke="#fff" stroke-width="1.417"/>
    <path id="Path_841" data-name="Path 841" d="M25.982,36.224a1.656,1.656,0,0,0-.393.355,3.132,3.132,0,0,1-1.382,1.059,2.421,2.421,0,0,0-.517.252,2.389,2.389,0,0,0-1.046,2.456,2.333,2.333,0,0,1-.2,1.4,1.656,1.656,0,0,0,.115,1.6l-9.475,3.219" fill="none" stroke="#fff" stroke-width="1.417"/>
    <path id="Path_842" data-name="Path 842" d="M61.09,54.249a3.358,3.358,0,0,1,3.76,1.721" fill="none" stroke="#fff" stroke-width="1.417"/>
    <circle id="Ellipse_10" data-name="Ellipse 10" cx="54.055" cy="54.055" r="54.055" transform="translate(0.709 0.709)" fill="none" stroke="#fff" stroke-width="1.417"/>
    <line id="Line_15" data-name="Line 15" x1="0.195" y2="26.449" transform="translate(42.763 62.075)" fill="none" stroke="#fff" stroke-width="1.417"/>
    <line id="Line_16" data-name="Line 16" y1="5.514" x2="17.41" transform="translate(80.95 45.443)" fill="none" stroke="#fff" stroke-width="1.417"/>
  </g>
</svg>
