<svg id="Group_30" data-name="Group 30" xmlns="http://www.w3.org/2000/svg" xmlns:xlink="http://www.w3.org/1999/xlink" width="646.742" height="493.456" viewBox="0 0 646.742 493.456">
  <defs>
    <clipPath id="clip-path">
      <rect id="Rectangle_35" data-name="Rectangle 35" width="646.742" height="493.456" fill="none" stroke="#707070" stroke-width="2"/>
    </clipPath>
  </defs>
  <g id="Group_29" data-name="Group 29" clip-path="url(#clip-path)">
    <path id="Path_553" data-name="Path 553" d="M264.874,101.078c-12.179-1.365-29.852-2.816-38.023-.942,0,0,23.54-16.691,38-16.234,0,0-47.22-1.068-69.837,6.009,0,0,67.5-26.857,42.622-56.907,0,0-.383,26-28.111,29.454,0,0,20.7-14.823,14.912-25.983,0,0-4.153,14.211-18.782,14.662,0,0,9.082-32.971,21.836-33.719,0,0-24.924,1.593-33.1,29.121,0,0-.383-33.095-8.171-35.738,0,0,8.823,31.656-.463,50.169s-11.494,4.666-12.531-8.523c0,0-11.4,15.848-2.168,33.15,4.549,8.517-10.682,27.113-25.86,31.19-7.09,1.908-15.258,6.179-21.935,11.333" transform="translate(257.372 22.553)" fill="none" stroke="#161615" stroke-width="2"/>
    <path id="Path_554" data-name="Path 554" d="M178.417,56.194c-3.591-.09-9.687-.219-14.847-1.55-20.894-5.386,8.56-10.7,29.046-13.356" transform="translate(326.586 86.212)" fill="none" stroke="#161615" stroke-width="2"/>
    <path id="Path_555" data-name="Path 555" d="M169.688,58.349c-8.048-3.91-16.642-7.473-21.468-8.52,0,0,5.114-4.3,36.6.29" transform="translate(309.495 100.23)" fill="none" stroke="#161615" stroke-width="2"/>
    <path id="Path_556" data-name="Path 556" d="M124.918,55.314c16.151-6.21,44.342-10.231,82.622,3.564" transform="translate(260.838 103.555)" fill="none" stroke="#161615" stroke-width="2"/>
    <path id="Path_557" data-name="Path 557" d="M225.266,90.9c-9.351,2.054-23.38,6.927-28.361,10.515,0,0-.871-6.6,18.745-23.735s-.238-30.464-.238-30.464,10.836,12.905-9.533,25.992S210.851,37.031,216,32.044c0,0-23.54,20.418-27.737,31.282,0,0-1.538-28.04,6.142-37.159,0,0-24.739,30.1-30.464,50.252,0,0,12.51-64.507-24.235-70.976,0,0,20.736,19.934,9.5,40.7,0,0-1.461-24.773-13.381-29.439,0,0,9.332,13.5,2.31,23.4,0,0-21.947-30.909-16.1-39.824,0,0-11.315,17.5,6.695,43.715,0,0-26.829-24.816-32.9-21.718,0,0,29.945,18.2,40.157,38.3s-2.075,11.077-13.2,1.745c0,0,7,19.461,25.616,26.517,9.169,3.462,16.114,30.912,11.716,43.934" transform="translate(200.092 0.572)" fill="none" stroke="#161615" stroke-width="2"/>
    <path id="Path_558" data-name="Path 558" d="M120.7,74.846c5.994-12.328,17.423-25.674,38.86-35.954,6.006-2.881,10.629-5.259,14.082-7.2" transform="translate(252.027 66.184)" fill="none" stroke="#161615" stroke-width="2"/>
    <path id="Path_559" data-name="Path 559" d="M180.669,66.884a48.081,48.081,0,0,1-9.147,7.331S229.05,68.511,245.5,54.7c0,0-14.795,20.73-28.027,23.54,0,0,54.656-11.6,67.326-1.461,0,0-42.372.247-63.482,22.154s78.971,13.628,88.517,7.658c0,0-30.686,21.6-44.74,20.937,0,0,31.088,6.108,45.114,26.533,0,0-30.282-7.665-57.466-7.847-26.69-.173-89.514-22.494-92.775-30.118,0,0,10.175,25.73,25.159,28.735,0,0-48.112-5.135-63.438-36.032" transform="translate(254.092 114.214)" fill="none" stroke="#161615" stroke-width="2"/>
    <path id="Path_560" data-name="Path 560" d="M144.87,56.993a35.365,35.365,0,0,1-4.082,5.1" transform="translate(293.976 119.006)" fill="none" stroke="#161615" stroke-width="2"/>
    <path id="Path_561" data-name="Path 561" d="M126.191,86.095c17.228-8.041,36.381-19.1,53.553-33.9,0,0,.936,6.686-4.394,14.829" transform="translate(263.496 108.979)" fill="none" stroke="#161615" stroke-width="2"/>
    <path id="Path_562" data-name="Path 562" d="M175.884,63.26a91.314,91.314,0,0,0-18.028-3.984" transform="translate(329.615 123.773)" fill="none" stroke="#161615" stroke-width="2"/>
    <path id="Path_563" data-name="Path 563" d="M188.542,94.014a54.851,54.851,0,0,1-5.679-15.808c-1.038-5.432-7.146-11.077-15.252-15.7" transform="translate(349.984 130.511)" fill="none" stroke="#161615" stroke-width="2"/>
    <path id="Path_564" data-name="Path 564" d="M184.932,73.985c.862,4.777,5.512,13.449,10.3,21.786a72.055,72.055,0,0,1-19.081-17.346" transform="translate(367.821 154.486)" fill="none" stroke="#161615" stroke-width="2"/>
    <path id="Path_565" data-name="Path 565" d="M194.719,30.8c-2.736,10.672-16.358,36.56-23.963,43.94,0,0,8.85,2.77,37.1-19.989s41.757,7.686,41.757,7.686-15.1-18-37.968,6.785,50.848,1.912,58.933-3.947c0,0-33.7,27.354-49.635,30.513,0,0,38.079,8.881,52.482.54,0,0-47.282,26.684-76.334,29.7,0,0,91.552-1.606,91.558,50.419,0,0-22.348-33.234-53.563-22.849,0,0,33.651,7.989,37.174,25.474,0,0-16.271-16.07-31.551-8.823,0,0,25.307,25.628,41.813,31.254a1.9,1.9,0,0,1-.479,3.681c-8.217.747-21.651-2.186-39.679-19.881,0,0,18.306,39.719,12.593,47.3,0,0-17.744-45.487-42.862-64.346-4.966-3.73-8.582-5.979-11.108-7.05" transform="translate(356.551 64.306)" fill="none" stroke="#161615" stroke-width="2"/>
    <path id="Path_566" data-name="Path 566" d="M143.7,105.145c21.793.012,54.288-8.131,82.875-48.035,21.8-30.436,26.9-31.931,24.655-23.167" transform="translate(300.046 61.16)" fill="none" stroke="#161615" stroke-width="2"/>
    <line id="Line_7" data-name="Line 7" x1="57.849" y2="16.203" transform="translate(474.425 205.439)" fill="none" stroke="#161615" stroke-width="2"/>
    <path id="Path_567" data-name="Path 567" d="M393.227,115.683,206.018,168.122.658,61.453v160.5l204.023,127.97L586.834,210.987V125.654" transform="translate(1.374 128.319)" fill="none" stroke="#161615" stroke-width="2"/>
    <path id="Path_568" data-name="Path 568" d="M53.712,89.011,93.9,292.382l1.337-181.8-31.77,27.79" transform="translate(112.156 185.861)" fill="none" stroke="#161615" stroke-width="2"/>
    <line id="Line_8" data-name="Line 8" x1="27.78" y2="146.069" transform="translate(2.033 204.203)" fill="none" stroke="#161615" stroke-width="2"/>
    <line id="Line_9" data-name="Line 9" x2="24.072" y2="10.286" transform="translate(402.094 110.234)" fill="none" stroke="#161615" stroke-width="2"/>
    <line id="Line_10" data-name="Line 10" y1="9.434" x2="39.876" transform="translate(319.195 105.311)" fill="none" stroke="#161615" stroke-width="2"/>
    <path id="Path_569" data-name="Path 569" d="M20.549,125.892.659,69.979,53.953,57.371" transform="translate(1.375 119.794)" fill="none" stroke="#161615" stroke-width="2"/>
    <path id="Path_570" data-name="Path 570" d="M64.209,147.227l-33.87-22.4a20.5,20.5,0,0,1-9.19-17.092v-5.6a5.759,5.759,0,0,1,8.937-4.8l33.87,22.4a20.5,20.5,0,0,1,9.19,17.093v5.6A5.759,5.759,0,0,1,64.209,147.227Z" transform="translate(44.161 201.222)" fill="none" stroke="#161615" stroke-width="2"/>
    <path id="Path_571" data-name="Path 571" d="M97.161,21.343s-5.342,27.626,17.148,79.645" transform="translate(201.722 44.566)" fill="none" stroke="#161615" stroke-width="2"/>
    <path id="Path_572" data-name="Path 572" d="M211.156,135.1a56.822,56.822,0,0,0-46.778-48.313A35.673,35.673,0,0,1,137.369,66L119.425,24.5s-1.995,10.373,1.615,30.343l-.012-.037c-11.874-27.462-35.105-34.96-35.105-34.96L110.84,77.475a35.647,35.647,0,0,1-3.344,33.9,56.669,56.669,0,0,0-4.385,55" transform="translate(179.412 41.432)" fill="none" stroke="#161615" stroke-width="2"/>
    <path id="Path_573" data-name="Path 573" d="M143.1,57.166a56.989,56.989,0,0,1-14.786,46.476s-12.028,10.929-9.425,20.48l2.606,9.551" transform="translate(247.471 119.367)" fill="none" stroke="#161615" stroke-width="2"/>
    <path id="Path_574" data-name="Path 574" d="M74.413,153.044a61.643,61.643,0,0,1,56.611-85.969c29.775,0,56.289,24.464,62.036,52.537" transform="translate(144.933 140.058)" fill="none" stroke="#161615" stroke-width="2"/>
    <path id="Path_575" data-name="Path 575" d="M42.627,117.159A53.119,53.119,0,0,1,138.75,88.981" transform="translate(89.008 139.765)" fill="none" stroke="#161615" stroke-width="2"/>
    <path id="Path_576" data-name="Path 576" d="M246.1,69.64a15.57,15.57,0,0,0-2.174-1.189c-4.45-1.955-7.726-5.769-9.959-10.079a21.629,21.629,0,0,0-27.385-10.11,22.288,22.288,0,0,1-8.925,1.674,13.462,13.462,0,0,0-4.086-4.215,11.42,11.42,0,0,0-1.655-.9,16.231,16.231,0,0,1-7.563-7.655,16.42,16.42,0,0,0-20.8-7.68,16.8,16.8,0,0,1-7.9,1.241c-.1-.009-.191-.015-.29-.025a16.4,16.4,0,0,0-5.6.587,19.193,19.193,0,0,1-2.718-2.918,11.44,11.44,0,0,0-5.972-4.2,11.306,11.306,0,0,0-3.61-.466,21.494,21.494,0,0,1-11.7-2.5,16.431,16.431,0,0,0-21.135,3.919,15.99,15.99,0,0,1-8.2,5.169,11.4,11.4,0,0,0-7.825,7.726c-.074.256-.142.513-.2.769a19.472,19.472,0,0,1-1.766,4.685c-.414.142-.821.287-1.2.463a18.189,18.189,0,0,1-8.878,1.791,9.2,9.2,0,0,0-5.7,1.467,9.089,9.089,0,0,0-2.18,1.97,17.346,17.346,0,0,1-7.668,5.87,13.251,13.251,0,0,0-8.668,15.02,12.851,12.851,0,0,1-1.121,7.736,9.235,9.235,0,0,0-.587,5.92,19.682,19.682,0,0,1-7.692,5.213A16.431,16.431,0,0,0,32.2,107.537a15.979,15.979,0,0,1-1.39,9.588,11.4,11.4,0,0,0,.794,10.966c.071.108.145.207.219.312a14.381,14.381,0,0,1-4.16,2.325,13.256,13.256,0,0,0-8.668,15.02,12.93,12.93,0,0,1-1.121,7.739,9.191,9.191,0,0,0,.639,8.847c.117.182.241.358.367.525a19.149,19.149,0,0,1,3.391,8.915,8.891,8.891,0,0,0,.815,2.656c1.692,3.49,5.571,5.25,9.446,4.993a9.129,9.129,0,0,0,1.5-.219,13.059,13.059,0,0,1,8.591,1.26,13.259,13.259,0,0,0,11.126.158,26.357,26.357,0,0,1,1.183,4.929,9.96,9.96,0,0,0,.9,2.931c1.865,3.854,6.148,5.793,10.422,5.512a10.235,10.235,0,0,0,1.658-.244,14.416,14.416,0,0,1,9.48,1.393,14.618,14.618,0,0,0,18.9-5.682,14.989,14.989,0,0,1,4.953-5.117c.074-.043.145-.09.219-.139a14.574,14.574,0,0,0,6.491-10.039,14.652,14.652,0,0,1,2.755-6.633,14.714,14.714,0,0,0,2.125-4.024,11.411,11.411,0,0,0,2.943.639,11.293,11.293,0,0,0,3.625-.327,21.5,21.5,0,0,1,11.969-.093,16.423,16.423,0,0,0,19.782-8.4c.031-.059.071-.108.1-.164a16.417,16.417,0,0,0,8.841,12.105,16.991,16.991,0,0,0,3.928,1.405,22.548,22.548,0,0,1,10.123,4.845A11.438,11.438,0,0,0,184.519,176a21.5,21.5,0,0,1,11.969-.093,16.421,16.421,0,0,0,19.782-8.4,15.986,15.986,0,0,1,6.877-6.825,11.384,11.384,0,0,0,5.966-9.236c.022-.269.028-.531.028-.794a23.762,23.762,0,0,1,3.295-11.352,10.858,10.858,0,0,0-1.606-12.723,21.151,21.151,0,0,1,8.906-8.736,15,15,0,0,0,7.853-12.161c.028-.349.037-.7.037-1.044,0-5.287,1.8-10.308,4.336-14.943a14.738,14.738,0,0,0,1.544-4.262C254.732,79.213,251.4,73.111,246.1,69.64Z" transform="translate(35.559 39.554)" fill="none" stroke="#161615" stroke-width="2"/>
    <path id="Path_577" data-name="Path 577" d="M39.429,91.166A16.415,16.415,0,0,0,48.4,104.043a16.99,16.99,0,0,0,3.928,1.405,22.544,22.544,0,0,1,10.126,4.845,11.438,11.438,0,0,0,10.367,2.48,21.489,21.489,0,0,1,11.966-.093,16.426,16.426,0,0,0,19.785-8.4,15.961,15.961,0,0,1,6.88-6.825,11.4,11.4,0,0,0,5.963-9.236c.019-.269.028-.531.028-.794a23.762,23.762,0,0,1,3.295-11.352,11.324,11.324,0,0,0,1.173-3.236c.929-4.719-1.6-9.354-5.626-11.991a11.1,11.1,0,0,0-1.652-.9,16.2,16.2,0,0,1-7.563-7.658,16.422,16.422,0,0,0-20.8-7.677,16.82,16.82,0,0,1-7.9,1.241c-.1-.009-.191-.019-.29-.025a16.379,16.379,0,0,0-12.609,4.62,16.454,16.454,0,0,1-6.951,4.089A16.407,16.407,0,0,0,47.391,75.247,16.438,16.438,0,0,0,39.429,91.166Z" transform="translate(82.145 90.601)" fill="none" stroke="#161615" stroke-width="2"/>
    <path id="Path_578" data-name="Path 578" d="M130.9,44.631a13.342,13.342,0,0,0-4.669-5.213,11.449,11.449,0,0,0-1.652-.9,16.162,16.162,0,0,1-7.563-7.655,16.431,16.431,0,0,0-20.8-7.68,16.781,16.781,0,0,1-7.9,1.241c-.1-.009-.195-.015-.29-.022a16.348,16.348,0,0,0-12.609,4.62,16.529,16.529,0,0,1-6.954,4.089A16.4,16.4,0,0,0,57.334,53.818a16.436,16.436,0,0,0-7.961,15.919" transform="translate(102.907 45.859)" fill="none" stroke="#161615" stroke-width="2"/>
    <path id="Path_579" data-name="Path 579" d="M60.454,89.093a16.415,16.415,0,0,0,8.971,12.877,16.992,16.992,0,0,0,3.928,1.405,22.543,22.543,0,0,1,10.126,4.845,11.438,11.438,0,0,0,10.367,2.48,21.489,21.489,0,0,1,11.966-.093,16.426,16.426,0,0,0,19.785-8.4,15.96,15.96,0,0,1,6.88-6.825,11.4,11.4,0,0,0,5.963-9.236c.019-.269.028-.531.028-.794A23.762,23.762,0,0,1,141.763,74a11.324,11.324,0,0,0,1.173-3.236c.929-4.719-1.6-9.354-5.626-11.991a11.1,11.1,0,0,0-1.652-.9,16.2,16.2,0,0,1-7.563-7.655" transform="translate(126.233 104.851)" fill="none" stroke="#161615" stroke-width="2"/>
    <path id="Path_580" data-name="Path 580" d="M142.28,108.079a21.028,21.028,0,0,1,9.057-8.983,15,15,0,0,0,7.853-12.161q.037-.528.037-1.047c0-5.287,1.794-10.3,4.336-14.943a14.8,14.8,0,0,0,1.544-4.262C166.33,60.47,163,54.368,157.7,50.9a14.643,14.643,0,0,0-2.174-1.189c-4.447-1.955-7.726-5.769-9.959-10.083a21.617,21.617,0,0,0-27.382-10.107,22.157,22.157,0,0,1-10.4,1.634c-.127-.012-.253-.022-.38-.031A21.548,21.548,0,0,0,90.8,37.2a21.741,21.741,0,0,1-9.153,5.386A21.6,21.6,0,0,0,67,69.858a21.8,21.8,0,0,0-7.634,7.668" transform="translate(123.959 58.294)" fill="none" stroke="#161615" stroke-width="2"/>
    <path id="Path_581" data-name="Path 581" d="M86.723,59.32A16.4,16.4,0,0,0,68.586,36.928a16.862,16.862,0,0,0-3.981,1.241A22.575,22.575,0,0,1,53.6,40.393a11.436,11.436,0,0,0-9.768,4.255,21.469,21.469,0,0,1-9.505,7.276A16.446,16.446,0,0,0,23.584,70.542a15.986,15.986,0,0,1-1.39,9.592,11.388,11.388,0,0,0,.8,10.966" transform="translate(44.168 76.546)" fill="none" stroke="#161615" stroke-width="2"/>
    <path id="Path_582" data-name="Path 582" d="M36,58.729a14.615,14.615,0,0,0-6.4,15.03A14.24,14.24,0,0,1,28.358,82.3a10.141,10.141,0,0,0,.707,9.761c.13.2.266.4.408.581a21.156,21.156,0,0,1,3.74,9.836,9.953,9.953,0,0,0,.9,2.931c1.868,3.854,6.148,5.793,10.422,5.512a10.237,10.237,0,0,0,1.658-.244,14.414,14.414,0,0,1,9.48,1.393,14.626,14.626,0,0,0,18.9-5.682,14.99,14.99,0,0,1,4.953-5.117c.074-.046.148-.09.219-.139" transform="translate(57.277 122.631)" fill="none" stroke="#161615" stroke-width="2"/>
    <path id="Path_583" data-name="Path 583" d="M107.517,78.941s17.96-4.382,25.847,11.827" transform="translate(224.504 163.708)" fill="none" stroke="#161615" stroke-width="2"/>
  </g>
</svg>
