<svg xmlns="http://www.w3.org/2000/svg" xmlns:xlink="http://www.w3.org/1999/xlink" width="546.319" height="769.015" viewBox="0 0 546.319 769.015">
  <defs>
    <clipPath id="clip-path">
      <rect id="Rectangle_65" data-name="Rectangle 65" width="546.319" height="769.015" fill="none"/>
    </clipPath>
  </defs>
  <g id="Group_64" data-name="Group 64" transform="translate(0 0)">
    <g id="Group_63" data-name="Group 63" transform="translate(0 0)" clip-path="url(#clip-path)">
      <path id="Path_599" data-name="Path 599" d="M227.187,281.094s-17.455,124.057,0,182.29l-7.757,6.868s-30.651,11.244-11.09-195c0,0-37.7-112.178-112.483-145.482,0,0,71.865,18.112,118.021,132.044,0,0,7.6-122.112,141.391-185.8,0,0-105.728,45.261-128.082,205.077" transform="translate(31.122 24.68)" fill="#62ff6e"/>
      <path id="Path_600" data-name="Path 600" d="M227.187,281.094s-17.455,124.057,0,182.29l-7.757,6.868s-30.651,11.244-11.09-195c0,0-37.7-112.178-112.483-145.482,0,0,71.865,18.112,118.021,132.044,0,0,7.6-122.112,141.391-185.8C355.27,76.017,249.541,121.278,227.187,281.094Z" transform="translate(31.122 24.68)" fill="none" stroke="#000" stroke-linecap="round" stroke-linejoin="round" stroke-width="0.5"/>
      <path id="Path_601" data-name="Path 601" d="M180.771,370.6s11.615,21.837,10.257,40.654" transform="translate(58.691 120.322)" fill="#00b300"/>
      <path id="Path_602" data-name="Path 602" d="M180.771,370.6s11.615,21.837,10.257,40.654" transform="translate(58.691 120.322)" fill="none" stroke="#000" stroke-linecap="round" stroke-linejoin="round" stroke-width="0.5"/>
      <path id="Path_603" data-name="Path 603" d="M227.81,150.136c-28.719,42.53-33.195,98.989-33.195,98.989s-13.747-40.523-35.806-71.389" transform="translate(51.56 48.745)" fill="none" stroke="#000" stroke-linecap="round" stroke-linejoin="round" stroke-width="0.5"/>
      <path id="Path_604" data-name="Path 604" d="M186.7,231.688S174.3,306.866,181.294,372.6" transform="translate(58.166 75.222)" fill="none" stroke="#fff" stroke-linecap="round" stroke-linejoin="round" stroke-width="0.5"/>
      <path id="Path_605" data-name="Path 605" d="M93.827,183.182s13.4,4.212,8.424-9.955-6.581-50.083,31.744-38.634c0,0,26.839,24.084,3.483,41.314s-33.7,13.4-43.65,7.275" transform="translate(30.463 42.979)" fill="#0fa639"/>
      <path id="Path_606" data-name="Path 606" d="M93.827,183.182s13.4,4.212,8.424-9.955-6.581-50.083,31.744-38.634c0,0,26.839,24.084,3.483,41.314S103.782,189.309,93.827,183.182Z" transform="translate(30.463 42.979)" fill="none" stroke="#000" stroke-linecap="round" stroke-linejoin="round" stroke-width="0.5"/>
      <path id="Path_607" data-name="Path 607" d="M131.241,134.05s3.394,49.78-28.931,51.022" transform="translate(33.217 43.522)" fill="#0fa639"/>
      <path id="Path_608" data-name="Path 608" d="M131.241,134.05s3.394,49.78-28.931,51.022" transform="translate(33.217 43.522)" fill="none" stroke="#000" stroke-linecap="round" stroke-linejoin="round" stroke-width="0.5"/>
      <path id="Path_609" data-name="Path 609" d="M136.126,168.539a28.8,28.8,0,0,0-4.869-27.845s-16.762-8.956-28.947,7.455" transform="translate(33.217 44.887)" fill="none" stroke="#000" stroke-linecap="round" stroke-linejoin="round" stroke-width="0.5"/>
      <path id="Path_610" data-name="Path 610" d="M123.332,150.136s6.013,13.517-1.313,21.011" transform="translate(39.616 48.745)" fill="#0fa639"/>
      <path id="Path_611" data-name="Path 611" d="M123.332,150.136s6.013,13.517-1.313,21.011" transform="translate(39.616 48.745)" fill="none" stroke="#000" stroke-linecap="round" stroke-linejoin="round" stroke-width="0.5"/>
      <path id="Path_612" data-name="Path 612" d="M120.777,161.117s.514,10.444-5.7,12.432" transform="translate(37.361 52.31)" fill="#0fa639"/>
      <path id="Path_613" data-name="Path 613" d="M120.777,161.117s.514,10.444-5.7,12.432" transform="translate(37.361 52.31)" fill="none" stroke="#000" stroke-linecap="round" stroke-linejoin="round" stroke-width="0.5"/>
      <path id="Path_614" data-name="Path 614" d="M130.235,148.37s-15-9.445-27.925,17.409" transform="translate(33.217 47.648)" fill="none" stroke="#000" stroke-linecap="round" stroke-linejoin="round" stroke-width="0.5"/>
      <path id="Path_615" data-name="Path 615" d="M126.1,159.524s-4.4-6.928-23.792,11.721" transform="translate(33.217 51.384)" fill="none" stroke="#000" stroke-linecap="round" stroke-linejoin="round" stroke-width="0.5"/>
      <path id="Path_616" data-name="Path 616" d="M95.857,116.6s11.737,4.091,17.936,7.6" transform="translate(31.122 37.855)" fill="#0fa639"/>
      <path id="Path_617" data-name="Path 617" d="M95.857,116.6s11.737,4.091,17.936,7.6" transform="translate(31.122 37.855)" fill="none" stroke="#000" stroke-linecap="round" stroke-linejoin="round" stroke-width="0.5"/>
      <path id="Path_618" data-name="Path 618" d="M52.963,154.761s-7.133,3.8-3.411-39.463S70.9,35.853,86.33,35.853c0,0,21.57-28.719,45.354-9.7,0,0-21.034-.746-20.444,19.768S106.433,143.71,77.518,142.9s-24.555,11.864-24.555,11.864" transform="translate(15.739 6.379)" fill="#0f531f"/>
      <path id="Path_619" data-name="Path 619" d="M52.963,154.761s-7.133,3.8-3.411-39.463S70.9,35.853,86.33,35.853c0,0,21.57-28.719,45.354-9.7,0,0-21.034-.746-20.444,19.768S106.433,143.71,77.518,142.9,52.963,154.761,52.963,154.761Z" transform="translate(15.739 6.379)" fill="none" stroke="#000" stroke-linecap="round" stroke-linejoin="round" stroke-width="0.5"/>
      <path id="Path_620" data-name="Path 620" d="M144.834,127.557S96.752,81.42,56.843,124.928,22.494,211.617,22.821,219.8,14.643,238.441.25,232.553c0,0,22.571,19.3,52.013-6.215s83.371-104.135,92.571-98.781" transform="translate(0.081 34.496)" fill="#0fa61f"/>
      <path id="Path_621" data-name="Path 621" d="M144.834,127.557S96.752,81.42,56.843,124.928,22.494,211.617,22.821,219.8,14.643,238.441.25,232.553c0,0,22.571,19.3,52.013-6.215S135.634,122.2,144.834,127.557Z" transform="translate(0.081 34.496)" fill="none" stroke="#000" stroke-linecap="round" stroke-linejoin="round" stroke-width="0.5"/>
      <path id="Path_622" data-name="Path 622" d="M37.376,136.931s25.185-44.1,69.289-25.491c0,0,14.822,6.817,17.429,9.614,0,0-37.585-19.93-69.671,13.979,0,0-31.8,32.723-17.047,1.9" transform="translate(10.867 34.693)" fill="#0f6d1f"/>
      <path id="Path_623" data-name="Path 623" d="M17.29,217.31S47.059,98.563,116.083,115.573" transform="translate(5.614 36.982)" fill="none" stroke="#000" stroke-linecap="round" stroke-linejoin="round" stroke-width="0.5"/>
      <path id="Path_624" data-name="Path 624" d="M73.191,115.581s-19.225,16.81-4.975,33.8-.142,29.234-.142,29.234" transform="translate(20.44 37.526)" fill="#0fa61f"/>
      <path id="Path_625" data-name="Path 625" d="M73.191,115.581s-19.225,16.81-4.975,33.8-.142,29.234-.142,29.234" transform="translate(20.44 37.526)" fill="none" stroke="#000" stroke-linecap="round" stroke-linejoin="round" stroke-width="0.5"/>
      <path id="Path_626" data-name="Path 626" d="M54.351,125.8s-12.78,21.245,2.27,26.152-.325,43.835-.325,43.835" transform="translate(16.002 40.843)" fill="#0fa61f"/>
      <path id="Path_627" data-name="Path 627" d="M54.351,125.8s-12.78,21.245,2.27,26.152-.325,43.835-.325,43.835" transform="translate(16.002 40.843)" fill="none" stroke="#000" stroke-linecap="round" stroke-linejoin="round" stroke-width="0.5"/>
      <path id="Path_628" data-name="Path 628" d="M11.363,211.851S35.9,218.393,65.012,181.1" transform="translate(3.689 58.798)" fill="#0fa61f"/>
      <path id="Path_629" data-name="Path 629" d="M11.363,211.851S35.9,218.393,65.012,181.1" transform="translate(3.689 58.798)" fill="none" stroke="#000" stroke-linecap="round" stroke-linejoin="round" stroke-width="0.5"/>
      <path id="Path_630" data-name="Path 630" d="M91.407,114.375s-15.337,6.41-7.486,23.847-6.87,23.526-6.87,23.526" transform="translate(25.016 37.134)" fill="#0fa61f"/>
      <path id="Path_631" data-name="Path 631" d="M91.407,114.375s-15.337,6.41-7.486,23.847-6.87,23.526-6.87,23.526" transform="translate(25.016 37.134)" fill="none" stroke="#000" stroke-linecap="round" stroke-linejoin="round" stroke-width="0.5"/>
      <path id="Path_632" data-name="Path 632" d="M38.648,143.768s-7.288,24.265,4.489,21.321,9.87,30.161,3.627,39.616" transform="translate(11.824 46.677)" fill="#0fa61f"/>
      <path id="Path_633" data-name="Path 633" d="M38.648,143.768s-7.288,24.265,4.489,21.321,9.87,30.161,3.627,39.616" transform="translate(11.824 46.677)" fill="none" stroke="#000" stroke-linecap="round" stroke-linejoin="round" stroke-width="0.5"/>
      <path id="Path_634" data-name="Path 634" d="M27.683,168.062s29.875,20.224-8.832,48.026" transform="translate(6.12 54.565)" fill="#0fa61f"/>
      <path id="Path_635" data-name="Path 635" d="M27.683,168.062s29.875,20.224-8.832,48.026" transform="translate(6.12 54.565)" fill="none" stroke="#000" stroke-linecap="round" stroke-linejoin="round" stroke-width="0.5"/>
      <path id="Path_636" data-name="Path 636" d="M58.833,109.2c23.24-5,34.334,6.784,34.334,6.784" transform="translate(19.101 35.051)" fill="none" stroke="#000" stroke-linecap="round" stroke-linejoin="round" stroke-width="0.5"/>
      <path id="Path_637" data-name="Path 637" d="M72.807,117.969S59.223,111.12,45.7,118.4" transform="translate(14.838 37.353)" fill="none" stroke="#000" stroke-linecap="round" stroke-linejoin="round" stroke-width="0.5"/>
      <path id="Path_638" data-name="Path 638" d="M53.729,130.926s-14.182-2.68-23.484,8.4" transform="translate(9.82 42.415)" fill="none" stroke="#000" stroke-linecap="round" stroke-linejoin="round" stroke-width="0.5"/>
      <path id="Path_639" data-name="Path 639" d="M37.458,151.691s-11.248-1.167-16.64,8.461" transform="translate(6.759 49.235)" fill="#0fa61f"/>
      <path id="Path_640" data-name="Path 640" d="M37.458,151.691s-11.248-1.167-16.64,8.461" transform="translate(6.759 49.235)" fill="none" stroke="#000" stroke-linecap="round" stroke-linejoin="round" stroke-width="0.5"/>
      <path id="Path_641" data-name="Path 641" d="M85.633,127.146c0,3.037-.841,5.5-1.88,5.5s-1.88-2.464-1.88-5.5.841-5.5,1.88-5.5,1.88,2.464,1.88,5.5" transform="translate(26.582 39.494)" fill="#fff"/>
      <path id="Path_642" data-name="Path 642" d="M83.909,34.04s-16.058-.249-27.976,43.265" transform="translate(18.16 11.052)" fill="#0f531f"/>
      <path id="Path_643" data-name="Path 643" d="M83.909,34.04s-16.058-.249-27.976,43.265" transform="translate(18.16 11.052)" fill="none" stroke="#000" stroke-linecap="round" stroke-linejoin="round" stroke-width="0.5"/>
      <path id="Path_644" data-name="Path 644" d="M128,25.446S107.059,11.646,89.827,38s11.654,57.936-30.016,93.989" transform="translate(19.419 7.089)" fill="none" stroke="#000" stroke-linecap="round" stroke-linejoin="round" stroke-width="0.5"/>
      <path id="Path_645" data-name="Path 645" d="M77.837,54.381s21.631-22.13,21.181-14.918" transform="translate(25.271 12.343)" fill="none" stroke="#000" stroke-linecap="round" stroke-linejoin="round" stroke-width="0.5"/>
      <path id="Path_646" data-name="Path 646" d="M78.06,69.357s22.828-21.881,20.886-12.184" transform="translate(25.344 17.757)" fill="none" stroke="#000" stroke-linecap="round" stroke-linejoin="round" stroke-width="0.5"/>
      <path id="Path_647" data-name="Path 647" d="M76.394,81.972s21.648-12.493,18.665-2.049c0,0-6.809,31.755-16.459,36.764" transform="translate(24.803 24.597)" fill="none" stroke="#000" stroke-linecap="round" stroke-linejoin="round" stroke-width="0.5"/>
      <path id="Path_648" data-name="Path 648" d="M70.644,107.4S47.76,93.652,55.186,70.678" transform="translate(17.436 22.947)" fill="none" stroke="#000" stroke-linecap="round" stroke-linejoin="round" stroke-width="0.5"/>
      <path id="Path_649" data-name="Path 649" d="M77.593,99.543S54.736,69.6,62.332,53" transform="translate(19.735 17.207)" fill="none" stroke="#000" stroke-linecap="round" stroke-linejoin="round" stroke-width="0.5"/>
      <path id="Path_650" data-name="Path 650" d="M80.64,69.3S60.05,42.448,76.461,36.48" transform="translate(22.763 11.844)" fill="none" stroke="#000" stroke-linecap="round" stroke-linejoin="round" stroke-width="0.5"/>
      <path id="Path_651" data-name="Path 651" d="M139.2,159.132s4.344-7.7,2.478-11.427-.347-77.982,71.437-33.21c0,0,4.11,36.974-66.589,36.121,0,0-7.788,7.736-2.881,13.028s-4.446-4.513-4.446-4.513" transform="translate(45.194 32.527)" fill="#0f774c"/>
      <path id="Path_652" data-name="Path 652" d="M139.2,159.132s4.344-7.7,2.478-11.427-.347-77.982,71.437-33.21c0,0,4.11,36.974-66.589,36.121,0,0-7.788,7.736-2.881,13.028S139.2,159.132,139.2,159.132Z" transform="translate(45.194 32.527)" fill="none" stroke="#000" stroke-linecap="round" stroke-linejoin="round" stroke-width="0.5"/>
      <path id="Path_653" data-name="Path 653" d="M141.071,145.682s29.838-59.676,69-31.889" transform="translate(45.801 34.55)" fill="#0f774c"/>
      <path id="Path_654" data-name="Path 654" d="M141.071,145.682s29.838-59.676,69-31.889" transform="translate(45.801 34.55)" fill="none" stroke="#000" stroke-linecap="round" stroke-linejoin="round" stroke-width="0.5"/>
      <path id="Path_655" data-name="Path 655" d="M143.183,139.075s35.246,3.357,57.438-12.308" transform="translate(46.487 41.157)" fill="#0f774c"/>
      <path id="Path_656" data-name="Path 656" d="M143.183,139.075s35.246,3.357,57.438-12.308" transform="translate(46.487 41.157)" fill="none" stroke="#000" stroke-linecap="round" stroke-linejoin="round" stroke-width="0.5"/>
      <path id="Path_657" data-name="Path 657" d="M144.747,138.053s-3.133-16.4,9.018-33.06" transform="translate(46.877 34.088)" fill="#0f774c"/>
      <path id="Path_658" data-name="Path 658" d="M144.747,138.053s-3.133-16.4,9.018-33.06" transform="translate(46.877 34.088)" fill="none" stroke="#000" stroke-linecap="round" stroke-linejoin="round" stroke-width="0.5"/>
      <path id="Path_659" data-name="Path 659" d="M122.825,149.494c0,.7-1.735,1.258-3.876,1.258s-3.876-.563-3.876-1.258,1.735-1.258,3.876-1.258,3.876.563,3.876,1.258" transform="translate(37.361 48.128)" fill="#fff"/>
      <path id="Path_660" data-name="Path 660" d="M152.733,125.385s3.763-27.066,19.054-23.9" transform="translate(49.588 32.867)" fill="#0f774c"/>
      <path id="Path_661" data-name="Path 661" d="M152.733,125.385s3.763-27.066,19.054-23.9" transform="translate(49.588 32.867)" fill="none" stroke="#000" stroke-linecap="round" stroke-linejoin="round" stroke-width="0.5"/>
      <path id="Path_662" data-name="Path 662" d="M146.293,129.43s44.926,5.756,57.793-7.786" transform="translate(47.497 39.494)" fill="#0f774c"/>
      <path id="Path_663" data-name="Path 663" d="M146.293,129.43s44.926,5.756,57.793-7.786" transform="translate(47.497 39.494)" fill="none" stroke="#000" stroke-linecap="round" stroke-linejoin="round" stroke-width="0.5"/>
      <path id="Path_664" data-name="Path 664" d="M160.809,112.248s36.14,12.892,41.548,4.313" transform="translate(52.21 36.444)" fill="#0f774c"/>
      <path id="Path_665" data-name="Path 665" d="M160.809,112.248s36.14,12.892,41.548,4.313" transform="translate(52.21 36.444)" fill="none" stroke="#000" stroke-linecap="round" stroke-linejoin="round" stroke-width="0.5"/>
      <path id="Path_666" data-name="Path 666" d="M168.808,109.346s6.9-7.723,13.423-5.112" transform="translate(54.807 33.667)" fill="#0f774c"/>
      <path id="Path_667" data-name="Path 667" d="M168.808,109.346s6.9-7.723,13.423-5.112" transform="translate(54.807 33.667)" fill="none" stroke="#000" stroke-linecap="round" stroke-linejoin="round" stroke-width="0.5"/>
      <path id="Path_668" data-name="Path 668" d="M197.078,216.523s-6.965,33.041-8.48,67.13" transform="translate(61.232 70.299)" fill="none" stroke="#000" stroke-linecap="round" stroke-linejoin="round" stroke-width="0.5"/>
      <path id="Path_669" data-name="Path 669" d="M313.029,73.616s26.9-16.6,47.858-.56,34.227,30.36,32.131,55.5c0,0-3.726-38.143-35.275-49.313s-34.925,2.8-34.925,2.8Z" transform="translate(101.631 21.451)" fill="#62ff6e"/>
      <path id="Path_670" data-name="Path 670" d="M313.029,73.616s26.9-16.6,47.858-.56,34.227,30.36,32.131,55.5c0,0-3.726-38.143-35.275-49.313s-34.925,2.8-34.925,2.8Z" transform="translate(101.631 21.451)" fill="none" stroke="#000" stroke-linecap="round" stroke-linejoin="round" stroke-width="0.5"/>
      <path id="Path_671" data-name="Path 671" d="M291.757,85.089s-30.059,41.8-2.335,98.488c0,0,68.34-32.872,36.346-79.841s-34.011-18.647-34.011-18.647" transform="translate(90.153 24.877)" fill="#0f774c"/>
      <path id="Path_672" data-name="Path 672" d="M291.757,85.089s-30.059,41.8-2.335,98.488c0,0,68.34-32.872,36.346-79.841S291.757,85.089,291.757,85.089Z" transform="translate(90.153 24.877)" fill="none" stroke="#000" stroke-linecap="round" stroke-linejoin="round" stroke-width="0.5"/>
      <path id="Path_673" data-name="Path 673" d="M309.4,72.111s31.026-3.139,37.227,14.944-10.318,45.305,20.675,54.17c0,0-42.376,6.386-51.677-35.775S309.4,72.111,309.4,72.111" transform="translate(100.295 23.163)" fill="#0f774c"/>
      <path id="Path_674" data-name="Path 674" d="M309.4,72.111s31.026-3.139,37.227,14.944-10.318,45.305,20.675,54.17c0,0-42.376,6.386-51.677-35.775S309.4,72.111,309.4,72.111Z" transform="translate(100.295 23.163)" fill="none" stroke="#000" stroke-linecap="round" stroke-linejoin="round" stroke-width="0.5"/>
      <path id="Path_675" data-name="Path 675" d="M260.521,102.658s16.905-30.273,38.209-34.443c29.2-5.719,42.367,20.151,46.5,45.985s40.3,31.367,50.116,27.308c0,0-44.926,21.26-67.414-28.341s-67.412-10.509-67.412-10.509" transform="translate(84.583 21.887)" fill="#7bff9e"/>
      <path id="Path_676" data-name="Path 676" d="M260.521,102.658s16.905-30.273,38.209-34.443c29.2-5.719,42.367,20.151,46.5,45.985s40.3,31.367,50.116,27.308c0,0-44.926,21.26-67.414-28.341S260.521,102.658,260.521,102.658Z" transform="translate(84.583 21.887)" fill="none" stroke="#000" stroke-linecap="round" stroke-linejoin="round" stroke-width="0.5"/>
      <path id="Path_677" data-name="Path 677" d="M318.36,73.834s20.389.746,24.367,17.4" transform="translate(103.362 23.972)" fill="#0f774c"/>
      <path id="Path_678" data-name="Path 678" d="M318.36,73.834s20.389.746,24.367,17.4" transform="translate(103.362 23.972)" fill="none" stroke="#000" stroke-linecap="round" stroke-linejoin="round" stroke-width="0.5"/>
      <path id="Path_679" data-name="Path 679" d="M267.3,92.717s22.379-32.955,50.973-20.7" transform="translate(86.785 22.494)" fill="none" stroke="#fff" stroke-linecap="round" stroke-linejoin="round" stroke-width="0.5"/>
      <path id="Path_680" data-name="Path 680" d="M314.981,80.4s10.195,16.659,9.7,29.092" transform="translate(102.265 26.104)" fill="none" stroke="#fff" stroke-linecap="round" stroke-linejoin="round" stroke-width="0.5"/>
      <line id="Line_13" data-name="Line 13" x1="24.199" y2="87.4" transform="translate(379.575 121.054)" fill="#0f774c"/>
      <line id="Line_14" data-name="Line 14" x1="24.199" y2="87.4" transform="translate(379.575 121.054)" fill="none" stroke="#000" stroke-linecap="round" stroke-linejoin="round" stroke-width="0.5"/>
      <path id="Path_681" data-name="Path 681" d="M311.557,93.937s-23.086-9.756-29.8,11.877" transform="translate(91.478 29.786)" fill="#0f774c"/>
      <path id="Path_682" data-name="Path 682" d="M311.557,93.937s-23.086-9.756-29.8,11.877" transform="translate(91.478 29.786)" fill="none" stroke="#000" stroke-linecap="round" stroke-linejoin="round" stroke-width="0.5"/>
      <path id="Path_683" data-name="Path 683" d="M308.143,104.536s-27.207,1.1-28.451,32.682" transform="translate(90.807 33.94)" fill="#0f774c"/>
      <path id="Path_684" data-name="Path 684" d="M308.143,104.536s-27.207,1.1-28.451,32.682" transform="translate(90.807 33.94)" fill="none" stroke="#000" stroke-linecap="round" stroke-linejoin="round" stroke-width="0.5"/>
      <path id="Path_685" data-name="Path 685" d="M297.838,129.207s-15.631,10.176-14.181,21.135c0,0,3.024,11.2,3.853,12.184" transform="translate(92.064 41.95)" fill="none" stroke="#000" stroke-linecap="round" stroke-linejoin="round" stroke-width="0.5"/>
      <path id="Path_686" data-name="Path 686" d="M303.241,97.054s19.273,14.993,10.823,51.3" transform="translate(98.453 31.511)" fill="none" stroke="#000" stroke-linecap="round" stroke-linejoin="round" stroke-width="0.5"/>
      <path id="Path_687" data-name="Path 687" d="M296.934,122.13s16.309,25.039-2.6,38.715" transform="translate(95.563 39.652)" fill="none" stroke="#000" stroke-linecap="round" stroke-linejoin="round" stroke-width="0.5"/>
      <path id="Path_688" data-name="Path 688" d="M306.225,99.783l-8.045,29.6a26.115,26.115,0,0,1,4.979,14.194" transform="translate(96.81 32.397)" fill="none" stroke="#000" stroke-linecap="round" stroke-linejoin="round" stroke-width="0.5"/>
      <path id="Path_689" data-name="Path 689" d="M274.718,86.953s15.292-13.122,26.606-9.11,23.386-6.241,22,17.439c0,0-.493,10.94-7.455.87s-23.994-15.913-41.151-9.2" transform="translate(89.193 25.026)" fill="#fff"/>
      <path id="Path_690" data-name="Path 690" d="M382.612,56.808s20.032-3.569,13.745,28.28-1.743,50.851,17.29,58.289H401.6L380.64,127.416,370.512,85.089Z" transform="translate(120.294 18.405)" fill="#0f5a4c"/>
      <path id="Path_691" data-name="Path 691" d="M382.612,56.808s20.032-3.569,13.745,28.28-1.743,50.851,17.29,58.289H401.6L380.64,127.416,370.512,85.089Z" transform="translate(120.294 18.405)" fill="none" stroke="#000" stroke-linecap="round" stroke-linejoin="round" stroke-width="0.5"/>
      <path id="Path_692" data-name="Path 692" d="M334.392,74.8l9.811-8.438a14.677,14.677,0,0,0,3.147-3.79c3.906-6.757,17.1-27.41,30-22.719,0,0,25.495,10.432,17.113,53.935s34.924,61.806,42.956,55.275c0,0-53.431,22.631-58.148-34.384,0,0-1.224-24.488-44.88-39.878" transform="translate(108.567 12.717)" fill="#7bff9e"/>
      <path id="Path_693" data-name="Path 693" d="M334.392,74.8l9.811-8.438a14.677,14.677,0,0,0,3.147-3.79c3.906-6.757,17.1-27.41,30-22.719,0,0,25.495,10.432,17.113,53.935s34.924,61.806,42.956,55.275c0,0-53.431,22.631-58.148-34.384C379.272,114.68,378.048,90.193,334.392,74.8Z" transform="translate(108.567 12.717)" fill="none" stroke="#000" stroke-linecap="round" stroke-linejoin="round" stroke-width="0.5"/>
      <path id="Path_694" data-name="Path 694" d="M378.512,56.283c-1.315,1.155-5.219-1.138-8.72-5.122s-5.273-8.152-3.958-9.307,5.219,1.138,8.72,5.123,5.274,8.152,3.958,9.307" transform="translate(118.634 13.491)" fill="#fff"/>
      <path id="Path_695" data-name="Path 695" d="M379.144,60.6s3.17,9.249-1.3,28.774,5.909,43.257,20.7,48.244" transform="translate(122.332 19.675)" fill="none" stroke="#fff" stroke-linecap="round" stroke-linejoin="round" stroke-width="0.5"/>
      <path id="Path_696" data-name="Path 696" d="M338.022,66.069s19.953,5.362,33.567,21.53" transform="translate(109.745 21.451)" fill="none" stroke="#000" stroke-linecap="round" stroke-linejoin="round" stroke-width="0.5"/>
      <path id="Path_697" data-name="Path 697" d="M247.526,81.768s21.03-19.661,8.772-30.2S244.041,9.414,272.105,15.22s47.807-4.644,49.226-8.773c0,0-4,15.548,0,19.418s9.16,42.257-39.549,36.774c0,0-11.976-6.955-23.892,13.781Z" transform="translate(80.364 2.093)" fill="#0f774c"/>
      <path id="Path_698" data-name="Path 698" d="M247.526,81.768s21.03-19.661,8.772-30.2S244.041,9.414,272.105,15.22s47.807-4.644,49.226-8.773c0,0-4,15.548,0,19.418s9.16,42.257-39.549,36.774c0,0-11.976-6.955-23.892,13.781Z" transform="translate(80.364 2.093)" fill="none" stroke="#000" stroke-linecap="round" stroke-linejoin="round" stroke-width="0.5"/>
      <path id="Path_699" data-name="Path 699" d="M202.211,200.213s23.122,4.1,24.24-5.969c0,0,.746,4.289-3.916,9.324,0,0,15.292-1.864,18.649-16.969,0,0,.559,9.138-5.6,14.918,0,0,18.09-7.646,30.584,16.225,0,0-16.6-20.514-30.769-11.189,0,0,14.546,4.848,14.732,14.733,0,0,23.684,20.7-3.357,53.707s-11.189,35.06-11.189,35.06-18.088,4.475-4.1-35.06,3.543-64.525-6.9-67.321-20.52-5.692-23.686-2.473Z" transform="translate(65.226 60.583)" fill="#006400"/>
      <path id="Path_700" data-name="Path 700" d="M202.211,200.213s23.122,4.1,24.24-5.969c0,0,.746,4.289-3.916,9.324,0,0,15.292-1.864,18.649-16.969,0,0,.559,9.138-5.6,14.918,0,0,18.09-7.646,30.584,16.225,0,0-16.6-20.514-30.769-11.189,0,0,14.546,4.848,14.732,14.733,0,0,23.684,20.7-3.357,53.707s-11.189,35.06-11.189,35.06-18.088,4.475-4.1-35.06,3.543-64.525-6.9-67.321-20.52-5.692-23.686-2.473Z" transform="translate(65.226 60.583)" fill="none" stroke="#000" stroke-linecap="round" stroke-linejoin="round" stroke-width="0.5"/>
      <path id="Path_701" data-name="Path 701" d="M229.238,213.91s5.594,15.292-1.3,40.654" transform="translate(74.003 69.45)" fill="none" stroke="#000" stroke-linecap="round" stroke-linejoin="round" stroke-width="0.5"/>
      <path id="Path_702" data-name="Path 702" d="M229.608,216.523s19.7,1.688,18.854,16.864" transform="translate(74.547 70.299)" fill="none" stroke="#000" stroke-linecap="round" stroke-linejoin="round" stroke-width="0.5"/>
      <path id="Path_703" data-name="Path 703" d="M230.456,229.255s15.679,8.392,9.711,24.8" transform="translate(74.822 74.432)" fill="none" stroke="#000" stroke-linecap="round" stroke-linejoin="round" stroke-width="0.5"/>
      <path id="Path_704" data-name="Path 704" d="M227.777,247.978s4.566,9.208-2.24,22.564" transform="translate(73.225 80.511)" fill="none" stroke="#000" stroke-linecap="round" stroke-linejoin="round" stroke-width="0.5"/>
      <path id="Path_705" data-name="Path 705" d="M233.52,143.832s-10.311,5.372,1.624-24.483,20.514-55.588,38.043-60.438c0,0-13.427-.372-23.871,18.276,0,0-5.221-15.666-12.307-16.038,0,0,14.546,6.825,1.865,28.774s-32.287,73.151-27.146,82.424,21.792-28.516,21.792-28.516" transform="translate(68.469 19.127)" fill="#62cc6e"/>
      <path id="Path_706" data-name="Path 706" d="M233.52,143.832s-10.311,5.372,1.624-24.483,20.514-55.588,38.043-60.438c0,0-13.427-.372-23.871,18.276,0,0-5.221-15.666-12.307-16.038,0,0,14.546,6.825,1.865,28.774s-32.287,73.151-27.146,82.424S233.52,143.832,233.52,143.832Z" transform="translate(68.469 19.127)" fill="none" stroke="#000" stroke-linecap="round" stroke-linejoin="round" stroke-width="0.5"/>
      <path id="Path_707" data-name="Path 707" d="M259.922,89.22S205.9,71.367,186.257,38.8,160.81,1.249,160.81,1.249s50.312-7.459,74.68,18.4,26.238,64.8,24.432,69.572" transform="translate(52.21 0.081)" fill="#007714"/>
      <path id="Path_708" data-name="Path 708" d="M259.922,89.22S205.9,71.367,186.257,38.8,160.81,1.249,160.81,1.249s50.312-7.459,74.68,18.4S261.727,84.446,259.922,89.22Z" transform="translate(52.21 0.081)" fill="none" stroke="#000" stroke-linecap="round" stroke-linejoin="round" stroke-width="0.5"/>
      <path id="Path_709" data-name="Path 709" d="M193.16,42.4s16.41,17.535,52.214,31.975c0,0,2.8-29.376-11.335-41.693,0,0-6.966,26.929-26.659-3.473,0,0,.7,19.489-14.22,13.191" transform="translate(62.713 9.484)" fill="#0f4b1c"/>
      <path id="Path_710" data-name="Path 710" d="M255.878,85.676s-38.54-16.162-53.211-31.33S172.829,6.108,163.878,2.13" transform="translate(53.206 0.692)" fill="none" stroke="#000" stroke-linecap="round" stroke-linejoin="round" stroke-width="0.5"/>
      <path id="Path_711" data-name="Path 711" d="M216.811,17.709S237.512,49,233,78.111" transform="translate(70.392 5.75)" fill="none" stroke="#000" stroke-linecap="round" stroke-linejoin="round" stroke-width="0.5"/>
      <path id="Path_712" data-name="Path 712" d="M201.043,6.447s27.656,19.642,24.893,69.5" transform="translate(65.272 2.093)" fill="none" stroke="#000" stroke-linecap="round" stroke-linejoin="round" stroke-width="0.5"/>
      <path id="Path_713" data-name="Path 713" d="M188.279,3.256s18.227,16.433,32.362,68.762" transform="translate(61.128 1.057)" fill="none" stroke="#000" stroke-linecap="round" stroke-linejoin="round" stroke-width="0.5"/>
      <path id="Path_714" data-name="Path 714" d="M176.492,2.13s26.059,32.246,30.037,59.015" transform="translate(57.302 0.692)" fill="none" stroke="#000" stroke-linecap="round" stroke-linejoin="round" stroke-width="0.5"/>
      <path id="Path_715" data-name="Path 715" d="M167.35,2.214A113.97,113.97,0,0,1,209.5,6.938" transform="translate(54.333 0.608)" fill="none" stroke="#fff" stroke-linecap="round" stroke-linejoin="round" stroke-width="0.5"/>
      <path id="Path_716" data-name="Path 716" d="M311.181,22.59s-2.8,20.762-35.806,13.365" transform="translate(89.406 7.334)" fill="#0f774c"/>
      <path id="Path_717" data-name="Path 717" d="M311.181,22.59s-2.8,20.762-35.806,13.365" transform="translate(89.406 7.334)" fill="none" stroke="#000" stroke-linecap="round" stroke-linejoin="round" stroke-width="0.5"/>
      <path id="Path_718" data-name="Path 718" d="M274.718,51.235s29.963,5.7,36.676-16.358" transform="translate(89.193 11.324)" fill="#0f774c"/>
      <path id="Path_719" data-name="Path 719" d="M274.718,51.235s29.963,5.7,36.676-16.358" transform="translate(89.193 11.324)" fill="none" stroke="#000" stroke-linecap="round" stroke-linejoin="round" stroke-width="0.5"/>
      <path id="Path_720" data-name="Path 720" d="M276.1,59.018s-9.143-3.73-15.574,3.543c0,0,8.308-37.544,33.477-35.06s19.021-16.6,19.021-16.6" transform="translate(84.583 3.541)" fill="none" stroke="#000" stroke-linecap="round" stroke-linejoin="round" stroke-width="0.5"/>
      <path id="Path_721" data-name="Path 721" d="M274.541,32.684s-5.972-.619-8.658,4.7" transform="translate(86.324 10.604)" fill="none" stroke="#000" stroke-linecap="round" stroke-linejoin="round" stroke-width="0.5"/>
      <path id="Path_722" data-name="Path 722" d="M266.081,51.74s-18.707-9.482-15.536-29.995" transform="translate(81.227 7.06)" fill="none" stroke="#000" stroke-linecap="round" stroke-linejoin="round" stroke-width="0.5"/>
      <path id="Path_723" data-name="Path 723" d="M278.836,15.673s-15.052-4.289-16.6,4.289,6.283,18.027,13.557,12.277" transform="translate(85.075 4.74)" fill="none" stroke="#000" stroke-linecap="round" stroke-linejoin="round" stroke-width="0.5"/>
      <path id="Path_724" data-name="Path 724" d="M202.455,401.511s-8.051-1.5,2.8-27.524-8.767-41.122-10.138-56.239-2.906-32.163-11.725-18.862-3.826-16.022-7.156-14.933c-2.73.893-4.151,13.522-4.575,18.042a8.8,8.8,0,0,0,.282,3.121c1.451,5.391,6.769,15.622,3.037,26.676-2.481,7.353-.709,31.658,1.9,39.789,2.277,7.087-1.595,28.879,5.7,30.63s16.434,10.309,19.871-.7" transform="translate(55.722 92.181)" fill="#00b300"/>
      <path id="Path_725" data-name="Path 725" d="M202.455,401.511s-8.051-1.5,2.8-27.524-8.767-41.122-10.138-56.239-2.906-32.163-11.725-18.862-3.826-16.022-7.156-14.933c-2.73.893-4.151,13.522-4.575,18.042a8.8,8.8,0,0,0,.282,3.121c1.451,5.391,6.769,15.622,3.037,26.676-2.481,7.353-.709,31.658,1.9,39.789,2.277,7.087-1.595,28.879,5.7,30.63S199.018,412.52,202.455,401.511Z" transform="translate(55.722 92.181)" fill="none" stroke="#000" stroke-linecap="round" stroke-linejoin="round" stroke-width="0.5"/>
      <path id="Path_726" data-name="Path 726" d="M177.73,400.051c10.33,11.213-6.4-11.684-6.4-11.684,10.715-3.092,12.7-29.99,12.7-29.99s-.094,17.441,6.1,7.6,13.415-3.151,8.763,8.238,11.658,2.563,13.7.457c0,0-4.138,14.11-13.991,11.98,0,0,4.851,14.145-10.793,18.176,0,0,6.627,7.963-3.052,12.719,0,0-5.443,14.268,1.085,15.835s5.836,10.841-2.827,10.177c0,0,.983,18.433,6.153,22.3l-19.549-1.647s5.517-14.994-2.924-24.571c0,0,4.423-5.782-3.389-10.724,0,0,9.624-15.389,5.25-21.866s-24.366-7.266-10.795-12.975c0,0,8.106-6.907,19.972,5.974" transform="translate(49.708 116.354)" fill="#b99a88"/>
      <path id="Path_727" data-name="Path 727" d="M177.73,400.051c10.33,11.213-6.4-11.684-6.4-11.684,10.715-3.092,12.7-29.99,12.7-29.99s-.094,17.441,6.1,7.6,13.415-3.151,8.763,8.238,11.658,2.563,13.7.457c0,0-4.138,14.11-13.991,11.98,0,0,4.851,14.145-10.793,18.176,0,0,6.627,7.963-3.052,12.719,0,0-5.443,14.268,1.085,15.835s5.836,10.841-2.827,10.177c0,0,.983,18.433,6.153,22.3l-19.549-1.647s5.517-14.994-2.924-24.571c0,0,4.423-5.782-3.389-10.724,0,0,9.624-15.389,5.25-21.866s-24.366-7.266-10.795-12.975C157.758,394.077,165.863,387.17,177.73,400.051Z" transform="translate(49.708 116.354)" fill="none" stroke="#000" stroke-linecap="round" stroke-linejoin="round" stroke-width="0.5"/>
      <path id="Path_728" data-name="Path 728" d="M168.841,395.2s2.365,9.72-6.033,21.868" transform="translate(52.859 128.309)" fill="#b99a88"/>
      <path id="Path_729" data-name="Path 729" d="M168.841,395.2s2.365,9.72-6.033,21.868" transform="translate(52.859 128.309)" fill="none" stroke="#000" stroke-linecap="round" stroke-linejoin="round" stroke-width="0.5"/>
      <path id="Path_730" data-name="Path 730" d="M177.569,401.353s-7.786,13.7-1,17.872" transform="translate(56.425 130.307)" fill="none" stroke="#000" stroke-linecap="round" stroke-linejoin="round" stroke-width="0.5"/>
      <path id="Path_731" data-name="Path 731" d="M174.949,398.091s-4.51,19.439-5.94,20.83a7.45,7.45,0,0,1-1.806,9.49" transform="translate(54.286 129.248)" fill="none" stroke="#000" stroke-linecap="round" stroke-linejoin="round" stroke-width="0.5"/>
      <path id="Path_732" data-name="Path 732" d="M176.175,321.015s-3.477,20.875,2.013,36.353,6,20.792,7.91-2.467,17.343-29.229,18.541-15.844" transform="translate(56.846 104.224)" fill="#00b300"/>
      <path id="Path_733" data-name="Path 733" d="M176.175,321.015s-3.477,20.875,2.013,36.353,6,20.792,7.91-2.467,17.343-29.229,18.541-15.844" transform="translate(56.846 104.224)" fill="none" stroke="#000" stroke-linecap="round" stroke-linejoin="round" stroke-width="0.5"/>
      <path id="Path_734" data-name="Path 734" d="M173.192,299.163s8.157,15.775,4.134,26.716" transform="translate(56.23 97.129)" fill="#00b300"/>
      <path id="Path_735" data-name="Path 735" d="M173.192,299.163s8.157,15.775,4.134,26.716" transform="translate(56.23 97.129)" fill="none" stroke="#000" stroke-linecap="round" stroke-linejoin="round" stroke-width="0.5"/>
      <path id="Path_736" data-name="Path 736" d="M196.376,337.714c-.853,3.555-2.844,6.125-4.447,5.741s-2.21-3.579-1.355-7.135,2.844-6.125,4.446-5.74,2.21,3.578,1.356,7.133" transform="translate(61.748 107.317)" fill="#fff"/>
      <path id="Path_737" data-name="Path 737" d="M210.123,477.8a16.677,16.677,0,0,1-2.126-.825c-5.232-2.463-31.428-13.141-52.165,8.845-8.343,8.846-24.725,22.4-25.952,44.659s-8.8,77.1,49.651,84.421,68.059-73.525,68.059-73.525,6.491-49.739-37.467-63.575" transform="translate(41.849 153.315)" fill="#a04600"/>
      <path id="Path_738" data-name="Path 738" d="M210.123,477.8a16.677,16.677,0,0,1-2.126-.825c-5.232-2.463-31.428-13.141-52.165,8.845-8.343,8.846-24.725,22.4-25.952,44.659s-8.8,77.1,49.651,84.421,68.059-73.525,68.059-73.525S254.08,491.637,210.123,477.8Z" transform="translate(41.849 153.315)" fill="none" stroke="#000" stroke-linecap="round" stroke-linejoin="round" stroke-width="0.5"/>
      <path id="Path_739" data-name="Path 739" d="M149.113,489.807s21.84-26.768,52.832-10.052" transform="translate(48.412 153.979)" fill="none" stroke="#000" stroke-linecap="round" stroke-linejoin="round" stroke-width="0.5"/>
      <path id="Path_740" data-name="Path 740" d="M131.585,534.513s-5.336,42.306,34.431,54.366" transform="translate(42.644 173.54)" fill="none" stroke="#000" stroke-linecap="round" stroke-linejoin="round" stroke-width="0.5"/>
      <path id="Path_741" data-name="Path 741" d="M200.49,515.106s7.508.623,6.886,8.131" transform="translate(65.093 167.24)" fill="none" stroke="#000" stroke-linecap="round" stroke-linejoin="round" stroke-width="0.5"/>
      <path id="Path_742" data-name="Path 742" d="M166.231,550.629a30.079,30.079,0,0,1,2.074,9.483" transform="translate(53.97 178.773)" fill="none" stroke="#000" stroke-linecap="round" stroke-linejoin="round" stroke-width="0.5"/>
      <path id="Path_743" data-name="Path 743" d="M217.731,506.063c-1.976,1.858-8.152-1.5-13.792-7.494s-8.612-12.367-6.635-14.226,8.152,1.5,13.794,7.494,8.61,12.367,6.634,14.226" transform="translate(63.86 157.085)" fill="#fff"/>
      <path id="Path_744" data-name="Path 744" d="M197.455,494.4c-.988.93-4.076-.748-6.9-3.746s-4.305-6.184-3.317-7.113,4.076.748,6.9,3.746,4.305,6.184,3.317,7.113" transform="translate(60.692 156.908)" fill="#fff"/>
      <path id="Path_745" data-name="Path 745" d="M152.116,501.087s5.16-5.806,11.6-2.123" transform="translate(49.387 161.601)" fill="none" stroke="#000" stroke-linecap="round" stroke-linejoin="round" stroke-width="0.5"/>
      <path id="Path_746" data-name="Path 746" d="M179.966,576.613a1.841,1.841,0,1,1-1.13-2.346,1.84,1.84,0,0,1,1.13,2.346" transform="translate(57.267 186.414)"/>
      <path id="Path_747" data-name="Path 747" d="M158.377,515.714a.578.578,0,1,0-.735.355.577.577,0,0,0,.735-.355" transform="translate(51.056 167.188)"/>
      <path id="Path_748" data-name="Path 748" d="M178.233,479.751a1.841,1.841,0,1,1-1.13-2.346,1.84,1.84,0,0,1,1.13,2.346" transform="translate(56.705 154.966)"/>
      <path id="Path_749" data-name="Path 749" d="M220.633,411.984a17,17,0,0,1-2.28-.077c-5.752-.6-34-2.035-46.324,25.563-4.956,11.1-15.948,29.3-9.76,50.722S179.4,563.873,237,551.5s39.982-91.865,39.982-91.865-10.286-49.095-56.347-47.65" transform="translate(52.086 133.659)" fill="#e49b00"/>
      <path id="Path_750" data-name="Path 750" d="M220.633,411.984a17,17,0,0,1-2.28-.077c-5.752-.6-34-2.035-46.324,25.563-4.956,11.1-15.948,29.3-9.76,50.722S179.4,563.873,237,551.5s39.982-91.865,39.982-91.865S266.694,410.538,220.633,411.984Z" transform="translate(52.086 133.659)" fill="none" stroke="#000" stroke-linecap="round" stroke-linejoin="round" stroke-width="0.5"/>
      <path id="Path_751" data-name="Path 751" d="M167.809,443.511s-9.437,20.392-1.388,34.345,23.871,7.686,24.982,0" transform="translate(52.977 143.995)" fill="none" stroke="#000" stroke-linecap="round" stroke-linejoin="round" stroke-width="0.5"/>
      <path id="Path_752" data-name="Path 752" d="M170.234,441.256s11.783-32.476,46.556-26.924" transform="translate(55.27 134.314)" fill="none" stroke="#000" stroke-linecap="round" stroke-linejoin="round" stroke-width="0.5"/>
      <path id="Path_753" data-name="Path 753" d="M175.862,511.68s14.71,30.254,54.681,21.927,43.578-49.294,41.634-66.281-19.458-9.785-18.042,21.872-23.184,42.468-29.911,19.152-66.126-29.977-48.362,3.33" transform="translate(56.025 148.825)" fill="#a06100"/>
      <path id="Path_754" data-name="Path 754" d="M169.642,486.1s8.924,41.7,50.442,39.959" transform="translate(55.078 157.823)" fill="none" stroke="#000" stroke-linecap="round" stroke-linejoin="round" stroke-width="0.5"/>
      <path id="Path_755" data-name="Path 755" d="M228.338,445.078s7.294-1.89,9.184,5.4" transform="translate(74.134 144.432)" fill="none" stroke="#000" stroke-linecap="round" stroke-linejoin="round" stroke-width="0.5"/>
      <path id="Path_756" data-name="Path 756" d="M207.721,489.863a30.094,30.094,0,0,1,5.088,8.267" transform="translate(67.441 159.044)" fill="none" stroke="#000" stroke-linecap="round" stroke-linejoin="round" stroke-width="0.5"/>
      <path id="Path_757" data-name="Path 757" d="M241.494,431.039c-1.252,2.407-8.189,1.278-15.493-2.522s-12.21-8.832-10.958-11.239,8.189-1.278,15.493,2.521,12.21,8.833,10.958,11.24" transform="translate(69.755 135.067)" fill="#fff"/>
      <path id="Path_758" data-name="Path 758" d="M218.573,426.6c-.627,1.2-4.095.639-7.747-1.261s-6.105-4.416-5.479-5.619,4.095-.64,7.747,1.261,6.105,4.415,5.479,5.619" transform="translate(66.638 136.065)" fill="#fff"/>
      <path id="Path_759" data-name="Path 759" d="M177.777,448.451s2.954-7.184,10.248-5.833" transform="translate(57.719 143.65)" fill="none" stroke="#000" stroke-linecap="round" stroke-linejoin="round" stroke-width="0.5"/>
      <path id="Path_760" data-name="Path 760" d="M224.679,471.278a1.841,1.841,0,1,1-1.841-1.841,1.841,1.841,0,0,1,1.841,1.841" transform="translate(71.751 152.412)"/>
      <path id="Path_761" data-name="Path 761" d="M188.747,459.551a.578.578,0,1,0-.578.578.577.577,0,0,0,.578-.578" transform="translate(60.905 149.015)"/>
      <path id="Path_762" data-name="Path 762" d="M176.119,489.169a1.841,1.841,0,1,1-1.841-1.841,1.841,1.841,0,0,1,1.841,1.841" transform="translate(55.985 158.221)"/>
      <path id="Path_763" data-name="Path 763" d="M195.538,419.169a1.841,1.841,0,1,1-1.841-1.841,1.841,1.841,0,0,1,1.841,1.841" transform="translate(62.289 135.494)"/>
      <path id="Path_764" data-name="Path 764" d="M208.411,436.108s-6.332,10.134,0,10.53,11.766-5,8.308,1.405-9.653,11.588-3.22,9.365,19.506-9.387,16.18-3.211,17.247,15.8,15.227,6.668-9.184-8.226-9.184-8.226-5.17,2.052-1.465-7.087-16.8-2.224-10.869-6.67-5.254-16.913-14.977-2.775" transform="translate(66.751 139.463)" fill="#e4b900"/>
      <path id="Path_765" data-name="Path 765" d="M131.345,517.219s1.661-13.121,13.1-8.148c0,0-5.332,16.519,6.41,12.983,0,0,24.754-16.551,26.7,3.509" transform="translate(42.644 164.915)" fill="none" stroke="#000" stroke-linecap="round" stroke-linejoin="round" stroke-width="0.5"/>
      <path id="Path_766" data-name="Path 766" d="M209.616,539.455c-1.813,6.346-1.921,11.882-.241,12.362s4.513-4.276,6.327-10.623,1.921-11.882.241-12.362-4.513,4.276-6.327,10.623" transform="translate(67.591 171.685)"/>
      <path id="Path_767" data-name="Path 767" d="M176.307,531.923s-26.688,0-27.193,13.557c0,0,11.648-17.135,35.675-3.184,0,0-15.618-7.182-25.9,1.191" transform="translate(48.413 172.699)" fill="none" stroke="#000" stroke-linecap="round" stroke-linejoin="round" stroke-width="0.5"/>
    </g>
  </g>
</svg>
