<svg xmlns="http://www.w3.org/2000/svg" xmlns:xlink="http://www.w3.org/1999/xlink" width="521.277" height="453.262" viewBox="0 0 521.277 453.262">
  <defs>
    <clipPath id="clip-path">
      <rect id="Rectangle_28" data-name="Rectangle 28" width="506.375" height="435.855" fill="none" stroke="#707070" stroke-width="2"/>
    </clipPath>
  </defs>
  <g id="Group_20" data-name="Group 20" transform="translate(0 17.672) rotate(-2)">
    <g id="Group_19" data-name="Group 19" clip-path="url(#clip-path)">
      <path id="Path_478" data-name="Path 478" d="M209.848,131.247c-53.1-30.389-26.349-85.408-70.6-117.018C115.8-2.52,89.954-1.767,67.572,5a11.217,11.217,0,0,0-6.916,5.962l-.614,1.307a11.167,11.167,0,0,0,6.581,15.356l1.012.335a11.588,11.588,0,0,0,6,.29c13.278-2.719,27.818-1.692,41.2,7.865,29.557,21.114,34.664,75.354,11.215,99.251" transform="translate(95.225 0.808)" fill="none" stroke="#171716" stroke-width="2"/>
      <path id="Path_479" data-name="Path 479" d="M194.383,65.866s-23-25.342-77.376-.852-64.344,91.26-71.273,145.309S56.74,343.259,153.977,353.1c0,0,28.252,2.68,46.522-11.581,0,0,85.4,41.235,132.434-43.7,55.89-100.916-7.839-259.169-96.641-246.832C236.292,50.993,207.663,49.67,194.383,65.866Z" transform="translate(71.707 81.243)" fill="none" stroke="#171716" stroke-width="2"/>
      <path id="Path_480" data-name="Path 480" d="M86.147,55.554s38.2-7.261,53.111,40.22c12.015,38.277,10.059,107.9,10.059,107.9" transform="translate(139.106 89.063)" fill="none" stroke="#171716" stroke-width="2"/>
      <path id="Path_481" data-name="Path 481" d="M194.152,61.758S131.16,28.749,79.7,58.808-9.2,204.544,33.17,271.62c34.821,55.119,87.751,52.692,87.751,52.692" transform="translate(23.908 74.557)" fill="none" stroke="#171716" stroke-width="2"/>
      <path id="Path_482" data-name="Path 482" d="M216.486,75.158S155.774,23.545,95.172,41.592-24.367,139.541,11.33,240.12c12.9,36.337,40.1,59.305,69.589,73.817" transform="translate(0.808 60.979)" fill="none" stroke="#171716" stroke-width="2"/>
      <path id="Path_483" data-name="Path 483" d="M217.4,82.255S166.711,6.812,99.578,26.391C42.636,43,18.876,83.709,9.212,123.226" transform="translate(14.875 37.377)" fill="none" stroke="#171716" stroke-width="2"/>
      <path id="Path_484" data-name="Path 484" d="M124.062,77s36.674-65.241,115.585-35.516c96.782,36.452,87.806,282.393-41.512,293.566" transform="translate(200.329 54.452)" fill="none" stroke="#171716" stroke-width="2"/>
      <path id="Path_485" data-name="Path 485" d="M110.81,81.691s67.322-110.5,150.238-24.939" transform="translate(178.93 39.181)" fill="none" stroke="#171716" stroke-width="2"/>
      <path id="Path_486" data-name="Path 486" d="M102.7,44.7s33.145-42.89,82.89-11.85" transform="translate(165.836 34.844)" fill="none" stroke="#171716" stroke-width="2"/>
      <path id="Path_487" data-name="Path 487" d="M59.937,29.571s35.49-19.835,72.342-.481" transform="translate(96.783 33.282)" fill="none" stroke="#171716" stroke-width="2"/>
      <path id="Path_488" data-name="Path 488" d="M90.735,41.007c12.734,22.625,6.623,44.942,1.616,56.6a5.723,5.723,0,0,0,4.652,8,44.9,44.9,0,0,1,6.487,1.08,10.844,10.844,0,0,0,13.293-12.067C113.676,72.724,106.371,36.609,90.4,15.539" transform="translate(145.973 25.092)" fill="none" stroke="#171716" stroke-width="2"/>
      <path id="Path_489" data-name="Path 489" d="M101.765,56.261s26.584,12.258,31.727,90.985c8.976,137.355-25.611,184.672-25.611,184.672" transform="translate(164.325 90.847)" fill="none" stroke="#171716" stroke-width="2"/>
    </g>
  </g>
</svg>
