<svg id="Group_80" data-name="Group 80" xmlns="http://www.w3.org/2000/svg" xmlns:xlink="http://www.w3.org/1999/xlink" width="109.901" height="109.901" viewBox="0 0 109.901 109.901">
  <defs>
    <clipPath id="clip-path">
      <rect id="Rectangle_68" data-name="Rectangle 68" width="109.901" height="109.901" fill="none"/>
    </clipPath>
  </defs>
  <g id="Group_79" data-name="Group 79" clip-path="url(#clip-path)">
    <path id="Path_798" data-name="Path 798" d="M38.726,51.826S38,54.61,40.069,58.377c0,0-1.424,4.868,1.963,11.262,3.518,6.643,3.269,9.443,4.259,11.606a9.969,9.969,0,0,1,.641,1.872,13.883,13.883,0,0,0,1.483,3.845" fill="none" stroke="#121212" stroke-width="1.417"/>
    <path id="Path_799" data-name="Path 799" d="M50.149,75.524A16.783,16.783,0,0,0,52.7,79.041a9.17,9.17,0,0,1,1.992,2.477" fill="none" stroke="#121212" stroke-width="1.417"/>
    <path id="Path_800" data-name="Path 800" d="M47.257,79.988s.8,5.393,7.433,5.757V81.518" fill="none" stroke="#121212" stroke-width="1.417"/>
    <path id="Path_801" data-name="Path 801" d="M48.415,86.962a6.372,6.372,0,0,0,4.963,3.3s4.143,1.662,7.389-3.309a12.9,12.9,0,0,0,1.557-3.691,8.815,8.815,0,0,1,.814-1.979,26.178,26.178,0,0,0,1.784-5.474c.239-1.015,1.5-2.25,3.447-9.221s1.441-8.008,1.441-8.008c2.16-3.716,1.5-6.516,1.5-6.516" fill="none" stroke="#121212" stroke-width="1.417"/>
    <path id="Path_802" data-name="Path 802" d="M43.751,34.915S42.05,27.2,38.392,27.2a28.66,28.66,0,0,0-14.664,4.556" fill="none" stroke="#121212" stroke-width="1.417"/>
    <path id="Path_803" data-name="Path 803" d="M17.877,37.927a12.263,12.263,0,0,0-2.638,3.946A.437.437,0,0,1,14.4,41.7a13.862,13.862,0,0,1,4.653-10.65c6.011-5.382,15.913-12.69,25.225-9.507,3.472,1.186,5.741,5.785,7.221,11.087" fill="none" stroke="#121212" stroke-width="1.417"/>
    <path id="Path_804" data-name="Path 804" d="M40.069,58.376s-8.3,10.088-13.762,13.249-14.655,0-14.655,0L2.258,68.676" fill="none" stroke="#121212" stroke-width="1.417"/>
    <path id="Path_805" data-name="Path 805" d="M52.239,90.135s-3.17,12-4.868,18.455" fill="none" stroke="#121212" stroke-width="1.417"/>
    <path id="Path_806" data-name="Path 806" d="M35.635,50.583s2.892-2.591,4.036-2.35c.9.191,1.959,2.335,3.015,3.733a.3.3,0,0,1-.376.452,1.988,1.988,0,0,1-.625-.449s-2.657.6-3.64-.663l-.984-1.262s-.655-.547-2.622-1.858-6.227-.546-10.487-1.638-3.277-2.513-5.227-5.681,0-8.149,0-8.149,1.738-3.751,6.4,0,3.568,4.3,6.312,4.3,2.927,1.006,5.763,2.2a7.475,7.475,0,0,0,4.482.732" fill="none" stroke="#121212" stroke-width="1.417"/>
    <path id="Path_807" data-name="Path 807" d="M68.645,40.115a7.478,7.478,0,0,0,4.5-.622c2.864-1.12,3.071-2.121,5.814-2.054s1.66-.508,6.415-4.144,6.4.157,6.4.157,1.828,5.027-.2,8.147S90.5,46.162,86.211,47.15s-8.526.12-10.524,1.382-2.667,1.793-2.667,1.793l-1.014,1.238c-1.013,1.238-3.655.573-3.655.573a2.014,2.014,0,0,1-.636.435.3.3,0,0,1-.365-.462c1.09-1.372,2.2-3.49,3.105-3.658,1.15-.213,3.978,2.448,3.978,2.448a5.084,5.084,0,0,1-1.519-1.966,3.971,3.971,0,0,0-1.132-3.01,6.5,6.5,0,0,0-.94-3.428c-1.043-1.713-2.71-2.537-3.476-3.279s.407-1.858.407-1.858c-.143-1.51-2.082-3.577-2.082-3.577l.316-.564a6.977,6.977,0,0,0-2.461-.422l.031-1.265a21.931,21.931,0,0,1-4.087,2.009l-.7-1.041a1.315,1.315,0,0,1-.283.644,4.024,4.024,0,0,1-6.487.1,1.26,1.26,0,0,1-.3-.667L51,33.594a21.937,21.937,0,0,1-4.037-2.109V32.75a6.981,6.981,0,0,0-2.47.362l.3.572s-1.988,2.018-2.169,3.525c0,0,1.144,1.144.361,1.867s-2.47,1.506-3.554,3.193a6.5,6.5,0,0,0-1.024,3.4" fill="none" stroke="#121212" stroke-width="1.417"/>
    <path id="Path_808" data-name="Path 808" d="M59.314,75.478a16.8,16.8,0,0,1-2.634,3.453,9.183,9.183,0,0,0-2.052,2.429" fill="none" stroke="#121212" stroke-width="1.417"/>
    <path id="Path_809" data-name="Path 809" d="M62.1,80.011s-.933,5.371-7.572,5.574l.1-4.226" fill="none" stroke="#121212" stroke-width="1.417"/>
    <path id="Path_810" data-name="Path 810" d="M66.7,35.038s1.889-7.671,5.546-7.581A28.655,28.655,0,0,1,86.8,32.369" fill="none" stroke="#121212" stroke-width="1.417"/>
    <path id="Path_811" data-name="Path 811" d="M92.5,38.681a12.254,12.254,0,0,1,2.541,4.009.437.437,0,0,0,.839-.152,13.861,13.861,0,0,0-4.392-10.761C85.605,26.25,75.886,18.7,66.5,21.656c-3.5,1.1-5.881,5.644-7.49,10.908" fill="none" stroke="#121212" stroke-width="1.417"/>
    <path id="Path_812" data-name="Path 812" d="M43.368,107.953a54.291,54.291,0,1,1,11.582,1.239,54.262,54.262,0,0,1-11.582-1.239" fill="none" stroke="#121212" stroke-width="1.417"/>
  </g>
</svg>
