<svg id="Group_12" data-name="Group 12" xmlns="http://www.w3.org/2000/svg" xmlns:xlink="http://www.w3.org/1999/xlink" width="1551.959" height="896.231" viewBox="0 0 1551.959 896.231">
  <defs>
    <clipPath id="clip-path">
      <rect id="Rectangle_24" data-name="Rectangle 24" width="1551.959" height="896.231" fill="none"/>
    </clipPath>
  </defs>
  <g id="Group_11" data-name="Group 11" clip-path="url(#clip-path)">
    <path id="Path_95" data-name="Path 95" d="M502.449,114.525s-16.3-22.872-56.48-8.528c0,0,13.1,2.235,16.635,8.078,0,0-37-12.917-61.4,5.513,0,0,26.4-4.235,36.022,6.322,0,0-53.61-7.541-84.018,7.53,0,0,24.5-3.357,35.14,1.681,0,0-53.962,11.412-66.052,3.3,0,0,14.688,8.126,23.1,7.681,0,0-62.95,13.407-68.468,6.92s-47.423-9.208-85.377,15.194S82.327,155.962,82.327,155.962s6.831,11.952,10.545,15.049c0,0-36.847-6.881-42.475-12.615,0,0,13.13,13.312,19.49,15.91,0,0-42.849-2.274-49.347-7.631,0,0,20.1,10.2,24.648,12.215,0,0-79.99-15.023-26.771,69.959s259.437,96.124,321.512,73.389S442.1,335.781,469.323,292.574s70.628,13.23,70.628,13.23,111.737-210.194-37.5-191.28" transform="translate(0.269 181.994)" fill="#f5ded2"/>
    <path id="Path_96" data-name="Path 96" d="M502.449,114.525s-16.3-22.872-56.48-8.528c0,0,13.1,2.235,16.635,8.078,0,0-37-12.917-61.4,5.513,0,0,26.4-4.235,36.022,6.322,0,0-53.61-7.541-84.018,7.53,0,0,24.5-3.357,35.14,1.681,0,0-53.962,11.412-66.052,3.3,0,0,14.688,8.126,23.1,7.681,0,0-62.95,13.407-68.468,6.92s-47.423-9.208-85.377,15.194S82.327,155.962,82.327,155.962s6.831,11.952,10.545,15.049c0,0-36.847-6.881-42.475-12.615,0,0,13.13,13.312,19.49,15.91,0,0-42.849-2.274-49.347-7.631,0,0,20.1,10.2,24.648,12.215,0,0-79.99-15.023-26.771,69.959s259.437,96.124,321.512,73.389S442.1,335.781,469.323,292.574s70.628,13.23,70.628,13.23S651.688,95.611,502.449,114.525Z" transform="translate(0.269 181.994)" fill="none" stroke="#000" stroke-linecap="round" stroke-linejoin="round" stroke-width="0.3"/>
    <path id="Path_97" data-name="Path 97" d="M503.919,195.431s14.576,15.919,1.189,44.337c0,0-.022-32.064-10.226-35.252s-70.205,30.025-107.234-7.586-123.891-73.07-144.472-65.4c0,0-49.1-20.1-90.812,8.917,0,0-32.746,23.345-81.405-12.612,0,0,1.566,6.7,4.162,9.264,0,0-24.883-4.4-26.813-5.992l7.273,9.8-39.328-4.226" transform="translate(29.207 224.196)" fill="none" stroke="#000" stroke-linecap="round" stroke-linejoin="round" stroke-width="0.3"/>
    <path id="Path_98" data-name="Path 98" d="M436.83,213.123s-14.663-4.613-31.448-21.882c-22.167-22.811-130.671-74.865-134.733-54.885,0,0-50.62-28.282-91.539,8.716,0,0-28.581,26.262-73.607-9.656a14.668,14.668,0,0,0,2.73,8.6S85.075,135.491,82.857,133.2c0,0,7.393,9.877,10.238,11.575l-54.133-6.492S-17.745,126.274,9.6,185.674,151.642,275.424,221.771,280.9s113.838-4.313,156.086-33.1,72.024-12.8,72.575-1.79,47.5-24.911-13.6-32.892" transform="translate(3.86 226.473)" fill="#ce8596"/>
    <path id="Path_99" data-name="Path 99" d="M436.83,213.123s-14.663-4.613-31.448-21.882c-22.167-22.811-130.671-74.865-134.733-54.885,0,0-50.62-28.282-91.539,8.716,0,0-28.581,26.262-73.607-9.656a14.668,14.668,0,0,0,2.73,8.6S85.075,135.491,82.857,133.2c0,0,7.393,9.877,10.238,11.575l-54.133-6.492S-17.745,126.274,9.6,185.674,151.642,275.424,221.771,280.9s113.838-4.313,156.086-33.1,72.024-12.8,72.575-1.79S497.933,221.1,436.83,213.123Z" transform="translate(3.86 226.473)" fill="none" stroke="#000" stroke-linecap="round" stroke-linejoin="round" stroke-width="0.3"/>
    <path id="Path_100" data-name="Path 100" d="M221.32,181.244s-89.464-60.771-122.028-49.89" transform="translate(178.442 233.718)" fill="none" stroke="#000" stroke-linecap="round" stroke-linejoin="round" stroke-width="0.3"/>
    <path id="Path_101" data-name="Path 101" d="M204.38,115.847s-10.99-18.486-40.209-12.154" transform="translate(295.038 183.976)" fill="none" stroke="#fff" stroke-linecap="round" stroke-linejoin="round" stroke-width="0.3"/>
    <path id="Path_102" data-name="Path 102" d="M199.172,112.17s-21.709-12.643-51.666-3.387" transform="translate(265.089 189.409)" fill="none" stroke="#fff" stroke-linecap="round" stroke-linejoin="round" stroke-width="0.3"/>
    <path id="Path_103" data-name="Path 103" d="M198.221,113.853S169.735,106.8,134,112.826" transform="translate(240.824 198.386)" fill="none" stroke="#fff" stroke-linecap="round" stroke-linejoin="round" stroke-width="0.3"/>
    <path id="Path_104" data-name="Path 104" d="M155.84,118.355s-38.293,8.215-49.3,8.54" transform="translate(191.464 212.7)" fill="none" stroke="#fff" stroke-linecap="round" stroke-linejoin="round" stroke-width="0.3"/>
    <path id="Path_105" data-name="Path 105" d="M146.563,121.192s-34.2-8.839-76.186,14.847" transform="translate(126.477 214.898)" fill="none" stroke="#fff" stroke-linecap="round" stroke-linejoin="round" stroke-width="0.3"/>
    <path id="Path_106" data-name="Path 106" d="M430.336,142.335s17.851-21.681,56.936-4.573c0,0-13.219,1.317-17.158,6.9,0,0,37.812-10.31,60.866,9.776,0,0-26.047-6.061-36.374,3.8,0,0,54-3.79,83.288,13.362,0,0-24.206-5.054-35.171-.769,0,0,53.034,15.144,65.663,7.9,0,0-15.219,7.082-23.585,6.053,0,0,61.861,17.759,67.819,11.672s47.951-5.88,84.113,21.107,109.819-4.621,109.819-4.621-7.645,11.449-11.569,14.279c0,0,37.238-4.3,43.252-9.628,0,0-14.025,12.366-20.553,14.514,0,0,42.9.716,49.761-4.173,0,0-20.76,8.777-25.44,10.467,0,0,80.84-9.412,21.832,71.654s-265.5,77.819-325.844,50.813-102.868,6.391-127.013-38.606-71.377,8.277-71.377,8.277-96.82-217.464,50.737-188.2" transform="translate(626.149 235.76)" fill="#f5ded2"/>
    <path id="Path_107" data-name="Path 107" d="M430.336,142.335s17.851-21.681,56.936-4.573c0,0-13.219,1.317-17.158,6.9,0,0,37.812-10.31,60.866,9.776,0,0-26.047-6.061-36.374,3.8,0,0,54-3.79,83.288,13.362,0,0-24.206-5.054-35.171-.769,0,0,53.034,15.144,65.663,7.9,0,0-15.219,7.082-23.585,6.053,0,0,61.861,17.759,67.819,11.672s47.951-5.88,84.113,21.107,109.819-4.621,109.819-4.621-7.645,11.449-11.569,14.279c0,0,37.238-4.3,43.252-9.628,0,0-14.025,12.366-20.553,14.514,0,0,42.9.716,49.761-4.173,0,0-20.76,8.777-25.44,10.467,0,0,80.84-9.412,21.832,71.654s-265.5,77.819-325.844,50.813-102.868,6.391-127.013-38.606-71.377,8.277-71.377,8.277S282.779,113.071,430.336,142.335Z" transform="translate(626.149 235.76)" fill="none" stroke="#000" stroke-linecap="round" stroke-linejoin="round" stroke-width="0.3"/>
    <path id="Path_108" data-name="Path 108" d="M369.2,210.393s-15.65,14.864-4.274,44.144c0,0,2.257-31.983,12.657-34.452s67.943,34.844,107.5-.1,128.682-64.261,148.679-55.171c0,0,50.382-16.637,89.97,15.219,0,0,31.04,25.571,82.088-6.909,0,0-2.031,6.573-4.8,8.954,0,0,25.133-2.657,27.166-4.109l-7.938,9.273,39.526-1.477" transform="translate(648.374 288.393)" fill="none" stroke="#000" stroke-linecap="round" stroke-linejoin="round" stroke-width="0.3"/>
    <path id="Path_109" data-name="Path 109" d="M417.168,234.373s14.948-3.575,32.894-19.636c23.706-21.211,135.572-65.579,138.229-45.367,0,0,52.469-24.685,90.711,15.074,0,0,26.682,28.19,74.1-4.506a14.679,14.679,0,0,1-3.32,8.391s23.695-6.892,26.067-9.024c0,0-8.064,9.337-11.018,10.833l54.452-2.7s57.406-8.028,25.988,49.325-147.949,79.629-218.289,80.216-113.259-12.235-153.4-43.9-70.958-17.784-72.272-6.839-45.652-28.159,15.86-31.868" transform="translate(691.226 290.77)" fill="#ce8596"/>
    <path id="Path_110" data-name="Path 110" d="M417.168,234.373s14.948-3.575,32.894-19.636c23.706-21.211,135.572-65.579,138.229-45.367,0,0,52.469-24.685,90.711,15.074,0,0,26.682,28.19,74.1-4.506a14.679,14.679,0,0,1-3.32,8.391s23.695-6.892,26.067-9.024c0,0-8.064,9.337-11.018,10.833l54.452-2.7s57.406-8.028,25.988,49.325-147.949,79.629-218.289,80.216-113.259-12.235-153.4-43.9-70.958-17.784-72.272-6.839S355.656,238.082,417.168,234.373Z" transform="translate(691.226 290.77)" fill="none" stroke="#000" stroke-linecap="round" stroke-linejoin="round" stroke-width="0.3"/>
    <path id="Path_111" data-name="Path 111" d="M411.47,207.8s93.478-54.39,125.206-41.269" transform="translate(739.469 295.616)" fill="none" stroke="#000" stroke-linecap="round" stroke-linejoin="round" stroke-width="0.3"/>
    <path id="Path_112" data-name="Path 112" d="M378.8,143.862s12.249-17.675,40.958-9.323" transform="translate(680.751 237.757)" fill="none" stroke="#fff" stroke-linecap="round" stroke-linejoin="round" stroke-width="0.3"/>
    <path id="Path_113" data-name="Path 113" d="M391.292,141.063s22.537-11.1,51.775.221" transform="translate(703.206 244.761)" fill="none" stroke="#fff" stroke-linecap="round" stroke-linejoin="round" stroke-width="0.3"/>
    <path id="Path_114" data-name="Path 114" d="M400.019,143.321s28.908-5.052,64.13,3.449" transform="translate(718.89 254.891)" fill="none" stroke="#fff" stroke-linecap="round" stroke-linejoin="round" stroke-width="0.3"/>
    <path id="Path_115" data-name="Path 115" d="M432.269,151.36s37.627,10.864,48.586,11.955" transform="translate(776.848 272.015)" fill="none" stroke="#fff" stroke-linecap="round" stroke-linejoin="round" stroke-width="0.3"/>
    <path id="Path_116" data-name="Path 116" d="M203.057,422.719a108.194,108.194,0,0,0-5.642,46.922s3.169,38.265-21.233,39.219c0,0,18.346,9,29.079-23.7,0,0-11.689,32.592-6.794,56.5,0,0,.736-22.254,10.238-36.657,0,0-10.582,39.529-3.278,91.892a27.619,27.619,0,0,1,13.412-22.671s-21.765,27.5,3.919,96.641c0,0-.993-7.891,11.3-13.211,0,0-17.51,16.352,7.684,57.266,0,0-5.091-14.212,2.42-20.109,0,0-3.309,59.831,41.3,108.909,0,0-16.123-19.423-12.17-44.206,0,0,5.963,47.347,59.806,100.451,0,0-33.661-35.135-29.132-64.7,0,0,36.992,31.647,55.266,25.1,0,0-28.187-16.016-13.854-46.351,0,0,3.018,31.448,36.606,51.031,0,0-7.468-10.612,2.187-18.193,0,0,21.63,46.315,76.284,68.429,0,0,74.547-22.12,99.377-58.961,0,0,3.631,34.436-20.083,53.926,0,0,31.815-8.8,44.189-57.828,0,0,10.405,15.823,4.235,26.738,0,0,14.1-4.134,27.135-55.993,0,0,7,14.442,1.678,26.43,0,0,14.405-14.783,22.654-67.218,0,0,7.2,4.752,5.32,12.3A326.067,326.067,0,0,0,656.857,688.1s16.92,37.006,32.285,22.341c0,0-29.764,5.164-15.382-65.965,0,0,.188,14.593,6.7,25.09,0,0-2.484-19.728,2.238-58.989,0,0,2.867,24.632,15.661,23.255,0,0-18.3-25.515-10.444-58.569s7.359-12.716,15.972,12.607c0,0,.848-23.213-9.219-52.595s-3.242-53.82,8.825-57.224,20-20.909,13.11-36.31c0,0-2.291-29.417,24.564-42.7,0,0,28.508-43.2-13.007-69.562,0,0,3.536-37.462,21.233-39.219,0,0-13.292-2.571-25.057,14.472,0,0,18.511-32.746,15.8-50.558,0,0-9.163,35.812-22.187,39.1,0,0,11.994-18.959,8.089-34.97,0,0-5.024,25.625-13.527,23.63,0,0-9.152-12.758,2.187-18.2,0,0-9.077,2.794-11.642-8.2s3.382-44.279-14.962-53.285-19.49-23.717-6.005-30.838c0,0-7.661-.92-17.893,11.449,0,0-12.212-27.7,4.954-41.174,0,0-11,2.562-16.783,18.38,0,0,9.049-34.855,4.419-52.9,0,0-1.158,33.862-8.092,34.97,0,0-13.479-17.163-6.733-32.866s-6.461-51.291-70.085-47.286-17.921-20.612,11.037-19.074c0,0-37.577-2.576-64.547,11.667,0,0,3.7-28.7-3.427-43.154,0,0,1.779,48.785-16.842,58.2,0,0,1.779-55.16-28.022-57.772,0,0,21.216,9.354,11.975,53.9,0,0-10.254-43.977-54.382-40.539,0,0,38.917,7.594,41.9,31.266s-54.505-15.3-58.485-22.576c0,0,11.449,17.89,19.49,23.714,0,0-42.206-20.618-70.824-.747s-27.25,56.953-52.147,53.96-40.268,35.957-28.206,56.835-26.013,14.358-24.783-3.952c0,0-7.818,16.545,11.138,28.539,0,0-41.557-9.854-39.174-37.739,0,0-6.212,27.423,24.041,50.491,0,0-33.862-1.158-44.122-20.85A56.477,56.477,0,0,0,240.5,216.422s-34.019,16.31-52.438-8.249c0,0,3.329,20.8,34.928,24.6,0,0-2.42,20.109-39.188,10.831,0,0,8.54,9.768,32.478,12.649,0,0-5.751,23.594-17.127,21.253s-39.728,23.4-15.3,54.505,2.716,17.812,1.678,26.43,23.633,31.278,17.527,64.278" transform="translate(313.082 20.538)" fill="#fffff6"/>
    <path id="Path_117" data-name="Path 117" d="M203.057,422.719a108.194,108.194,0,0,0-5.642,46.922s3.169,38.265-21.233,39.219c0,0,18.346,9,29.079-23.7,0,0-11.689,32.592-6.794,56.5,0,0,.736-22.254,10.238-36.657,0,0-10.582,39.529-3.278,91.892a27.619,27.619,0,0,1,13.412-22.671s-21.765,27.5,3.919,96.641c0,0-.993-7.891,11.3-13.211,0,0-17.51,16.352,7.684,57.266,0,0-5.091-14.212,2.42-20.109,0,0-3.309,59.831,41.3,108.909,0,0-16.123-19.423-12.17-44.206,0,0,5.963,47.347,59.806,100.451,0,0-33.661-35.135-29.132-64.7,0,0,36.992,31.647,55.266,25.1,0,0-28.187-16.016-13.854-46.351,0,0,3.018,31.448,36.606,51.031,0,0-7.468-10.612,2.187-18.193,0,0,21.63,46.315,76.284,68.429,0,0,74.547-22.12,99.377-58.961,0,0,3.631,34.436-20.083,53.926,0,0,31.815-8.8,44.189-57.828,0,0,10.405,15.823,4.235,26.738,0,0,14.1-4.134,27.135-55.993,0,0,7,14.442,1.678,26.43,0,0,14.405-14.783,22.654-67.218,0,0,7.2,4.752,5.32,12.3A326.067,326.067,0,0,0,656.857,688.1s16.92,37.006,32.285,22.341c0,0-29.764,5.164-15.382-65.965,0,0,.188,14.593,6.7,25.09,0,0-2.484-19.728,2.238-58.989,0,0,2.867,24.632,15.661,23.255,0,0-18.3-25.515-10.444-58.569s7.359-12.716,15.972,12.607c0,0,.848-23.213-9.219-52.595s-3.242-53.82,8.825-57.224,20-20.909,13.11-36.31c0,0-2.291-29.417,24.564-42.7,0,0,28.508-43.2-13.007-69.562,0,0,3.536-37.462,21.233-39.219,0,0-13.292-2.571-25.057,14.472,0,0,18.511-32.746,15.8-50.558,0,0-9.163,35.812-22.187,39.1,0,0,11.994-18.959,8.089-34.97,0,0-5.024,25.625-13.527,23.63,0,0-9.152-12.758,2.187-18.2,0,0-9.077,2.794-11.642-8.2s3.382-44.279-14.962-53.285-19.49-23.717-6.005-30.838c0,0-7.661-.92-17.893,11.449,0,0-12.212-27.7,4.954-41.174,0,0-11,2.562-16.783,18.38,0,0,9.049-34.855,4.419-52.9,0,0-1.158,33.862-8.092,34.97,0,0-13.479-17.163-6.733-32.866s-6.461-51.291-70.085-47.286-17.921-20.612,11.037-19.074c0,0-37.577-2.576-64.547,11.667,0,0,3.7-28.7-3.427-43.154,0,0,1.779,48.785-16.842,58.2,0,0,1.779-55.16-28.022-57.772,0,0,21.216,9.354,11.975,53.9,0,0-10.254-43.977-54.382-40.539,0,0,38.917,7.594,41.9,31.266s-54.505-15.3-58.485-22.576c0,0,11.449,17.89,19.49,23.714,0,0-42.206-20.618-70.824-.747s-27.25,56.953-52.147,53.96-40.268,35.957-28.206,56.835-26.013,14.358-24.783-3.952c0,0-7.818,16.545,11.138,28.539,0,0-41.557-9.854-39.174-37.739,0,0-6.212,27.423,24.041,50.491,0,0-33.862-1.158-44.122-20.85A56.477,56.477,0,0,0,240.5,216.422s-34.019,16.31-52.438-8.249c0,0,3.329,20.8,34.928,24.6,0,0-2.42,20.109-39.188,10.831,0,0,8.54,9.768,32.478,12.649,0,0-5.751,23.594-17.127,21.253s-39.728,23.4-15.3,54.505,2.716,17.812,1.678,26.43S209.164,389.719,203.057,422.719Z" transform="translate(313.082 20.538)" fill="none" stroke="#000" stroke-linecap="round" stroke-linejoin="round" stroke-width="0.3"/>
    <path id="Path_118" data-name="Path 118" d="M257.54,112.793s15.23-10.375,34.648,12.246c13,15.138,36.975,110.177,36.975,110.177s.078-62.72-7.715-72.46c0,0,12.886,18.9,16.332,53.6l5.771-47.982-.428,42.276s14.472-54.362,28.755-59.61c0,0-11.835,10.431-24.352,75.8,0,0,19.751-34.024,39.414-42.665s39.949-29.482,39-42.715c0,0,3.248,25.787-42.458,50.34,0,0,30.343,1.11,35.252-8.033,0,0-8.649,12.081-28.629,19.837,0,0,45.132-2.193,53.028-18.6,0,0-6.447,25.465-51.028,33.65,0,0,30.858.324,42.455,16.534,0,0-17.421-13.524-38.855-4.249,0,0,29.426-5.351,42.774,17.418,0,0-37.227-35.375-59.336,7.678s8.579-4.47,10.014,1.206-14.414,38.9,4.845,44.178,29.051,25.93,30.6,34.156c0,0-13.244-23.6-28.682-25.46,0,0,21.776,8.97,39.04,55.49,0,0-10.26-20.282-22.075-27.627,0,0,21.843,22.52,23.163,71.355,0,0-4.811-41.6-72.605-48.063s-98.756,8.831-92.39,43.882c0,0-15.849-23.071,12.05-65.006,0,0-14.173,12.263-18.816,22.71,0,0,8.005-37.132,38.189-42.391a54.969,54.969,0,0,0-37.529,15.8s15.628-24.363,43.35-26.108-19.4-.641-24.584-6.766c0,0,35.566,3.432,37.521-2.26s-25.672,5.8-29.524-4.4c0,0,15.2,7.331,30.777-6.033s-33.971-30.752-22.251-43.733c0,0,.881,10.265,23.409,23.555s-26.743-27.342-27.689-60.046c0,0,9.717,28.679,27.776,39.317,0,0-9.647-51.107-50.581-76.77,0,0,20.559,5.012,48.969,50.335,0,0-15.009-68.48-32.455-85.6-19.544-19.177-32.128-24.976-32.128-24.976" transform="translate(462.835 198.437)" fill="#f1e8e5"/>
    <path id="Path_119" data-name="Path 119" d="M257.54,112.793s15.23-10.375,34.648,12.246c13,15.138,36.975,110.177,36.975,110.177s.078-62.72-7.715-72.46c0,0,12.886,18.9,16.332,53.6l5.771-47.982-.428,42.276s14.472-54.362,28.755-59.61c0,0-11.835,10.431-24.352,75.8,0,0,19.751-34.024,39.414-42.665s39.949-29.482,39-42.715c0,0,3.248,25.787-42.458,50.34,0,0,30.343,1.11,35.252-8.033,0,0-8.649,12.081-28.629,19.837,0,0,45.132-2.193,53.028-18.6,0,0-6.447,25.465-51.028,33.65,0,0,30.858.324,42.455,16.534,0,0-17.421-13.524-38.855-4.249,0,0,29.426-5.351,42.774,17.418,0,0-37.227-35.375-59.336,7.678s8.579-4.47,10.014,1.206-14.414,38.9,4.845,44.178,29.051,25.93,30.6,34.156c0,0-13.244-23.6-28.682-25.46,0,0,21.776,8.97,39.04,55.49,0,0-10.26-20.282-22.075-27.627,0,0,21.843,22.52,23.163,71.355,0,0-4.811-41.6-72.605-48.063s-98.756,8.831-92.39,43.882c0,0-15.849-23.071,12.05-65.006,0,0-14.173,12.263-18.816,22.71,0,0,8.005-37.132,38.189-42.391a54.969,54.969,0,0,0-37.529,15.8s15.628-24.363,43.35-26.108-19.4-.641-24.584-6.766c0,0,35.566,3.432,37.521-2.26s-25.672,5.8-29.524-4.4c0,0,15.2,7.331,30.777-6.033s-33.971-30.752-22.251-43.733c0,0,.881,10.265,23.409,23.555s-26.743-27.342-27.689-60.046c0,0,9.717,28.679,27.776,39.317,0,0-9.647-51.107-50.581-76.77,0,0,20.559,5.012,48.969,50.335,0,0-15.009-68.48-32.455-85.6C270.124,118.591,257.54,112.793,257.54,112.793Z" transform="translate(462.835 198.437)" fill="none" stroke="#000" stroke-linecap="round" stroke-linejoin="round" stroke-width="0.3"/>
    <path id="Path_120" data-name="Path 120" d="M269.113,99.981s25.236,39.946-13.684,68.211c0,0,14.526,5.866,15.295,26.033,0,0-17.13,6.039-52.813,3.429,0,0,40.1,11.516,51.655,6.212,0,0-21.292,6.7-26.209,26.19,0,0,15.191-32.148,58.969-10.926,0,0-37.163-16.307-56.558,25.116,0,0,22.095-33.893,61.671-16.263,0,0-35.826-1.734-49.585,24.923,0,0,20.59-24.967,57.694-9.614,0,0-42.083-9.614-55.109,29.487,0,0,16.654-40.724,80.748-12.94,0,0-8.238-15.588-24.794-23.574,0,0,14.545-3.013,38.293,22.623,0,0-12.335-21.56-41.563-35.37,0,0,15.591-9.482,48.712,18.727,0,0-17.759-27.185-56.3-28.391,0,0,14.173-19.4,55.7,7.728,0,0-29.594-26.388-59.61-17.98,0,0,12.31-16.218,50.48,4.011,0,0-62.446-41.484-46.67-57.09,0,0-1.813,19.342,30.215,35.549,0,0-21.907-22.019-23.921-45.087-1.614-18.483-19.633-48.024-42.612-41.006" transform="translate(391.616 177.78)" fill="#f1e8e5"/>
    <path id="Path_121" data-name="Path 121" d="M269.113,99.981s25.236,39.946-13.684,68.211c0,0,14.526,5.866,15.295,26.033,0,0-17.13,6.039-52.813,3.429,0,0,40.1,11.516,51.655,6.212,0,0-21.292,6.7-26.209,26.19,0,0,15.191-32.148,58.969-10.926,0,0-37.163-16.307-56.558,25.116,0,0,22.095-33.893,61.671-16.263,0,0-35.826-1.734-49.585,24.923,0,0,20.59-24.967,57.694-9.614,0,0-42.083-9.614-55.109,29.487,0,0,16.654-40.724,80.748-12.94,0,0-8.238-15.588-24.794-23.574,0,0,14.545-3.013,38.293,22.623,0,0-12.335-21.56-41.563-35.37,0,0,15.591-9.482,48.712,18.727,0,0-17.759-27.185-56.3-28.391,0,0,14.173-19.4,55.7,7.728,0,0-29.594-26.388-59.61-17.98,0,0,12.31-16.218,50.48,4.011,0,0-62.446-41.484-46.67-57.09,0,0-1.813,19.342,30.215,35.549,0,0-21.907-22.019-23.921-45.087C310.11,122.5,292.091,92.963,269.113,99.981Z" transform="translate(391.616 177.78)" fill="none" stroke="#000" stroke-linecap="round" stroke-linejoin="round" stroke-width="0.3"/>
    <path id="Path_122" data-name="Path 122" d="M253.989,146.406s-7.908,24.808-2.607,48.969c0,0-.635-22.005,8.313-23.641,0,0,2.408,31.5-10.679,46.335a46.977,46.977,0,0,0,17.9-29.031s-3.457,36.237-25.594,50.536c0,0,20.472-7.933,26.237-28.576,0,0-9.088,42.673-39.068,58.217,0,0,25.292-7.354,41.649-38.76s-5.46,39.828-45.412,70.038c0,0-29.7,17.765-25.641,79.525,0,0-1.172-61.414,37.048-79.8,0,0-24.5,25.5-24.058,62.757,0,0,6.187-71.126,86.541-74.39,0,0-72.317-1.583-81.867,120.361,0,0,2.668-75.176,63.766-91.9,0,0-54.222,10.293-53.616,118.285,0,0-3.326-76.991,45.238-94.126,0,0-48.267,37.415-33.415,159.557,0,0-13.362-101.9,43.171-135.583,0,0-45.342,37.387-10.288,110.47,0,0-23.851-67.344,22.973-93.2,0,0,3.315-29.591,32.343-32.1,0,0,9.373-19.865,36.629-15.837,0,0-26.886-10.769-42.069,6.937,0,0-37.04-3.706-47.479,14.531,0,0,12.54-22.99,45.571-23.594,0,0-37.952-8.6-48.455-2.3,0,0,23.851-11.317,68.281-6.722S328.76,296.6,385.67,245.713c0,0-31.588,17.944-35.409,49.719,0,0-3.86-46.813,37.63-68.194,0,0-41.252,13-51.554,71.769,0,0-4.232-79.229,66.9-77.422,0,0-54.852-10.344-73.668,52.617,0,0-33.471-7.287-70.745,14.733,0,0,12.831-21.907,64.983-22.923,0,0,10.355-36.24,42.522-48.114,0,0-35.507,8.473-47.191,37.056,0,0-33.968,1.913-50.525,14.917,0,0,12.928-38.931,12.727-62.2,0,0-4.389,11.549-10.467,12.237,0,0,7.488-37.336.425-47.182" transform="translate(357.102 263.112)" fill="#f5ded2"/>
    <path id="Path_123" data-name="Path 123" d="M253.989,146.406s-7.908,24.808-2.607,48.969c0,0-.635-22.005,8.313-23.641,0,0,2.408,31.5-10.679,46.335a46.977,46.977,0,0,0,17.9-29.031s-3.457,36.237-25.594,50.536c0,0,20.472-7.933,26.237-28.576,0,0-9.088,42.673-39.068,58.217,0,0,25.292-7.354,41.649-38.76s-5.46,39.828-45.412,70.038c0,0-29.7,17.765-25.641,79.525,0,0-1.172-61.414,37.048-79.8,0,0-24.5,25.5-24.058,62.757,0,0,6.187-71.126,86.541-74.39,0,0-72.317-1.583-81.867,120.361,0,0,2.668-75.176,63.766-91.9,0,0-54.222,10.293-53.616,118.285,0,0-3.326-76.991,45.238-94.126,0,0-48.267,37.415-33.415,159.557,0,0-13.362-101.9,43.171-135.583,0,0-45.342,37.387-10.288,110.47,0,0-23.851-67.344,22.973-93.2,0,0,3.315-29.591,32.343-32.1,0,0,9.373-19.865,36.629-15.837,0,0-26.886-10.769-42.069,6.937,0,0-37.04-3.706-47.479,14.531,0,0,12.54-22.99,45.571-23.594,0,0-37.952-8.6-48.455-2.3,0,0,23.851-11.317,68.281-6.722S328.76,296.6,385.67,245.713c0,0-31.588,17.944-35.409,49.719,0,0-3.86-46.813,37.63-68.194,0,0-41.252,13-51.554,71.769,0,0-4.232-79.229,66.9-77.422,0,0-54.852-10.344-73.668,52.617,0,0-33.471-7.287-70.745,14.733,0,0,12.831-21.907,64.983-22.923,0,0,10.355-36.24,42.522-48.114,0,0-35.507,8.473-47.191,37.056,0,0-33.968,1.913-50.525,14.917,0,0,12.928-38.931,12.727-62.2,0,0-4.389,11.549-10.467,12.237,0,0,7.488-37.336.425-47.182" transform="translate(357.102 263.112)" fill="none" stroke="#f1e8e5" stroke-linecap="round" stroke-linejoin="round" stroke-width="0.3"/>
    <path id="Path_124" data-name="Path 124" d="M342.389,372.741s19.91,12.993,12.856,38.933c0,0,26.2,11.53,18.374,87.3,0,0,14.246-43.412-9.826-89.816,0,0,26.922,11.983,36.153,58.516,0,0,1.9-32.99-32.187-70.608,0,0,28.43,5.354,36.964,30.875,0,0-3.292-26.825-32.164-46.413,0,0,40.178,13.079,43.974,33.974,0,0-5.519-34.506-37.767-55.789s21.784-9.628,51.747,57.47c0,0-17.924-54.642-45.431-72.48,0,0,42.992,17.717,56.357,40.595,0,0-7.11-26.64-49.755-47.238,0,0,54.989,8.545,74.328-4.6,0,0-66.25,11.37-88.317-19,0,0,21.918,21.974,74.029,12.126,0,0-71.554,10.733-77.338-37.663,0,0,20.634,4.045,28.69,24.078,0,0-1.267-16.268-25.714-32.743,0,0,28.26-7.821,40.989,39.736,0,0,2.431-38.623-46.861-57.848,0,0,43.806.8,62.874,53.327,0,0-5.122-43.16-64.085-72.812,0,0,45.7,11.3,78.216,73.224,0,0-20.391-66.27-79.481-89.492,0,0,44.427,11.147,73.341,49.431,0,0-19.966-43.012-79.945-69.562s-48.838-54.863-24.951-39.1c0,0-15.728-19.3-25.468,2.738s31.28,40.055,31.28,40.055-23.563-2.386-27.171-9.91c0,0,7.315,19.574,45.188,20.906,0,0-25.082,6.682-48.547-9.06,0,0,38.986,18.869,43.831,53.616,0,0-10.7-24.73-22.841-29.82,0,0,22.682,22.067,22.131,60.676,0,0-2.545-28.259-14.486-38.483,0,0,19.1,35.815,10.053,75.338,0,0,1.843-21.594-6.9-42.086,0,0,10.467,36.712-6.954,57.825,0,0-14.271,16.332,4.817,23.784" transform="translate(558.005 286.362)" fill="#f5ded2"/>
    <path id="Path_125" data-name="Path 125" d="M342.389,372.741s19.91,12.993,12.856,38.933c0,0,26.2,11.53,18.374,87.3,0,0,14.246-43.412-9.826-89.816,0,0,26.922,11.983,36.153,58.516,0,0,1.9-32.99-32.187-70.608,0,0,28.43,5.354,36.964,30.875,0,0-3.292-26.825-32.164-46.413,0,0,40.178,13.079,43.974,33.974,0,0-5.519-34.506-37.767-55.789s21.784-9.628,51.747,57.47c0,0-17.924-54.642-45.431-72.48,0,0,42.992,17.717,56.357,40.595,0,0-7.11-26.64-49.755-47.238,0,0,54.989,8.545,74.328-4.6,0,0-66.25,11.37-88.317-19,0,0,21.918,21.974,74.029,12.126,0,0-71.554,10.733-77.338-37.663,0,0,20.634,4.045,28.69,24.078,0,0-1.267-16.268-25.714-32.743,0,0,28.26-7.821,40.989,39.736,0,0,2.431-38.623-46.861-57.848,0,0,43.806.8,62.874,53.327,0,0-5.122-43.16-64.085-72.812,0,0,45.7,11.3,78.216,73.224,0,0-20.391-66.27-79.481-89.492,0,0,44.427,11.147,73.341,49.431,0,0-19.966-43.012-79.945-69.562s-48.838-54.863-24.951-39.1c0,0-15.728-19.3-25.468,2.738s31.28,40.055,31.28,40.055-23.563-2.386-27.171-9.91c0,0,7.315,19.574,45.188,20.906,0,0-25.082,6.682-48.547-9.06,0,0,38.986,18.869,43.831,53.616,0,0-10.7-24.73-22.841-29.82,0,0,22.682,22.067,22.131,60.676,0,0-2.545-28.259-14.486-38.483,0,0,19.1,35.815,10.053,75.338,0,0,1.843-21.594-6.9-42.086,0,0,10.467,36.712-6.954,57.825C337.572,348.957,323.3,365.29,342.389,372.741Z" transform="translate(558.005 286.362)" fill="none" stroke="#f1e8e5" stroke-linecap="round" stroke-linejoin="round" stroke-width="0.3"/>
    <path id="Path_126" data-name="Path 126" d="M265.923,53.013s39.126,8.624,43.107,73.265c3.726,60.488-13.605,85.657-19.957,89.441a1.936,1.936,0,0,0-.943,1.944c.92,6.529,4.7,31.1,4.635-5.93a1.98,1.98,0,0,1,.685-1.5c3.485-2.979,19.021-15.98,17.647-10.067a1.964,1.964,0,0,0,3.194,1.964c2.657-2.447,2.212,5.857,3.533,17.172,4.819,41.325-1.172-.615,0,0,4.794,2.512,21.5-27.317,13.619-8.534,0,0,.218-2.215.607-5.8a1.966,1.966,0,0,0-3.891-.554c-2.512,15.661-.792,31.655,18.864,26.43a1.945,1.945,0,0,0,1.427-1.835c.229-9.166,1.9-59.358,11.457-67.9a1.892,1.892,0,0,0,.476-.627c2.417-5.309,31.107-66.969,61.752-70.555,0,0-16.85-5.871-38.038,13.885a1.965,1.965,0,0,1-2.881-2.66c10.912-13.194,26.31-26.184,46.737-31.1,0,0-32.682,4.221-57.825,28.741a1.955,1.955,0,0,1-3.259-1.9c2.875-10.772,9.172-31.322,18.615-45.842a1.961,1.961,0,0,0-2.987-2.5c-8.349,7.84-18.346,20.467-26.632,40.3a1.958,1.958,0,0,1-3.771-.834C353.342,65.463,351.247,24.13,323.22.15c0,0,27.339,19.986,17.057,89.746,0,0,5.885-44.3-78.25-69.64,0,0,65.66,19.784,73.109,84.267,0,0,3.11-37.912-69.212-51.509" transform="translate(470.899 0.27)" fill="#f1e8e5"/>
    <path id="Path_127" data-name="Path 127" d="M265.923,53.013s39.126,8.624,43.107,73.265c3.726,60.488-13.605,85.657-19.957,89.441a1.936,1.936,0,0,0-.943,1.944c.92,6.529,4.7,31.1,4.635-5.93a1.98,1.98,0,0,1,.685-1.5c3.485-2.979,19.021-15.98,17.647-10.067a1.964,1.964,0,0,0,3.194,1.964c2.657-2.447,2.212,5.857,3.533,17.172,4.819,41.325-1.172-.615,0,0,4.794,2.512,21.5-27.317,13.619-8.534,0,0,.218-2.215.607-5.8a1.966,1.966,0,0,0-3.891-.554c-2.512,15.661-.792,31.655,18.864,26.43a1.945,1.945,0,0,0,1.427-1.835c.229-9.166,1.9-59.358,11.457-67.9a1.892,1.892,0,0,0,.476-.627c2.417-5.309,31.107-66.969,61.752-70.555,0,0-16.85-5.871-38.038,13.885a1.965,1.965,0,0,1-2.881-2.66c10.912-13.194,26.31-26.184,46.737-31.1,0,0-32.682,4.221-57.825,28.741a1.955,1.955,0,0,1-3.259-1.9c2.875-10.772,9.172-31.322,18.615-45.842a1.961,1.961,0,0,0-2.987-2.5c-8.349,7.84-18.346,20.467-26.632,40.3a1.958,1.958,0,0,1-3.771-.834C353.342,65.463,351.247,24.13,323.22.15c0,0,27.339,19.986,17.057,89.746,0,0,5.885-44.3-78.25-69.64,0,0,65.66,19.784,73.109,84.267C335.136,104.522,338.246,66.61,265.923,53.013Z" transform="translate(470.899 0.27)" fill="none" stroke="#000" stroke-linecap="round" stroke-linejoin="round" stroke-width="0.3"/>
    <path id="Path_128" data-name="Path 128" d="M416.377,154.474c9.446-3.01-29.756,2.8-13.3,49.887,18.783,53.75,18.019,92.51,18.019,92.51-4.934-31.68-31.129-56.2-31.129-56.2,22.9,35.784,20.567,71.97,20.567,71.97-8.425-35.985-43.554-50.449-43.554-50.449C404.813,294.912,397.6,310.56,397.6,310.56c-21.862-48.287-34.581-23.588-53.3-61.783s-53.618-30.732-95.707-52.309-45.722-56.013-45.722-56.013,13.169,27.812,28.643,36.472,30.332,14.335,52.818,13.152c0,0-22.783-36.738-53.353-24.872,0,0,10.923-18.114,52.516-.484,0,0-23.443-21.079-59.867-11.085,0,0,22.758-19.608,73.238,4.92,0,0-19.812-27.862-77.867-22.965,0,0,35.932-16.078,96.255,15.463,0,0-28.089-33.012-116.372-25.9,0,0,44.256-20.66,115.953,13.219,0,0-33.079-31.887-114.557-24.816,0,0,38.047-17.5,119.653,14.744,0,0-42.424-34.939-118.5-24.313,0,0,60.256-24.464,133.9,17.423,0,0-19.988-27.661-124.593-38.3,0,0,65.006-11.611,135.32,29.873,0,0-14.7-47.425-87.97-60.122,0,0,54.776-3.127,94.982,50.279,0,0,.66-37.806-86.241-74.485,0,0,65,8.8,99.265,71.2s18.7-42.438-.786-66.152c0,0,25.9,16.251,30.2,88.146,0,0,20.808-27.613,21.046-53.811,0,0,3.052,39.224-18.444,72.58s25.994-16.3,32.4-28.159c0,0,2.585,8.914-12.408,27.65,0,0,24.3,9.723,4.635,36.987,0,0-16.495-19.4-6.363-22.623" transform="translate(357.424 51.508)" fill="#f1e8e5"/>
    <path id="Path_129" data-name="Path 129" d="M416.377,154.474c9.446-3.01-29.756,2.8-13.3,49.887,18.783,53.75,18.019,92.51,18.019,92.51-4.934-31.68-31.129-56.2-31.129-56.2,22.9,35.784,20.567,71.97,20.567,71.97-8.425-35.985-43.554-50.449-43.554-50.449C404.813,294.912,397.6,310.56,397.6,310.56c-21.862-48.287-34.581-23.588-53.3-61.783s-53.618-30.732-95.707-52.309-45.722-56.013-45.722-56.013,13.169,27.812,28.643,36.472,30.332,14.335,52.818,13.152c0,0-22.783-36.738-53.353-24.872,0,0,10.923-18.114,52.516-.484,0,0-23.443-21.079-59.867-11.085,0,0,22.758-19.608,73.238,4.92,0,0-19.812-27.862-77.867-22.965,0,0,35.932-16.078,96.255,15.463,0,0-28.089-33.012-116.372-25.9,0,0,44.256-20.66,115.953,13.219,0,0-33.079-31.887-114.557-24.816,0,0,38.047-17.5,119.653,14.744,0,0-42.424-34.939-118.5-24.313,0,0,60.256-24.464,133.9,17.423,0,0-19.988-27.661-124.593-38.3,0,0,65.006-11.611,135.32,29.873,0,0-14.7-47.425-87.97-60.122,0,0,54.776-3.127,94.982,50.279,0,0,.66-37.806-86.241-74.485,0,0,65,8.8,99.265,71.2s18.7-42.438-.786-66.152c0,0,25.9,16.251,30.2,88.146,0,0,20.808-27.613,21.046-53.811,0,0,3.052,39.224-18.444,72.58s25.994-16.3,32.4-28.159c0,0,2.585,8.914-12.408,27.65,0,0,24.3,9.723,4.635,36.987C422.74,177.1,406.245,157.7,416.377,154.474Z" transform="translate(357.424 51.508)" fill="none" stroke="#000" stroke-linecap="round" stroke-linejoin="round" stroke-width="0.3"/>
    <path id="Path_130" data-name="Path 130" d="M302.149,260.155a403.758,403.758,0,0,0-20.509-91.536c-12.114-34.335,24.209-60.211,14.565-17.893,0,0,12.285,3.751,15.216-28.192,3.55-38.679,36.9-87.444,85.665-80.669a45.789,45.789,0,0,0-41.331,25.96s92.8-27.957,102.918-8.548c0,0-14.506-11.751-91.027,11.8,0,0,83.892-16.749,93.768-.551,0,0-36.584-13.5-89.324,16.551,0,0,57.1-20.881,88.032-5.79,0,0-42.254-15.544-80.27,24.464s-2.067,13.4,5.233,5.631,47.63-32.934,72.34-7.675c0,0-26.2-20.436-61.632,9.418,0,0,56.611-16.844,79.092,23.16,0,0-26.606-35.952-83.578-12.327,0,0,53.425-22.6,98.138,35,0,0-18.987-23.661-60.58-29.574,0,0,43.207,15.174,56.992,40.5,0,0-28.08-38.841-75.755-28.2s31.046,2.825,49.5,19.6c0,0-21.5-10.33-59.985-4.263,0,0,46.855-.045,68.426,24.839,0,0-39.826-35.722-94.11-.4,0,0-10.1,8.338-13.6,26.111,0,0,13.963-32.892,43.431-32.075,0,0-22.008,1.446-31.753,25.748,0,0,51.305-37.043,88.532-6.184,0,0-37.837-29.569-93.559,21.5s-7.482,16.842,8.089,4.613c0,0-40.67,35.594-24.962,41.121,0,0-10.3,2.4-11.709-12.324,0,0-8,13.594,8.945,20.179,0,0-29.451,2.828-12.224-38.312,0,0-16.184,13.538-20.139,53.99,0,0,5.989-49.781,1.166-62.642,0,0-1.25,44.427-9.359,58.919,0,0,6.12-20.643.05-60.947a135.782,135.782,0,0,1-4.691,39.009" transform="translate(501.651 74.092)" fill="#f1e8e5"/>
    <path id="Path_131" data-name="Path 131" d="M302.149,260.155a403.758,403.758,0,0,0-20.509-91.536c-12.114-34.335,24.209-60.211,14.565-17.893,0,0,12.285,3.751,15.216-28.192,3.55-38.679,36.9-87.444,85.665-80.669a45.789,45.789,0,0,0-41.331,25.96s92.8-27.957,102.918-8.548c0,0-14.506-11.751-91.027,11.8,0,0,83.892-16.749,93.768-.551,0,0-36.584-13.5-89.324,16.551,0,0,57.1-20.881,88.032-5.79,0,0-42.254-15.544-80.27,24.464s-2.067,13.4,5.233,5.631,47.63-32.934,72.34-7.675c0,0-26.2-20.436-61.632,9.418,0,0,56.611-16.844,79.092,23.16,0,0-26.606-35.952-83.578-12.327,0,0,53.425-22.6,98.138,35,0,0-18.987-23.661-60.58-29.574,0,0,43.207,15.174,56.992,40.5,0,0-28.08-38.841-75.755-28.2s31.046,2.825,49.5,19.6c0,0-21.5-10.33-59.985-4.263,0,0,46.855-.045,68.426,24.839,0,0-39.826-35.722-94.11-.4,0,0-10.1,8.338-13.6,26.111,0,0,13.963-32.892,43.431-32.075,0,0-22.008,1.446-31.753,25.748,0,0,51.305-37.043,88.532-6.184,0,0-37.837-29.569-93.559,21.5s-7.482,16.842,8.089,4.613c0,0-40.67,35.594-24.962,41.121,0,0-10.3,2.4-11.709-12.324,0,0-8,13.594,8.945,20.179,0,0-29.451,2.828-12.224-38.312,0,0-16.184,13.538-20.139,53.99,0,0,5.989-49.781,1.166-62.642,0,0-1.25,44.427-9.359,58.919,0,0,6.12-20.643.05-60.947A135.782,135.782,0,0,1,302.149,260.155Z" transform="translate(501.651 74.092)" fill="none" stroke="#000" stroke-linecap="round" stroke-linejoin="round" stroke-width="0.3"/>
    <path id="Path_132" data-name="Path 132" d="M376.116,135.377S355.826,159.7,351.8,168.85s-7.779,24.769,2.129,24.984c0,0,4.643.076,3.519,5.782s34.133,34.341,49.834,20.38c0,0,6.148-2.562,6.568-8.224a38.115,38.115,0,0,1,3.48-14.2c2.764-5.58,6.839-12.011,12-15.163,0,0,9.133-5.547,2.716-16.539s-22.816-20.344-37.079-24.4-13.849-10.025-18.85-6.1" transform="translate(624.734 240.986)"/>
    <path id="Path_133" data-name="Path 133" d="M409.354,181.514c-5.315,19.44-21.851,31.857-36.936,27.734s-23-23.227-17.689-42.668,21.851-31.859,36.936-27.734,23,23.227,17.689,42.668" transform="translate(634.525 248.104)" fill="#ffbf00"/>
    <path id="Path_134" data-name="Path 134" d="M400.4,183.371c-10.019,6.615-19.9,19.527-17.779,45.381,0,0-4.47-19.345-.613-34.033,0,0-17.6,7.287-21.566,27.185,0,0-4.056-14.07,19.672-33.16,0,0-40.3.378-45.014-29.966,0,0,9.292,31.417,48,22.489,0,0-52.027-2.075-43.3-61.629,0,0-8.173,54.919,45.884,57.5,0,0-33.915-17.924-29.048-36.668,0,0,2.621,21.678,28.075,27.378,0,0-10.324-44.572,17.446-53.772,0,0-27.6,16.534-8.319,51.767,0,0,18.067-45.893,62.631-42.623,0,0-33.68-2.484-49.395,36.9,0,0,27.773-48.382,66.3-16.581,0,0-31.946-29.963-59.764,23.113,0,0,33.462-30.455,61.389-6.2,0,0-26.279-16.221-49.926,6.534,0,0,37.023-12.265,46.086,25.4,0,0-8.811-26.715-41.61-19.138,0,0,39.966-1.955,43.151,45.445,0,0-6.61-36.321-38.231-38.556,0,0,36.917,19.068,30.685,49.143,0,0-1.491-24.486-32.712-45.47-5.365-3.6-16.733-10.545-32.044-.434" transform="translate(602.223 205.012)" fill="#f1e8e5"/>
    <path id="Path_135" data-name="Path 135" d="M400.4,183.371c-10.019,6.615-19.9,19.527-17.779,45.381,0,0-4.47-19.345-.613-34.033,0,0-17.6,7.287-21.566,27.185,0,0-4.056-14.07,19.672-33.16,0,0-40.3.378-45.014-29.966,0,0,9.292,31.417,48,22.489,0,0-52.027-2.075-43.3-61.629,0,0-8.173,54.919,45.884,57.5,0,0-33.915-17.924-29.048-36.668,0,0,2.621,21.678,28.075,27.378,0,0-10.324-44.572,17.446-53.772,0,0-27.6,16.534-8.319,51.767,0,0,18.067-45.893,62.631-42.623,0,0-33.68-2.484-49.395,36.9,0,0,27.773-48.382,66.3-16.581,0,0-31.946-29.963-59.764,23.113,0,0,33.462-30.455,61.389-6.2,0,0-26.279-16.221-49.926,6.534,0,0,37.023-12.265,46.086,25.4,0,0-8.811-26.715-41.61-19.138,0,0,39.966-1.955,43.151,45.445,0,0-6.61-36.321-38.231-38.556,0,0,36.917,19.068,30.685,49.143,0,0-1.491-24.486-32.712-45.47C427.079,180.2,415.712,173.259,400.4,183.371Z" transform="translate(602.223 205.012)" fill="none" stroke="#000" stroke-linecap="round" stroke-linejoin="round" stroke-width="0.3"/>
    <path id="Path_136" data-name="Path 136" d="M376.7,176.01s27.283,37.146,49.6,11.457c0,0-4.408,13.809-19.479,14.744,0,0,13.11,5.236,21.356-7.5,0,0-2.492,13.124-19.829,12.565,0,0,13.555,4.07,21.188-3.555,0,0-9.432,17.513-32.662,2.5,0,0,22.279,27.983,35.054,18.232,0,0-18.419,16.089-44.27-20.274,0,0,10.766,22.956-6.752,41.291,0,0,14.573-17.468.31-43.593,0,0,6.173,24.847-8.263,33.177,0,0,14.858-14.383,1.357-39.193,0,0-17.695-5.178-9.457,27.848,0,0-13.477-19.927,3.113-33.493,0,0-13.952-.761-13.885,21.518,0,0-6.928-18.528,7.843-27.127,0,0-15.636-7.066-21.5,8.7,0,0-2.741-15.281,22.033-15.656,0,0-10.321-18.78,5.11-32.338,0,0-4.112,36.726,9.13,30.693" transform="translate(611.625 261.155)" fill="#f1e8e5"/>
    <path id="Path_137" data-name="Path 137" d="M376.7,176.01s27.283,37.146,49.6,11.457c0,0-4.408,13.809-19.479,14.744,0,0,13.11,5.236,21.356-7.5,0,0-2.492,13.124-19.829,12.565,0,0,13.555,4.07,21.188-3.555,0,0-9.432,17.513-32.662,2.5,0,0,22.279,27.983,35.054,18.232,0,0-18.419,16.089-44.27-20.274,0,0,10.766,22.956-6.752,41.291,0,0,14.573-17.468.31-43.593,0,0,6.173,24.847-8.263,33.177,0,0,14.858-14.383,1.357-39.193,0,0-17.695-5.178-9.457,27.848,0,0-13.477-19.927,3.113-33.493,0,0-13.952-.761-13.885,21.518,0,0-6.928-18.528,7.843-27.127,0,0-15.636-7.066-21.5,8.7,0,0-2.741-15.281,22.033-15.656,0,0-10.321-18.78,5.11-32.338C367.566,145.317,363.454,182.043,376.7,176.01Z" transform="translate(611.625 261.155)" fill="none" stroke="#000" stroke-linecap="round" stroke-linejoin="round" stroke-width="0.3"/>
    <path id="Path_138" data-name="Path 138" d="M357.975,157.624s7.208-16.676,19.67-18.016,5.278,7.259,14.061,10.917,12.366-2.64,15.032,6.775-.593,22.634-3.25,27.046-11.412,22.279-26.427,15.27-4.537-9.219-16.439-12.856-4.607-25.381-2.646-29.135" transform="translate(636.125 250.641)" fill="blue"/>
    <path id="Path_139" data-name="Path 139" d="M354.821,161.655s5.661-18.685,21.289-22.137" transform="translate(637.663 250.733)" fill="none" stroke="#000" stroke-linecap="round" stroke-linejoin="round" stroke-width="0.3"/>
    <path id="Path_140" data-name="Path 140" d="M366.21,175.976s10.562-2.557,17.846-22.869" transform="translate(658.13 275.155)" fill="none" stroke="#000" stroke-linecap="round" stroke-linejoin="round" stroke-width="0.3"/>
    <path id="Path_141" data-name="Path 141" d="M375.4,159.444a9.46,9.46,0,1,1-3.614-12.881,9.461,9.461,0,0,1,3.614,12.881" transform="translate(642.822 261.212)"/>
    <path id="Path_142" data-name="Path 142" d="M381.28,162.788a9.46,9.46,0,1,1-3.614-12.881,9.461,9.461,0,0,1,3.614,12.881" transform="translate(653.388 267.222)"/>
    <path id="Path_143" data-name="Path 143" d="M368.548,147.718a6.841,6.841,0,0,0,7.524,4.226c5.608-.9-1.661,12.033-1.661,12.033l-7.2-1.331a2.7,2.7,0,0,0-3.387-1.9c-2.682.691-4.677-17.935,4.722-13.026" transform="translate(649.84 263.987)"/>
    <path id="Path_144" data-name="Path 144" d="M365.546,141.129s1.2,8.649,14.285,7.642" transform="translate(656.937 253.628)" fill="none" stroke="#000" stroke-linecap="round" stroke-linejoin="round" stroke-width="0.3"/>
    <path id="Path_145" data-name="Path 145" d="M244.577,125.253s14.243,29.806,16,40.136,1.656,27.185-8.271,24.965c0,0-4.649-1.066-4.931,5.035s-42.486,26.632-54.7,8.526c0,0-5.5-4.129-4.526-10.008a40.786,40.786,0,0,0,.028-15.342c-1.382-6.372-3.86-13.938-8.229-18.425,0,0-8.579-3.983.526-13.619s28.592-19.063,43.812-19.686,16.274-6.819,20.293-1.58" transform="translate(316.809 221.346)"/>
    <path id="Path_146" data-name="Path 146" d="M180.483,164.146c.554,20.148,13.675,36.131,29.308,35.7s27.854-17.11,27.3-37.258-13.675-36.131-29.308-35.7-27.854,17.11-27.3,37.258" transform="translate(324.32 228.021)" fill="#ffbf00"/>
    <path id="Path_147" data-name="Path 147" d="M232.639,151.917s-3.052-17.91-14.836-22.165-6.85,5.8-16.251,7.27-11.387-5.5-16.212,3.018-4.786,22.131-3.253,27.046,5.8,24.349,22.055,21.1,6.6-7.882,19.015-8.593,10.495-23.566,9.482-27.678" transform="translate(325.586 231.308)" fill="blue"/>
    <path id="Path_148" data-name="Path 148" d="M209.7,155.635s-1.071-19.5-15.432-26.553" transform="translate(349.121 231.978)" fill="none" stroke="#000" stroke-linecap="round" stroke-linejoin="round" stroke-width="0.3"/>
    <path id="Path_149" data-name="Path 149" d="M190.367,146.981a9.46,9.46,0,1,0,6.565-11.658,9.461,9.461,0,0,0-6.565,11.658" transform="translate(341.484 242.563)"/>
    <path id="Path_150" data-name="Path 150" d="M183.863,148.836a9.46,9.46,0,1,0,6.565-11.658,9.461,9.461,0,0,0-6.565,11.658" transform="translate(329.795 245.896)"/>
    <path id="Path_151" data-name="Path 151" d="M197.916,136.3a6.847,6.847,0,0,1-8.313,2.324c-5.233-2.21-1.236,12.084-1.236,12.084l7.306.411a2.7,2.7,0,0,1,3.74-1.046c2.445,1.306,8.8-16.313-1.5-13.773" transform="translate(335.898 244.505)"/>
    <path id="Path_152" data-name="Path 152" d="M247.511,151.984s-37.482-43.94-65.336-47.845c0,0,25.574,13.628,39.28,33.6,0,0-27.854-17.79-42.505-6.78,0,0,22.556-2.839,37.882,12.886,0,0-26.668-9.169-37.208-.031,0,0,17.367-1.242,29.454,9.1,0,0-27.376-3.292-35.2,20.2,0,0,17.482-20.668,33.6-11.51,0,0-27.8,17.412-38.066,20.97,0,0,32.436-11.093,38.919-14.2,0,0-22.648,12.828-20.811,25.267,0,0-.428-25.364,42.648-28.735,8.635-.674,27.286-.621,30.847,22.579,0,0,4.755-7.2,1.516-12.59,0,0,6.61,9.681,4.92,28.36,0,0,7.054-12.481,6.881-20.276,0,0,7,34.164,12.428,39.817,0,0-5.228-21.18-3.759-28.777,0,0,14.408,9.507,15.5,23.524,0,0,2.193-13.622-14.444-32.285,0,0,27.222-.059,33.773-17.6,0,0-12.747,15.11-37.977,10.984,0,0,27.859-9.977,29.247-35.359a45.2,45.2,0,0,1-34.128,29.773S272.9,125.6,286.2,116.648c0,0-14.061,6.084-18.332,50.835,0,0-7.4-53.929-16.246-58.88,0,0,11.337,25.8,7.345,49.756,0,0-9.977-43.459-30.886-52.589,0,0,21.63,18.71,19.435,46.214" transform="translate(304.452 187.152)" fill="#f1e8e5"/>
    <path id="Path_153" data-name="Path 153" d="M247.511,151.984s-37.482-43.94-65.336-47.845c0,0,25.574,13.628,39.28,33.6,0,0-27.854-17.79-42.505-6.78,0,0,22.556-2.839,37.882,12.886,0,0-26.668-9.169-37.208-.031,0,0,17.367-1.242,29.454,9.1,0,0-27.376-3.292-35.2,20.2,0,0,17.482-20.668,33.6-11.51,0,0-27.8,17.412-38.066,20.97,0,0,32.436-11.093,38.919-14.2,0,0-22.648,12.828-20.811,25.267,0,0-.428-25.364,42.648-28.735,8.635-.674,27.286-.621,30.847,22.579,0,0,4.755-7.2,1.516-12.59,0,0,6.61,9.681,4.92,28.36,0,0,7.054-12.481,6.881-20.276,0,0,7,34.164,12.428,39.817,0,0-5.228-21.18-3.759-28.777,0,0,14.408,9.507,15.5,23.524,0,0,2.193-13.622-14.444-32.285,0,0,27.222-.059,33.773-17.6,0,0-12.747,15.11-37.977,10.984,0,0,27.859-9.977,29.247-35.359a45.2,45.2,0,0,1-34.128,29.773S272.9,125.6,286.2,116.648c0,0-14.061,6.084-18.332,50.835,0,0-7.4-53.929-16.246-58.88,0,0,11.337,25.8,7.345,49.756,0,0-9.977-43.459-30.886-52.589C228.076,105.77,249.706,124.48,247.511,151.984Z" transform="translate(304.452 187.152)" fill="none" stroke="#000" stroke-linecap="round" stroke-linejoin="round" stroke-width="0.3"/>
    <path id="Path_154" data-name="Path 154" d="M247.369,153.126s-7.454,29.043-44.539,29.865-27.613,42.908-6.419,53.383c0,0-30.908-28.539-3.242-46.262,0,0-16.3,18.374,1.284,33.258,0,0-14.229-20.808,10.87-31.8,0,0-17.012,15.647,1.063,38.075,0,0-14.355-30.069,15.429-36.092s3.611,43.185-3.485,50.936c0,0,36.038-32.41,18.511-58.734,0,0,11.837,4.067,7.647,35.264,0,0,8.3-21.457,2.646-36.665,0,0,17.082,11.74,1.9,46.458,0,0,17.628-22.1,7.67-52.793,0,0,10.252,6.277,11.519,25.04,0,0,4.137-16.111-8.358-33.026s3.2-11.941,7.742-2.151c0,0-8.9-20.59-7.561-28.645,0,0-2.937,9.773-12.677,13.885" transform="translate(319.446 250.235)" fill="#f1e8e5"/>
    <path id="Path_155" data-name="Path 155" d="M247.369,153.126s-7.454,29.043-44.539,29.865-27.613,42.908-6.419,53.383c0,0-30.908-28.539-3.242-46.262,0,0-16.3,18.374,1.284,33.258,0,0-14.229-20.808,10.87-31.8,0,0-17.012,15.647,1.063,38.075,0,0-14.355-30.069,15.429-36.092s3.611,43.185-3.485,50.936c0,0,36.038-32.41,18.511-58.734,0,0,11.837,4.067,7.647,35.264,0,0,8.3-21.457,2.646-36.665,0,0,17.082,11.74,1.9,46.458,0,0,17.628-22.1,7.67-52.793,0,0,10.252,6.277,11.519,25.04,0,0,4.137-16.111-8.358-33.026s3.2-11.941,7.742-2.151c0,0-8.9-20.59-7.561-28.645C260.046,139.241,257.109,149.014,247.369,153.126Z" transform="translate(319.446 250.235)" fill="none" stroke="#000" stroke-linecap="round" stroke-linejoin="round" stroke-width="0.3"/>
    <path id="Path_156" data-name="Path 156" d="M185.308,132.76s-10.182,20.419,1.469,39.342" transform="translate(325.62 238.588)" fill="none" stroke="#000" stroke-linecap="round" stroke-linejoin="round" stroke-width="0.3"/>
    <path id="Path_157" data-name="Path 157" d="M262.918,210.139s-.937,32.022,43.708,27.09c0,0,16.444-4.6,20.9,25.18s60.27-56.2,60.27-56.2Z" transform="translate(472.497 370.592)"/>
    <path id="Path_158" data-name="Path 158" d="M199.947,129.909s-2.2,7.334-14.148,4.467" transform="translate(333.907 233.465)" fill="none" stroke="#000" stroke-linecap="round" stroke-linejoin="round" stroke-width="0.3"/>
    <path id="Path_159" data-name="Path 159" d="M264.029,218.694c-3.088,12.134,3.007,40.156,34.894,35.666,25.515-3.594,28.321,17.365,27.887,30.338a12.106,12.106,0,0,0,7.787,11.664c6.814,2.632,16.674,5.18,25.381,2.6a11.6,11.6,0,0,0,8.159-11.275c-.053-9.821,2.716-27.3,23.4-25.56,28.606,2.406,25-37.932,24.081-42.251-1.194-5.611-2.213-29.622-62.552-8.473,0,0-36.578-31.834-73.772-9.852-15.667,9.259-13.281,9.34-15.267,17.144" transform="translate(473.213 348.306)" fill="#ffc8e5"/>
    <path id="Path_160" data-name="Path 160" d="M264.029,218.694c-3.088,12.134,3.007,40.156,34.894,35.666,25.515-3.594,28.321,17.365,27.887,30.338a12.106,12.106,0,0,0,7.787,11.664c6.814,2.632,16.674,5.18,25.381,2.6a11.6,11.6,0,0,0,8.159-11.275c-.053-9.821,2.716-27.3,23.4-25.56,28.606,2.406,25-37.932,24.081-42.251-1.194-5.611-2.213-29.622-62.552-8.473,0,0-36.578-31.834-73.772-9.852C263.629,210.809,266.015,210.89,264.029,218.694Z" transform="translate(473.213 348.306)" fill="none" stroke="#000" stroke-width="0.3"/>
    <path id="Path_161" data-name="Path 161" d="M276.324,221.164s23.015-3.992,28.036,18.232a49.04,49.04,0,0,1,1.385,15.924c-.8,8.148,13.44,13.158,18.4,11.555s9.4-40.091,5.625-46.774-15.421-7.351-18.861-.07-14.565,1-18.053-5.292c-3.815-6.878-17.6-6-16.528,6.425" transform="translate(496.486 378.209)" fill="#d15d8a"/>
    <path id="Path_162" data-name="Path 162" d="M299.75,221.784s3.345,23.295-5.527,45.965c0,0,14.19,3.614,15.857-8.478s.3-25.4,20.148-28.31c0,0,18.8,2.26,21.815-6.914s-18.442-14.089-21.426-5.122-13.2,3.578-12.822-.906c.965-11.541-19.678-10.844-18.044,3.765" transform="translate(528.76 377.442)" fill="#d15d8a"/>
    <path id="Path_163" data-name="Path 163" d="M265.31,211.006s24.358-22.111,50.866-14.386" transform="translate(476.799 350.411)" fill="none" stroke="#000" stroke-linecap="round" stroke-linejoin="round" stroke-width="0.3"/>
    <path id="Path_164" data-name="Path 164" d="M291.5,200.845s7.544,2.641,9.807,7.821c0,0,20.458-10.559,44.586-10.52" transform="translate(523.861 356.096)" fill="none" stroke="#000" stroke-linecap="round" stroke-linejoin="round" stroke-width="0.3"/>
    <path id="Path_165" data-name="Path 165" d="M291.174,224.845s9.927-3.555,16.539,4.489c0,0,.8-10.819,11.639-10.182s8.724-17.116-6.445-11.524-7.119,2.255-9.466-.971c-2.171-2.985-6.861-3.908-10.987,4.761s-4.985,15.815-1.281,13.426" transform="translate(519.057 367.597)"/>
    <path id="Path_166" data-name="Path 166" d="M265.5,202.227s-7.189,22.707,17.345,33.552" transform="translate(475.376 363.43)" fill="none" stroke="#fff" stroke-width="0.3"/>
    <path id="Path_167" data-name="Path 167" d="M276.436,84.27s20.593,36.931,21.723,88.767" transform="translate(496.794 151.445)" fill="none" stroke="#000" stroke-linecap="round" stroke-linejoin="round" stroke-width="0.3"/>
    <path id="Path_168" data-name="Path 168" d="M393.943,232.9s-10.123,14.945-36.542,2.461c0,0,13.941,14.411,31.286,8.66,0,0-27.138,13.879-50.6,1.261,0,0,9.619,13.572,43.812,8.294,0,0-41.731,19.876-63.842,7.91,0,0,19.054,20.413,56.508,6.308,0,0-39.521,23.163-84.437,1.6s-68.871,2.492-50.217,18.45c0,0-4.26-15.7,14.6-10.489,0,0-1.3-10.442,32.914,6.405,0,0-8.19,2.934-6.548,5.58,0,0,28.027-8.383,34.341-4.2s55.551,13.538,76.5,8.71c0,0,28.9,12.783,56.214.394,0,0,10.758-5.074,9.421,6.031,0,0,5.317-8.179-4.011-11.748,0,0,36.771,8.341,34.92-10.984,0,0-8.232,15.664-38.472,1.25,0,0-21.594-7.983-24.934-13.284,0,0,18.254,9.541,31.3,11.6,0,0-31.457-13.088-32.687-22.053,0,0,20.822,11.32,25.862,6.05,0,0-18.6-4.2-28-15.614,0,0,13.963,6.087,23.253,6.226,0,0-26.223-10.033-25.113-19.25,0,0-14.109,3.267-25.521.425" transform="translate(419.697 417.792)" fill="#f1e8c9"/>
    <path id="Path_169" data-name="Path 169" d="M393.943,232.9s-10.123,14.945-36.542,2.461c0,0,13.941,14.411,31.286,8.66,0,0-27.138,13.879-50.6,1.261,0,0,9.619,13.572,43.812,8.294,0,0-41.731,19.876-63.842,7.91,0,0,19.054,20.413,56.508,6.308,0,0-39.521,23.163-84.437,1.6s-68.871,2.492-50.217,18.45c0,0-4.26-15.7,14.6-10.489,0,0-1.3-10.442,32.914,6.405,0,0-8.19,2.934-6.548,5.58,0,0,28.027-8.383,34.341-4.2s55.551,13.538,76.5,8.71c0,0,28.9,12.783,56.214.394,0,0,10.758-5.074,9.421,6.031,0,0,5.317-8.179-4.011-11.748,0,0,36.771,8.341,34.92-10.984,0,0-8.232,15.664-38.472,1.25,0,0-21.594-7.983-24.934-13.284,0,0,18.254,9.541,31.3,11.6,0,0-31.457-13.088-32.687-22.053,0,0,20.822,11.32,25.862,6.05,0,0-18.6-4.2-28-15.614,0,0,13.963,6.087,23.253,6.226,0,0-26.223-10.033-25.113-19.25C419.464,232.476,405.355,235.743,393.943,232.9Z" transform="translate(419.697 417.792)" fill="none" stroke="#000" stroke-linecap="round" stroke-linejoin="round" stroke-width="0.3"/>
    <path id="Path_170" data-name="Path 170" d="M444.245,319.327s28.654-17.986,46.712-1.334c0,0-8.017-21.815-57.808-7.53,0,0,45.137-32.961,75.967-15.191,0,0-11.191-15.843-46.681-7.471,4.14-6.087,4.394-14.461-5.3-25.7,0,0-20.85,13.166-58.415,2.445,0,0-39.929,8.912-72.281-4.447-21.107-8.716-35.188.509-34.878,12.235a44.5,44.5,0,0,0-14.668-1.511c-29.169,1.7-41.725-14.285-48.312,26.047,0,0,8.391-36.061,36.363-18.218,0,0-36.2,7.205-24.5,54.4,0,0-10.151-50.455,42.584-45.851,0,0-21.949,4.31-13.826,33.09,0,0-3.692-27.088,17.3-23.406,0,0-13.709,12.833-.031,24.324,0,0-9.18-15.177,5.359-15.661,0,0,18.618,2.573,6.629,31.583,0,0,11.6-26.4,25.227-23.029,0,0-20.232,17.84-6.66,55.383,0,0-7.927-29.336,15.941-35.154,0,0-26.016,18.883,2.02,50.637,0,0-22.9-31.135,3.508-43.6,0,0-23.493,31.3,26.844,51.3,0,0-41.675-19.49-19.015-39.356,0,0-3.11,21.057,17.328,29.308,0,0,20.923-10.229,26.774-25.163,0,0-9.077,41.77-28.22,51.632,0,0,20.534-2.165,33.244-45.235,0,0,2.94,18.889-4.257,35.4,0,0,10.831-17.809,14.078-40.01,0,0,7.466,10.165,1.432,31.451,0,0,10.6-6.254,3.642-44.74,0,0,11.435,34.97,21.574,37.347,0,0-19.569-20.31-7.39-39.7,0,0,20.99,45.386,37.722,17.857,0,0-22.752,26.226-34.312-36.561,0,0,32.57,27.426,58.452,10.126-9.292,4.892-23.16,4.375-42.144-15.695" transform="translate(410.79 461.242)" fill="#f1e8c9"/>
    <path id="Path_171" data-name="Path 171" d="M444.245,319.327s28.654-17.986,46.712-1.334c0,0-8.017-21.815-57.808-7.53,0,0,45.137-32.961,75.967-15.191,0,0-11.191-15.843-46.681-7.471,4.14-6.087,4.394-14.461-5.3-25.7,0,0-20.85,13.166-58.415,2.445,0,0-39.929,8.912-72.281-4.447-21.107-8.716-35.188.509-34.878,12.235a44.5,44.5,0,0,0-14.668-1.511c-29.169,1.7-41.725-14.285-48.312,26.047,0,0,8.391-36.061,36.363-18.218,0,0-36.2,7.205-24.5,54.4,0,0-10.151-50.455,42.584-45.851,0,0-21.949,4.31-13.826,33.09,0,0-3.692-27.088,17.3-23.406,0,0-13.709,12.833-.031,24.324,0,0-9.18-15.177,5.359-15.661,0,0,18.618,2.573,6.629,31.583,0,0,11.6-26.4,25.227-23.029,0,0-20.232,17.84-6.66,55.383,0,0-7.927-29.336,15.941-35.154,0,0-26.016,18.883,2.02,50.637,0,0-22.9-31.135,3.508-43.6,0,0-23.493,31.3,26.844,51.3,0,0-41.675-19.49-19.015-39.356,0,0-3.11,21.057,17.328,29.308,0,0,20.923-10.229,26.774-25.163,0,0-9.077,41.77-28.22,51.632,0,0,20.534-2.165,33.244-45.235,0,0,2.94,18.889-4.257,35.4,0,0,10.831-17.809,14.078-40.01,0,0,7.466,10.165,1.432,31.451,0,0,10.6-6.254,3.642-44.74,0,0,11.435,34.97,21.574,37.347,0,0-19.569-20.31-7.39-39.7,0,0,20.99,45.386,37.722,17.857,0,0-22.752,26.226-34.312-36.561,0,0,32.57,27.426,58.452,10.126C477.1,339.914,463.229,339.4,444.245,319.327Z" transform="translate(410.79 461.242)" fill="none" stroke="#000" stroke-linecap="round" stroke-linejoin="round" stroke-width="0.3"/>
    <path id="Path_172" data-name="Path 172" d="M320.749,295.568c10.075-5.3,14.772-16.959,14.772-16.959-4.414,7.961-9.452,13.4-14.772,16.959" transform="translate(576.431 500.699)" fill="#f1e8c9"/>
    <path id="Path_173" data-name="Path 173" d="M320.749,295.568c10.075-5.3,14.772-16.959,14.772-16.959C331.107,286.57,326.069,292.013,320.749,295.568Z" transform="translate(576.431 500.699)" fill="none" stroke="#000" stroke-width="0.3"/>
    <path id="Path_174" data-name="Path 174" d="M268.953,254.457s-38.3-17.686-31.266,12.481c0,0,4.635-16.372,23.471-6.752,0,0-19.546,7.535-1.98,16.444,0,0-9.029-13.572,16.884-11.1s21.572-2.047,43.554,7.259,64.007-.3,64.007-.3,32.559,15.172,62.373-2.271c0,0,7.706,5.211,6.014,13.6,0,0,6.9-9.379,6.324-15.667,0,0,21.3,7.449,24.125-10.428" transform="translate(425.605 448.036)" fill="none" stroke="#000" stroke-linecap="round" stroke-linejoin="round" stroke-width="0.3"/>
    <path id="Path_175" data-name="Path 175" d="M302.009,240.657S300.4,218.422,319.944,219.3" transform="translate(542.694 394.073)" fill="none" stroke="#000" stroke-linecap="round" stroke-linejoin="round" stroke-width="0.3"/>
    <path id="Path_176" data-name="Path 176" d="M380.181,159.048c-.792,6.576-4.621,11.524-8.554,11.052s-6.481-6.187-5.689-12.763,4.621-11.524,8.554-11.051,6.481,6.187,5.689,12.763" transform="translate(657.382 262.838)" fill="#fff"/>
    <path id="Path_177" data-name="Path 177" d="M206.039,146.425c-.792,6.576-4.621,11.524-8.554,11.051S191,151.29,191.8,144.714s4.621-11.524,8.554-11.051,6.481,6.187,5.689,12.763" transform="translate(344.424 240.153)" fill="#fff"/>
    <path id="Path_178" data-name="Path 178" d="M458.629,155.446s34.732-6.436,74.966,20.117" transform="translate(824.22 278.125)" fill="none" stroke="#fff" stroke-linecap="round" stroke-linejoin="round" stroke-width="0.3"/>
  </g>
</svg>
