<svg id="Group_18" data-name="Group 18" xmlns="http://www.w3.org/2000/svg" xmlns:xlink="http://www.w3.org/1999/xlink" width="613.169" height="656.142" viewBox="0 0 613.169 656.142">
  <defs>
    <clipPath id="clip-path">
      <rect id="Rectangle_27" data-name="Rectangle 27" width="613.169" height="656.142" fill="none" stroke="#707070" stroke-width="2"/>
    </clipPath>
  </defs>
  <g id="Group_17" data-name="Group 17" clip-path="url(#clip-path)">
    <path id="Path_422" data-name="Path 422" d="M25.573,85.641s12.208-16.063,41.762,4.5L50.778,68.726,72.042,81.845S55.3,62.562,55.3,59.988c0,0,19.452-3.479,22.619,6.926,0,0,.454-16.738-6.333-17.191,0,0,23.524.9,35.287-19.452" transform="translate(431.903 57.783)" fill="none" stroke="#171716" stroke-width="2"/>
    <path id="Path_423" data-name="Path 423" d="M76.99,64.718l-11.7-4.907,1.955,4.311s-9-7.886-17.741-6.161" transform="translate(392.188 110.168)" fill="none" stroke="#171716" stroke-width="2"/>
    <path id="Path_424" data-name="Path 424" d="M57.109,65.742H66.5a2.883,2.883,0,0,0,0-5.765H57.109a2.883,2.883,0,1,0,0,5.765Z" transform="translate(386.056 114.487)" fill="none" stroke="#171716" stroke-width="2"/>
    <path id="Path_425" data-name="Path 425" d="M184.282,63.291s4.267,16.371-7.9,38.528c0,0,10.425,1.489,0,42.757s-9.556,45.18-9.556,45.18l-2.173-15.565s-9.559,16-7.819,29.03c0,0-3.91-10.425-3.91-14.335,0,0-7.386,44.122-15.638,51.941,0,0-2.173,16.074-9.992,29.106,0,0,2.17,39.1-10.862,72.111s-8.689,113.381-8.689,113.381-9.535-48.22-5.634-85.579c0,0-3.051,35.188-6.094,46.481,0,0-.867-34.316-4.343-46.481,0,0,2.173,51.693-6.516,79.5,0,0,1.737-71.677-3.043-89.922,0,0-4.776,30.307-15.2,47.083,0,0,15.638-55.771,10.859-81.4L54.652,269.89a37.467,37.467,0,0,0,29.653,18.7" transform="translate(269.188 120.813)" fill="none" stroke="#171716" stroke-width="2"/>
    <path id="Path_426" data-name="Path 426" d="M107.455,113.428a2.27,2.27,0,0,0-4.212-1.472c-3.386,5.885-9.279,15.344-14.989,20.682-8.718,8.142-11.717,14.57-11.717,14.57s14.57-9.858,24.856-22.285C105.381,120.1,106.983,116.291,107.455,113.428Z" transform="translate(283.048 211.526)" fill="none" stroke="#171716" stroke-width="2"/>
    <path id="Path_427" data-name="Path 427" d="M115.863,120.231s-4.715,31.715-43.714,33.859V129.231" transform="translate(287.435 229.504)" fill="none" stroke="#171716" stroke-width="2"/>
    <path id="Path_428" data-name="Path 428" d="M103.678,134.33a37.465,37.465,0,0,1-29.187,19.417" transform="translate(292.807 256.417)" fill="none" stroke="#171716" stroke-width="2"/>
    <path id="Path_429" data-name="Path 429" d="M101.061,56.591h8.485L97.829,69.154l5.858,5.28S89.344,80.9,79.244,92.126l9.294,2.851S77.563,99.162,68.3,113.119c0,0,7.708-2.79,16.6,8.375,0,0-9.7.7-14.544,6.283,0,0,6.463,16.749,16.159,16.749,0,0-9.7,5.582-16.159,3.488" transform="translate(304.937 108.024)" fill="none" stroke="#171716" stroke-width="2"/>
    <path id="Path_430" data-name="Path 430" d="M77.418,51.98a53.886,53.886,0,0,1,29.065-7.895A59.756,59.756,0,0,0,92.1,51.433" transform="translate(281.488 84.123)" fill="none" stroke="#171716" stroke-width="2"/>
    <path id="Path_431" data-name="Path 431" d="M83.75,60.8c0-6.682-.39-13.747-1.644-19.149,0,0,14,14.579,14.649,27.113,0,0,5.207-19.763,32.218-28.751,0,0-13.48,7.438-15.429,19.7" transform="translate(245.361 76.389)" fill="none" stroke="#171716" stroke-width="2"/>
    <path id="Path_432" data-name="Path 432" d="M24.578,58.876S34.579,13.5,56.093,13.5s52.866,6.257,86.242,26.791" transform="translate(399.341 25.777)" fill="none" stroke="#171716" stroke-width="2"/>
    <path id="Path_433" data-name="Path 433" d="M203.483,101.414s8.622,7.668,15.513,23.207a2.57,2.57,0,0,0,4.91-1.015c.18-14.783-3.4-41.184-27.364-62.636C161.189,29.318,102.959-13.66,48.194,5.055,27.774,12.034,14.431,39.083,5.725,70.263" transform="translate(372.604 0.954)" fill="none" stroke="#171716" stroke-width="2"/>
    <path id="Path_434" data-name="Path 434" d="M94.774,37.446S88.142,15.108,63.865,18.867" transform="translate(332.621 35.2)" fill="none" stroke="#171716" stroke-width="2"/>
    <path id="Path_435" data-name="Path 435" d="M91.615,31.135c-3-6.106-11.286-17.968-29.493-15.146" transform="translate(340.851 29.704)" fill="none" stroke="#171716" stroke-width="2"/>
    <path id="Path_436" data-name="Path 436" d="M82.3,26.506c-3.112-5.463-9.73-13.357-22.09-13.817" transform="translate(355.731 24.221)" fill="none" stroke="#171716" stroke-width="2"/>
    <path id="Path_437" data-name="Path 437" d="M75.386,24.015c-2.51-4.709-7.807-11.822-17.558-13.989" transform="translate(369.57 19.138)" fill="none" stroke="#171716" stroke-width="2"/>
    <path id="Path_438" data-name="Path 438" d="M67.93,23.913S64.8,13.354,54.948,7.978" transform="translate(385.403 15.229)" fill="none" stroke="#171716" stroke-width="2"/>
    <path id="Path_439" data-name="Path 439" d="M167.285,154.453s-54.079,18.591-86.186,0S.162,76.536.162,76.536" transform="translate(445.414 146.096)" fill="none" stroke="#171716" stroke-width="2"/>
    <path id="Path_440" data-name="Path 440" d="M44.819,153.9s58.96,111.54,92.26,157.119" transform="translate(345.718 293.771)" fill="none" stroke="#171716" stroke-width="2"/>
    <path id="Path_441" data-name="Path 441" d="M205.136,84.851s-12.592-15.76-41.637,5.518l16.025-21.814L158.591,82.192s16.263-19.687,16.2-22.259c0,0-19.533-3-22.445,7.476,0,0-.864-16.723,5.911-17.34,0,0-23.495,1.478-35.753-18.588" transform="translate(51.687 60.095)" fill="none" stroke="#171716" stroke-width="2"/>
    <path id="Path_442" data-name="Path 442" d="M153.187,74.6s-9.614,2.926-26.459-3.659-18.061-12.473-34.2-12.078-9.759-2.99-37.725-24.37-37.646.922-37.646.922S6.412,64.977,18.329,83.323s6.341,26.837,31.549,32.649,50.146.7,61.895,8.127,15.682,10.542,15.682,10.542l5.963,7.281c5.963,7.281,21.5,3.371,21.5,3.371a11.778,11.778,0,0,0,3.741,2.557,1.782,1.782,0,0,0,2.147-2.717c-6.411-8.066-12.918-20.522-18.262-21.511-6.763-1.251-23.393,14.4-23.393,14.4,5.579-3.683,8.933-11.56,8.933-11.56-.288-11.691,6.655-17.7,6.655-17.7a38.277,38.277,0,0,1,5.53-20.164c6.135-10.073,15.941-14.92,20.441-19.283s-2.394-10.929-2.394-10.929c.846-8.881,12.243-21.031,12.243-21.031L168.7,34.026c5.96-2.627,14.472-2.481,14.472-2.481l-.183-7.438c7.223,5.495,24.036,11.816,24.036,11.816l4.1-6.123a7.728,7.728,0,0,0,1.661,3.784c9.09,13,28.734,13.323,38.155.561a7.421,7.421,0,0,0,1.777-3.924l4.25,6.024s16.653-6.734,23.739-12.4v7.438s8.5-.352,14.527,2.126l-1.772,3.366S305.157,48.646,306.222,57.5c0,0-6.731,6.731-2.126,10.984s14.527,8.857,20.9,18.777a38.268,38.268,0,0,1,6.024,20.022s7.086,5.844,7.086,17.535c0,0,3.543,7.8,9.212,11.339,0,0-17.008-15.237-23.739-13.817-5.317,1.117-11.516,13.73-17.729,21.947a1.782,1.782,0,0,0,2.211,2.665,11.734,11.734,0,0,0,3.68-2.647s15.623,3.528,21.406-3.895l5.783-7.426s3.854-3.211,15.42-10.923,36.623-3.211,61.679-9.637,19.274-14.777,30.741-33.408,0-47.926,0-47.926-10.222-22.058-37.658,0-20.982,25.284-37.12,25.284-17.215,5.917-33.891,12.91-26.36,4.305-26.36,4.305" transform="translate(124.327 40.635)" fill="none" stroke="#171716" stroke-width="2"/>
    <path id="Path_443" data-name="Path 443" d="M116.871,65.738l11.58-5.2L126.6,64.9s8.808-8.1,17.584-6.591" transform="translate(129.023 110.949)" fill="none" stroke="#171716" stroke-width="2"/>
    <path id="Path_444" data-name="Path 444" d="M128.424,66.152l-9.384.23a2.882,2.882,0,0,1-.143-5.762l9.387-.23a2.882,2.882,0,0,1,.14,5.762Z" transform="translate(144.255 115.273)" fill="none" stroke="#171716" stroke-width="2"/>
    <path id="Path_445" data-name="Path 445" d="M100.017,63.777S96.152,80.25,108.855,102.1c0,0-9.817,4.648,1.614,45.649s10.658,44.933,10.658,44.933l1.789-15.615s3.686,5.538,6.987,9.876a43.743,43.743,0,0,1,7.7,16.485c3.011,12.741,8.255,31.747,13.733,36.687,0,0,2.566,16.016,10.7,28.853" transform="translate(161.806 121.741)" fill="none" stroke="#171716" stroke-width="2"/>
    <path id="Path_446" data-name="Path 446" d="M87.1,113.407a2.272,2.272,0,0,1,4.177-1.577c3.526,5.8,9.649,15.114,15.49,20.31,8.913,7.93,12.069,14.282,12.069,14.282s-14.809-9.5-25.394-21.674C89.332,120.03,87.636,116.257,87.1,113.407Z" transform="translate(241.12 211.379)" fill="none" stroke="#171716" stroke-width="2"/>
    <path id="Path_447" data-name="Path 447" d="M86.843,120.278s5.489,31.59,44.529,32.78l-.605-24.85" transform="translate(229.184 229.593)" fill="none" stroke="#171716" stroke-width="2"/>
    <path id="Path_448" data-name="Path 448" d="M102.231,56.881l-8.482.358L105.64,69.3l-5.783,5.53s14.431,5.858,24.685,16.653l-9.247,3.24s11.03,3.723,20.484,17.284c0,0-7.749-2.464-16.476,9.073,0,0,9.7.288,14.629,5.666,0,0-6.225,17.017-15.917,17.427,0,0,9.771,5.172,16.205,2.8,0,0-13.931,15.248-13.791,25.016,0,0,6.362-7.249,12.924-.547" transform="translate(204.688 108.578)" fill="none" stroke="#171716" stroke-width="2"/>
    <path id="Path_449" data-name="Path 449" d="M229.64,58.612S218.534,13.5,197.026,14.025s-52.7,7.546-85.561,28.891" transform="translate(59.294 26.763)" fill="none" stroke="#171716" stroke-width="2"/>
    <path id="Path_450" data-name="Path 450" d="M115.843,104.978s-8.433,7.88-14.943,23.582a2.571,2.571,0,0,1-4.933-.9c-.541-14.774,2.394-41.253,25.825-63.285,34.572-32.506,91.734-76.9,146.938-59.524C289.316,11.33,303.316,38.048,312.781,69" transform="translate(21.4 1.821)" fill="none" stroke="#171716" stroke-width="2"/>
    <path id="Path_451" data-name="Path 451" d="M102.293,38.134s6.082-22.494,30.447-19.326" transform="translate(182.874 35.317)" fill="none" stroke="#171716" stroke-width="2"/>
    <path id="Path_452" data-name="Path 452" d="M104.593,31.846c2.854-6.178,10.844-18.239,29.115-15.862" transform="translate(175.216 29.927)" fill="none" stroke="#171716" stroke-width="2"/>
    <path id="Path_453" data-name="Path 453" d="M109.123,27.229c2.979-5.536,9.4-13.59,21.747-14.355" transform="translate(164.877 24.575)" fill="none" stroke="#171716" stroke-width="2"/>
    <path id="Path_454" data-name="Path 454" d="M113.126,24.721c2.394-4.768,7.514-12.008,17.212-14.413" transform="translate(153.764 19.676)" fill="none" stroke="#171716" stroke-width="2"/>
    <path id="Path_455" data-name="Path 455" d="M117.628,24.618s2.874-10.632,12.59-16.249" transform="translate(140.789 15.975)" fill="none" stroke="#171716" stroke-width="2"/>
    <path id="Path_456" data-name="Path 456" d="M293.924,147.607s-24.135-14.312-63.442-25.65a77.728,77.728,0,0,1-34.813-21.168L181.188,85.54a8.261,8.261,0,0,0-14.169,4.5c-1.655,11.5-.189,29.49,14.55,52.581,8.351,13.09,25.467,22.5,45.058,29.243,0,0,40.389,17.3,52.621,35.788" transform="translate(-165.027 158.353)" fill="none" stroke="#262928" stroke-width="2"/>
    <path id="Path_457" data-name="Path 457" d="M242.116,127.584c-22.765-10.146-41.669-27.817-54.189-41.4" transform="translate(-175.599 164.515)" fill="none" stroke="#262928" stroke-width="2"/>
    <path id="Path_458" data-name="Path 458" d="M213.38,98.66a55.029,55.029,0,0,0-30.014,13.2s-10.033,2.234-10.382-1.917c0,0,.157,7.418,3.848,7.109,0,0-13.878-4.875-19.792,7.7l10.146-.849s-15.8-.07-16.941,25.106-.367,34.4-.367,34.4,11.106-6.039,21.031,12.636c0,0-1.341-.224-4.788,2.112s-7.964,2.717-10.565-1.164c0,0-3.235,13.017,7.4,31.241s22.465,42.722,22.465,42.722" transform="translate(-35.442 188.328)" fill="none" stroke="#262928" stroke-width="2"/>
    <path id="Path_459" data-name="Path 459" d="M166.766,159.08c-5.349-.582-9.995-4.087-12.607-6.487a2.463,2.463,0,0,0-3.936.852c-5.9,14.2,16.662,20.644,16.662,20.644l-.585-9.736" transform="translate(12.172 290.039)" fill="none" stroke="#262928" stroke-width="2"/>
    <path id="Path_460" data-name="Path 460" d="M148.886,159.192s8.06,17.133,26.372,16l-1.021-14.934" transform="translate(4.824 303.875)" fill="none" stroke="#262928" stroke-width="2"/>
    <path id="Path_461" data-name="Path 461" d="M176.133,100.333c11.92,7.732-3.793,13.206-3.793,13.206,11.656-2.112,14.37,3.121,14.37,3.121-7.063-.09-12.363,6.042-12.363,6.042,8.334-2.289,16.3,2.958,16.3,2.958-3.971,6.932-13.221,5.2-13.221,5.2,7.912,4.8,20.135,1.271,20.135,1.271-6.4,5.088-14.216,3.1-14.216,3.1,4.366,2.283,8.9,3.558,13.369,3.118,21.133-2.077,25.29,16.772,25.29,16.772" transform="translate(-110.152 191.521)" fill="none" stroke="#262928" stroke-width="2"/>
    <path id="Path_462" data-name="Path 462" d="M175.963,126.734c6.44,3.051,9.492,14.864,10.923,19.321.017.047.032.09.044.134a1.22,1.22,0,0,1-2.126,1.1,2.464,2.464,0,0,0-3.261-.663c-3.956,1.981-10.58,3.307-14.361-3.223,0,0-7.391-7.895-3.208-14.352" transform="translate(-47.066 241.917)" fill="none" stroke="#262928" stroke-width="2"/>
    <path id="Path_463" data-name="Path 463" d="M169.644,134.678l5.521-.462a2.256,2.256,0,1,0-.375-4.5l-5.524.462a2.256,2.256,0,0,0,.378,4.5Z" transform="translate(-50.422 247.598)" fill="none" stroke="#262928" stroke-width="2"/>
    <path id="Path_464" data-name="Path 464" d="M154.336,111.426c-10.542,5.623-37.414,21.014-46.388,36.23" transform="translate(144.829 212.696)" fill="none" stroke="#262928" stroke-width="2"/>
    <path id="Path_465" data-name="Path 465" d="M116.062,117.1s14.882-9.9,40.549-20.688" transform="translate(118.95 184.044)" fill="none" stroke="#262928" stroke-width="2"/>
    <path id="Path_466" data-name="Path 466" d="M160.689,283.292c6.513-2.595,12.217-6.234,15.879-11.321,14.824-20.595,14.018-43.816,14.018-43.816a48.835,48.835,0,0,0,3.229-36.39c-2.4,4.008-6.929,3.866-10.492,1.71s-4.89-1.862-4.89-1.862c8.948-19.166,20.35-13.709,20.35-13.709s.294-9.253-2.15-34.336-18.215-24.2-18.215-24.2l10.178.323c-6.557-12.249-20.164-6.661-20.164-6.661,3.7.119,3.473-7.3,3.473-7.3-.134,4.163-10.265,2.452-10.265,2.452C146.727,96.6,131.164,98.74,131.164,98.74l-7.3.067" transform="translate(54.074 188.181)" fill="none" stroke="#262928" stroke-width="2"/>
    <path id="Path_467" data-name="Path 467" d="M142.7,160.229c5.291-1.015,11.487-5.492,13.893-8.1a2.464,2.464,0,0,1,3.994.529c7.039,13.675-17.767,22.576-17.767,22.576" transform="translate(36.241 288.89)" fill="none" stroke="#262928" stroke-width="2"/>
    <path id="Path_468" data-name="Path 468" d="M165.451,158.574s-6.4,17.459-25.243,17.793" transform="translate(39.874 302.695)" fill="none" stroke="#262928" stroke-width="2"/>
    <path id="Path_469" data-name="Path 469" d="M134.909,108.866c6.655,4.75,10.937,2.912,10.937,2.912-4.241,2.507-5.283,3.459-9.771,3.252-21.214-.98-24.391,18.058-24.391,18.058" transform="translate(142.447 207.81)" fill="none" stroke="#262928" stroke-width="2"/>
    <path id="Path_470" data-name="Path 470" d="M133.8,124.849c-6.272,3.38-8.311,15.923-9.512,20.449l-.035.134a1.221,1.221,0,0,0,2.182.992,2.459,2.459,0,0,1,3.22-.832c4.058,1.774,10.74,2.755,14.175-3.962,0,0,6.973-8.267,2.464-14.5" transform="translate(104.065 238.319)" fill="none" stroke="#262928" stroke-width="2"/>
    <path id="Path_471" data-name="Path 471" d="M132.246,132.635l-5.538-.177a2.257,2.257,0,1,1,.143-4.512l5.538.177a2.257,2.257,0,0,1-.143,4.512Z" transform="translate(116.38 244.228)" fill="none" stroke="#262928" stroke-width="2"/>
    <path id="Path_472" data-name="Path 472" d="M223.727,158.805s-4.267,31.733-31.768,34.543c-26.514,2.714-34.322-32.146-34.979-35.334a.07.07,0,0,0-.134-.02c-.864,2.153-7.79,20.112-9.495,47.955A272.224,272.224,0,0,1,140.7,253.41c-5.533,22.861-9.468,61.549,11.144,100.548" transform="translate(-6.957 301.504)" fill="none" stroke="#262928" stroke-width="2"/>
    <path id="Path_473" data-name="Path 473" d="M170.439,128.8a22.713,22.713,0,0,0-13.619-1.713s10.838-.23,14.7,8.6c0,0-8.011-4.561-14.256-3.3l7.569,3.86s-8.241.131-10.772,1.8c0,0,16,1.306,18.285,7.49,0,0-7.738-1.309-13.881,1.164,0,0,10.164,3.142,12.025,8.764,0,0-7.9-1.379-12.991,2.787l7.234.753" transform="translate(-7.31 241.916)" fill="none" stroke="#262928" stroke-width="2"/>
    <path id="Path_474" data-name="Path 474" d="M147.3,129.819a22.729,22.729,0,0,1,13.253,3.587s-9.942-4.328-16.868,2.379c0,0,9.143-1.178,14.442,2.359l-8.465.7s7.572,3.246,9.279,5.757c0,0-15.3-4.869-19.76-.015,0,0,7.656,1.728,12.4,6.347,0,0-10.6-.951-14.454,3.543,0,0,7.834,1.725,10.961,7.511l-6.981-2.048" transform="translate(53.726 247.756)" fill="none" stroke="#262928" stroke-width="2"/>
    <path id="Path_475" data-name="Path 475" d="M158.376,154.652s-9.663-20.763-20.013-23.419c0,0,16.9,1.591,21.115,7.441a100.611,100.611,0,0,0-14.928-22.928s15.42,6.635,18.009,18.524c0,0,1.626-25.892,14.2-28.265,0,0-12.255,16.877-6.775,29.624,0,0,4.378-10.931,10.789-13.229,0,0-6.3,9.7-5.166,14.922,0,0,12.816-2.432,15.554-1.3,0,0-11.612,4.093-14.855,9.649" transform="translate(19.536 202.346)" fill="none" stroke="#262928" stroke-width="2"/>
    <path id="Path_476" data-name="Path 476" d="M126.44,153.848a381.8,381.8,0,0,0,7.514,54.241" transform="translate(111.42 293.674)" fill="none" stroke="#262928" stroke-width="2"/>
    <path id="Path_477" data-name="Path 477" d="M179.02,137.4s-52.572,1.414-78.975,31.032" transform="translate(143.132 262.267)" fill="none" stroke="#262928" stroke-width="2"/>
  </g>
</svg>
