<svg xmlns="http://www.w3.org/2000/svg" xmlns:xlink="http://www.w3.org/1999/xlink" width="110.806" height="110.806" viewBox="0 0 110.806 110.806">
  <defs>
    <clipPath id="clip-path">
      <rect id="Rectangle_78" data-name="Rectangle 78" width="110.806" height="110.806" fill="none"/>
    </clipPath>
  </defs>
  <g id="Group_126" data-name="Group 126" clip-path="url(#clip-path)">
    <path id="Path_853" data-name="Path 853" d="M58.738,68.607c.125,2.587-2.574,4.82-6.029,4.988s-6.358-1.794-6.484-4.382Z" fill="none" stroke="#121212" stroke-width="1.417"/>
    <line id="Line_17" data-name="Line 17" x2="3.218" y2="5.325" transform="translate(58.738 68.607)" fill="none" stroke="#121212" stroke-width="1.417"/>
    <line id="Line_18" data-name="Line 18" x2="4.856" y2="7.019" transform="translate(46.867 71.105)" fill="none" stroke="#121212" stroke-width="1.417"/>
    <path id="Path_854" data-name="Path 854" d="M36.823,84.2,67.408,71.729s4.74,2.075,4.74,10.376l-28.5,11.606" fill="none" stroke="#121212" stroke-width="1.417"/>
    <path id="Path_855" data-name="Path 855" d="M39.17,83.243s-7.134-6.449-3.447-15.558,2.906-8.621,1.833-11.983c0,0,2.94.851,2.933,7.012a1.8,1.8,0,0,0,3.463.676A12.185,12.185,0,0,0,43.26,52.4c-3.8-6.344-15.832-14.314-7.537-25.32a11,11,0,0,0,3.184,12.362S37.681,21.3,52.043,18.617C63.1,16.555,63.355,11.382,62.705,8.381c0,0,3.489,7.091-5.24,12.838S50.85,35.045,54.917,38.19s15.127,2.982,13.392,16.157c0,0-.542,4.988,2.819,4.609s-.7-10.465.705-16.971c0,0,2.494,6.669,7.1,10.031S80.725,65.137,77.2,68.607s-2.277,9.759,1.355,7.753,2.386-10.519,2.386-10.519,10.677,15.307-6.364,21.2" fill="none" stroke="#121212" stroke-width="1.417"/>
    <path id="Path_856" data-name="Path 856" d="M66.888,84.278l7.548,1.3L62.617,89.806l-5.964-1.3" fill="none" stroke="#121212" stroke-width="1.417"/>
    <path id="Path_857" data-name="Path 857" d="M74.436,85.577s1.193,4.826-3.307,7.048S63,92.3,62.616,89.806" fill="none" stroke="#121212" stroke-width="1.417"/>
    <line id="Line_19" data-name="Line 19" x1="14.478" y1="2.108" transform="translate(50.882 90.891)" fill="none" stroke="#121212" stroke-width="1.417"/>
    <path id="Path_858" data-name="Path 858" d="M41.311,88.018c2.019,2.57,3.064,5.119,2.334,5.693s-2.958-1.046-4.978-3.616S35.6,84.975,36.333,84.4,39.292,85.448,41.311,88.018Z" fill="none" stroke="#121212" stroke-width="1.417"/>
    <path id="Path_859" data-name="Path 859" d="M36.468,79.657H25.6s-3.364,5.92.3,11.841H39.989" fill="none" stroke="#121212" stroke-width="1.417"/>
    <path id="Path_860" data-name="Path 860" d="M83.6,79.657s3.363,5.92-.3,11.841H72.938" fill="none" stroke="#121212" stroke-width="1.417"/>
    <path id="Path_861" data-name="Path 861" d="M110.1,55.4A54.695,54.695,0,1,1,55.4.709,54.694,54.694,0,0,1,110.1,55.4Z" fill="none" stroke="#121212" stroke-width="1.417"/>
  </g>
</svg>
