<svg xmlns="http://www.w3.org/2000/svg" xmlns:xlink="http://www.w3.org/1999/xlink" width="903.399" height="665.546" viewBox="0 0 903.399 665.546">
  <defs>
    <clipPath id="clip-path">
      <rect id="Rectangle_20" data-name="Rectangle 20" width="822.046" height="438.219" fill="none" stroke="#707070" stroke-width="2"/>
    </clipPath>
  </defs>
  <g id="Group_138" data-name="Group 138" transform="translate(-1143.601 -4683.787)">
    <text id="Vezmeš_si_mě_" data-name="Vezmeš si mě?" transform="translate(1468 4730.308)" font-size="28" font-family="HelveticaNeue-Medium, Helvetica Neue" font-weight="500"><tspan x="0" y="27">Vezmeš si mě?</tspan></text>
    <g id="Group_6" data-name="Group 6" transform="matrix(0.978, -0.208, 0.208, 0.978, 1143.601, 4920.69)">
      <g id="Group_5" data-name="Group 5" clip-path="url(#clip-path)">
        <path id="Path_1" data-name="Path 1" d="M549.4,166.343a445.182,445.182,0,0,1,46.624-11.385c100.243-19.033,104.99,7.787,222.3-31.913M123.274,163.009s-19.16-13.879-36.81-6.707c0,0,21.316,12.716,24.762,25.663,0,0-.417,18.808,25.791,17.864,0,0,18.545,11.672,41.306,7.445l27.33,6.965a12.335,12.335,0,0,0-2.813,3.628,13.309,13.309,0,0,0-1.383,4.594,11.375,11.375,0,0,0-14.946,5.435,13.24,13.24,0,0,0-1.392,4.552l-.429-.058a11.278,11.278,0,0,0-16.49,2.725,13,13,0,0,0-1.9,4.375,11.245,11.245,0,0,0-15.464,3.376,13.066,13.066,0,0,0-1.9,4.372,11.244,11.244,0,0,0-15.461,3.376,13.061,13.061,0,0,0-1.908,4.375,11.241,11.241,0,0,0-15.461,3.376,13.006,13.006,0,0,0-1.9,4.372,11.246,11.246,0,0,0-15.464,3.376,13.066,13.066,0,0,0-1.9,4.372,11.248,11.248,0,0,0-15.464,3.376,13.115,13.115,0,0,0-1.9,4.375,11.241,11.241,0,0,0-15.461,3.376,13.073,13.073,0,0,0-1.908,4.372,11.245,11.245,0,0,0-15.461,3.376c-19.879-4.555-44.99,4.452-44.99,4.452S22.7,300.8,34.347,310.072c0,0,1.623,22.815,41.312,13.019s47.227-11.817,47.227-11.817,45.9-.048,75.085-22.161c0,0,17.531,6.272,52-12.683,0,0,12.975,5.892,52.422-15.258a12.748,12.748,0,0,0-4.274,7.522,13.43,13.43,0,0,0,.039,4.826c-5.96-.544-11.46,3.766-12.591,10.216a13.5,13.5,0,0,0,.036,4.826c-5.957-.544-11.457,3.769-12.591,10.216a13.587,13.587,0,0,0,.039,4.829c-5.96-.548-11.46,3.766-12.591,10.216a13.5,13.5,0,0,0,.039,4.826c-5.96-.548-11.46,3.766-12.591,10.216a13.432,13.432,0,0,0,.039,4.826c-5.96-.548-11.46,3.766-12.594,10.216a13.586,13.586,0,0,0,.039,4.829c-5.96-.548-11.457,3.766-12.591,10.212a13.587,13.587,0,0,0,.039,4.829c-5.96-.548-11.46,3.766-12.591,10.216a13.52,13.52,0,0,0,.015,4.791l-.426.09c-6.2-2.149-12.849,1.508-14.85,8.17a13.42,13.42,0,0,0-.525,4.794,11.116,11.116,0,0,0-4.343-.129s-25.491,8.267-30.488,42.632c0,0,20.182-11.588,32.9-10.1,0,0,9.22,12.358,33.376-8.292s42.827-56.765,42.827-56.765,60.547-34.768,109.037-87.392c0,0,17.474.515,48.742-17.419l39.327,65.663c7.57,12.635,22.687,17.29,35.338,10.879l18.137,11.582c-3.305-23.328-19.016-38.418-19.016-38.418a13.228,13.228,0,0,0-3.776-17.455,11.2,11.2,0,0,0-4.205-1.711,13.165,13.165,0,0,0-4.3-16.308,11.3,11.3,0,0,0-4.2-1.711,13.162,13.162,0,0,0-4.3-16.3,11.312,11.312,0,0,0-4.205-1.711,13.162,13.162,0,0,0-4.3-16.3,11.244,11.244,0,0,0-4.2-1.711,13.158,13.158,0,0,0-4.307-16.3,11.172,11.172,0,0,0-4.2-1.711s10.318-10.689,34.6-23.6m-23.341-88.562c-83.861,12.638-162.409,25.406-197.453,59.925M745.077.421S638.959,73.284,533.584,90.764q-1.269.213-2.543.419" transform="translate(3.267 0.935)" fill="none" stroke="#171716" stroke-width="2"/>
        <path id="Path_2" data-name="Path 2" d="M295.028,48.812c-5.7-3.4-12.879-1.192-16.04,4.926a13.276,13.276,0,0,0-1.38,4.6,11.376,11.376,0,0,0-14.949,5.432,13.259,13.259,0,0,0-1.38,4.594A11.375,11.375,0,0,0,246.335,73.8a13.239,13.239,0,0,0-1.38,4.594,11.375,11.375,0,0,0-14.946,5.435,13.242,13.242,0,0,0-1.38,4.594,11.374,11.374,0,0,0-14.945,5.435,13.239,13.239,0,0,0-1.38,4.594,11.374,11.374,0,0,0-14.949,5.432,13.321,13.321,0,0,0-1.38,4.6,11.371,11.371,0,0,0-14.946,5.432,13.239,13.239,0,0,0-1.38,4.594,11.375,11.375,0,0,0-14.946,5.435,13.261,13.261,0,0,0-1.392,4.552l-.429-.058a11.28,11.28,0,0,0-16.49,2.725,13.089,13.089,0,0,0-1.908,4.375,11.241,11.241,0,0,0-15.461,3.376,13.007,13.007,0,0,0-1.9,4.372,11.251,11.251,0,0,0-15.464,3.376,13.053,13.053,0,0,0-1.9,4.375,11.246,11.246,0,0,0-15.464,3.376,13.127,13.127,0,0,0-1.9,4.372,11.244,11.244,0,0,0-15.461,3.376,13.006,13.006,0,0,0-1.9,4.372,11.249,11.249,0,0,0-15.464,3.379,12.951,12.951,0,0,0-1.9,4.372,11.246,11.246,0,0,0-15.464,3.376,13.126,13.126,0,0,0-1.9,4.372A11.244,11.244,0,0,0,24.818,185.4a13.354,13.354,0,0,0-2.148,9.423s.723,13.634-10.129,11.289" transform="translate(25.075 104.894)" fill="none" stroke="#171716" stroke-width="2"/>
        <path id="Path_3" data-name="Path 3" d="M200.186,54.4a11.32,11.32,0,0,0-16.31-3.772,12.154,12.154,0,0,0-3.233,3.354,11.22,11.22,0,0,0-15.566-2.771,12.241,12.241,0,0,0-3.233,3.354,11.22,11.22,0,0,0-15.566-2.771,12.207,12.207,0,0,0-3.233,3.357,11.217,11.217,0,0,0-15.566-2.774,12.2,12.2,0,0,0-3.23,3.357,11.221,11.221,0,0,0-15.566-2.774,12.166,12.166,0,0,0-3.233,3.357,11.217,11.217,0,0,0-15.566-2.771A12.11,12.11,0,0,0,86.648,56.9a11.217,11.217,0,0,0-15.566-2.771,12.2,12.2,0,0,0-3.233,3.354,11.217,11.217,0,0,0-15.566-2.771,12.683,12.683,0,0,0-5.135,7.977s.372,9.23-9.37,10.828" transform="translate(75.528 107.967)" fill="none" stroke="#171716" stroke-width="2"/>
        <path id="Path_4" data-name="Path 4" d="M22.636,89.062s-6.011,36.018,8.134,28.273" transform="translate(42.719 197.861)" fill="none" stroke="#171716" stroke-width="2"/>
        <path id="Path_5" data-name="Path 5" d="M28.52,86.428s-6.011,36.018,8.134,28.273" transform="translate(54.483 192.009)" fill="none" stroke="#171716" stroke-width="2"/>
        <path id="Path_6" data-name="Path 6" d="M34.4,83.795s-6.011,36.018,8.134,28.273" transform="translate(66.247 186.159)" fill="none" stroke="#171716" stroke-width="2"/>
        <path id="Path_7" data-name="Path 7" d="M40.288,81.162s-6.011,36.018,8.134,28.273" transform="translate(78.011 180.31)" fill="none" stroke="#171716" stroke-width="2"/>
        <path id="Path_8" data-name="Path 8" d="M53.189,50.832s-16.145,20.657-.9,21.714" transform="translate(91.446 112.929)" fill="none" stroke="#171716" stroke-width="2"/>
        <path id="Path_9" data-name="Path 9" d="M59.417,50.8s-16.145,20.657-.9,21.714" transform="translate(103.898 112.866)" fill="none" stroke="#171716" stroke-width="2"/>
        <path id="Path_10" data-name="Path 10" d="M65.454,50.79s-16.145,20.657-.9,21.714" transform="translate(115.968 112.835)" fill="none" stroke="#171716" stroke-width="2"/>
        <path id="Path_11" data-name="Path 11" d="M71.736,50.6s-16.148,20.657-.9,21.714" transform="translate(128.522 112.411)" fill="none" stroke="#171716" stroke-width="2"/>
        <path id="Path_12" data-name="Path 12" d="M78.047,50.432s-16.145,20.657-.9,21.714" transform="translate(141.145 112.04)" fill="none" stroke="#171716" stroke-width="2"/>
        <path id="Path_13" data-name="Path 13" d="M84.3,50.244S68.15,70.9,83.4,71.958" transform="translate(153.637 111.622)" fill="none" stroke="#171716" stroke-width="2"/>
        <path id="Path_14" data-name="Path 14" d="M90.662,49.935s-16.145,20.657-.9,21.714" transform="translate(166.366 110.936)" fill="none" stroke="#171716" stroke-width="2"/>
        <path id="Path_15" data-name="Path 15" d="M46.172,78.529s-6.011,36.018,8.134,28.273" transform="translate(89.775 174.46)" fill="none" stroke="#171716" stroke-width="2"/>
        <path id="Path_16" data-name="Path 16" d="M52.056,75.9s-6.011,36.018,8.134,28.273" transform="translate(101.539 168.611)" fill="none" stroke="#171716" stroke-width="2"/>
        <path id="Path_17" data-name="Path 17" d="M57.94,73.263s-6.011,36.018,8.134,28.273" transform="translate(113.303 162.761)" fill="none" stroke="#171716" stroke-width="2"/>
        <path id="Path_18" data-name="Path 18" d="M63.763,71.916s-6.011,36.018,8.134,28.273" transform="translate(124.944 159.769)" fill="none" stroke="#171716" stroke-width="2"/>
        <path id="Path_19" data-name="Path 19" d="M69.229,68.856s-6.011,36.018,8.134,28.273" transform="translate(135.873 152.971)" fill="none" stroke="#171716" stroke-width="2"/>
        <path id="Path_20" data-name="Path 20" d="M74.695,65.8s-6.011,36.018,8.134,28.273" transform="translate(146.801 146.173)" fill="none" stroke="#171716" stroke-width="2"/>
        <path id="Path_21" data-name="Path 21" d="M80.161,62.736S74.15,98.754,88.295,91.009" transform="translate(157.729 139.375)" fill="none" stroke="#171716" stroke-width="2"/>
        <path id="Path_22" data-name="Path 22" d="M85.627,59.676s-6.011,36.018,8.134,28.273" transform="translate(168.657 132.576)" fill="none" stroke="#171716" stroke-width="2"/>
        <path id="Path_23" data-name="Path 23" d="M91.092,56.616s-6.011,36.018,8.134,28.273" transform="translate(179.583 125.778)" fill="none" stroke="#171716" stroke-width="2"/>
        <path id="Path_24" data-name="Path 24" d="M96.558,53.555s-6.011,36.018,8.134,28.273" transform="translate(190.512 118.978)" fill="none" stroke="#171716" stroke-width="2"/>
        <path id="Path_25" data-name="Path 25" d="M102.024,50.5s-6.011,36.018,8.134,28.273" transform="translate(201.44 112.18)" fill="none" stroke="#171716" stroke-width="2"/>
        <path id="Path_26" data-name="Path 26" d="M107.49,47.435s-6.011,36.018,8.134,28.273" transform="translate(212.368 105.382)" fill="none" stroke="#171716" stroke-width="2"/>
        <path id="Path_27" data-name="Path 27" d="M72.642,117.9s10.276,12.819,8.209,20.573-10.594,10.126-10.594,10.126" transform="translate(140.467 261.916)" fill="none" stroke="#171716" stroke-width="2"/>
        <path id="Path_28" data-name="Path 28" d="M76.823,113.181S87.1,126,85.033,133.754,74.439,143.88,74.439,143.88" transform="translate(148.826 251.443)" fill="none" stroke="#171716" stroke-width="2"/>
        <path id="Path_29" data-name="Path 29" d="M81,108.467s10.276,12.819,8.209,20.573S78.62,139.166,78.62,139.166" transform="translate(157.185 240.971)" fill="none" stroke="#171716" stroke-width="2"/>
        <path id="Path_30" data-name="Path 30" d="M85.186,103.753s10.276,12.819,8.209,20.573S82.8,134.452,82.8,134.452" transform="translate(165.546 230.498)" fill="none" stroke="#171716" stroke-width="2"/>
        <path id="Path_31" data-name="Path 31" d="M89.367,99.039s10.276,12.819,8.209,20.573-10.594,10.125-10.594,10.125" transform="translate(173.905 220.025)" fill="none" stroke="#171716" stroke-width="2"/>
        <path id="Path_32" data-name="Path 32" d="M93.551,94.325s10.273,12.819,8.209,20.573-10.6,10.126-10.6,10.126" transform="translate(182.264 209.553)" fill="none" stroke="#171716" stroke-width="2"/>
        <path id="Path_33" data-name="Path 33" d="M97.73,89.611s10.276,12.819,8.209,20.573S95.346,120.31,95.346,120.31" transform="translate(190.626 199.08)" fill="none" stroke="#171716" stroke-width="2"/>
        <path id="Path_34" data-name="Path 34" d="M101.911,84.9s10.276,12.819,8.209,20.573S99.527,115.6,99.527,115.6" transform="translate(198.985 188.608)" fill="none" stroke="#171716" stroke-width="2"/>
        <path id="Path_35" data-name="Path 35" d="M111.9,110.747s8.53-2.371,10.594-10.126-8.209-20.573-8.209-20.573S99.66,83.4,100.524,96.62" transform="translate(200.903 177.835)" fill="none" stroke="#171716" stroke-width="2"/>
        <path id="Path_36" data-name="Path 36" d="M116.654,105.8s8.53-2.371,10.594-10.125S119.038,75.1,119.038,75.1s-14.622,3.357-13.758,16.572" transform="translate(210.414 166.845)" fill="none" stroke="#171716" stroke-width="2"/>
        <path id="Path_37" data-name="Path 37" d="M121.411,100.853s8.53-2.371,10.594-10.126S123.8,70.154,123.8,70.154s-14.622,3.357-13.758,16.572" transform="translate(219.925 155.854)" fill="none" stroke="#171716" stroke-width="2"/>
        <path id="Path_38" data-name="Path 38" d="M126.168,95.906s8.53-2.371,10.594-10.125-8.209-20.573-8.209-20.573-14.622,3.357-13.758,16.572" transform="translate(229.435 144.864)" fill="none" stroke="#171716" stroke-width="2"/>
        <path id="Path_39" data-name="Path 39" d="M130.925,90.959s8.53-2.371,10.594-10.125-8.209-20.573-8.209-20.573-14.622,3.357-13.758,16.572" transform="translate(238.946 133.874)" fill="none" stroke="#171716" stroke-width="2"/>
        <path id="Path_40" data-name="Path 40" d="M135.684,86.012s8.527-2.371,10.591-10.126-8.209-20.573-8.209-20.573-14.622,3.357-13.758,16.572" transform="translate(248.455 122.884)" fill="none" stroke="#171716" stroke-width="2"/>
        <path id="Path_41" data-name="Path 41" d="M67.216,121.918s16.559,25.354-1.935,32.4" transform="translate(130.517 270.854)" fill="none" stroke="#171716" stroke-width="2"/>
        <path id="Path_42" data-name="Path 42" d="M117.874,85.582c-6.625-1.83-5.81-23.205-5.138-32.451a10.547,10.547,0,0,1,5.684-8.943c3.137-1.453,7.846-2.126,14.6.238" transform="translate(224.512 95.241)" fill="none" stroke="#171716" stroke-width="2"/>
        <path id="Path_43" data-name="Path 43" d="M124.645,84.167c-6.625-1.827-5.81-23.205-5.138-32.451a10.547,10.547,0,0,1,5.684-8.943c3.137-1.453,7.846-2.126,14.6.238" transform="translate(238.049 92.097)" fill="none" stroke="#171716" stroke-width="2"/>
        <path id="Path_44" data-name="Path 44" d="M131.417,82.753c-6.625-1.83-5.81-23.205-5.138-32.451a10.547,10.547,0,0,1,5.684-8.943c3.137-1.453,7.846-2.126,14.6.238" transform="translate(251.588 88.956)" fill="none" stroke="#171716" stroke-width="2"/>
        <path id="Path_45" data-name="Path 45" d="M138.189,81.338c-6.625-1.83-5.81-23.205-5.138-32.451a10.547,10.547,0,0,1,5.684-8.943c3.137-1.453,7.846-2.126,14.6.238" transform="translate(265.128 85.812)" fill="none" stroke="#171716" stroke-width="2"/>
        <path id="Path_46" data-name="Path 46" d="M144.96,79.923c-6.625-1.83-5.81-23.205-5.138-32.451a10.547,10.547,0,0,1,5.684-8.943c3.137-1.453,7.846-2.126,14.6.238l1.518.709" transform="translate(278.665 82.669)" fill="none" stroke="#171716" stroke-width="2"/>
        <path id="Path_47" data-name="Path 47" d="M151.764,78.965c-6.625-1.827-5.81-23.2-5.138-32.451a10.555,10.555,0,0,1,5.684-8.943c3.137-1.45,7.846-2.123,14.6.242l1.647.506" transform="translate(292.268 80.547)" fill="none" stroke="#171716" stroke-width="2"/>
        <path id="Path_48" data-name="Path 48" d="M158.557,77.858c-6.625-1.83-5.81-23.205-5.138-32.451a10.547,10.547,0,0,1,5.684-8.943,15.886,15.886,0,0,1,8.641-1.182" transform="translate(305.85 78.083)" fill="none" stroke="#171716" stroke-width="2"/>
        <path id="Path_49" data-name="Path 49" d="M178.388,30.672a28.228,28.228,0,0,1,5.381,1.347" transform="translate(356.652 68.141)" fill="none" stroke="#171716" stroke-width="2"/>
        <path id="Path_50" data-name="Path 50" d="M185.556,71.916c-6.625-1.83-5.81-23.205-5.138-32.451a10.547,10.547,0,0,1,5.684-8.943c3.137-1.453,7.846-2.126,14.6.238" transform="translate(359.829 64.88)" fill="none" stroke="#171716" stroke-width="2"/>
        <path id="Path_51" data-name="Path 51" d="M192.319,70.385c-6.625-1.83-5.81-23.205-5.138-32.451a10.547,10.547,0,0,1,5.684-8.943c3.137-1.453,7.846-2.126,14.6.238" transform="translate(373.35 61.479)" fill="none" stroke="#171716" stroke-width="2"/>
        <path id="Path_52" data-name="Path 52" d="M199.082,68.853c-6.625-1.83-5.81-23.205-5.138-32.451a10.547,10.547,0,0,1,5.684-8.943c3.137-1.453,7.846-2.126,14.6.238" transform="translate(386.871 58.075)" fill="none" stroke="#171716" stroke-width="2"/>
        <path id="Path_53" data-name="Path 53" d="M205.806,66.766c-6.625-1.83-5.81-23.205-5.138-32.451a10.547,10.547,0,0,1,5.684-8.943c3.137-1.453,7.846-2.126,14.6.238" transform="translate(400.315 53.439)" fill="none" stroke="#171716" stroke-width="2"/>
        <path id="Path_54" data-name="Path 54" d="M212.531,64.68c-6.626-1.83-5.81-23.205-5.138-32.451a10.547,10.547,0,0,1,5.684-8.943c3.137-1.453,7.846-2.126,14.6.238" transform="translate(413.76 48.805)" fill="none" stroke="#171716" stroke-width="2"/>
        <path id="Path_55" data-name="Path 55" d="M219.255,62.593c-6.625-1.83-5.81-23.205-5.138-32.451A10.547,10.547,0,0,1,219.8,21.2c3.137-1.453,7.846-2.126,14.6.238" transform="translate(427.203 44.168)" fill="none" stroke="#171716" stroke-width="2"/>
        <path id="Path_56" data-name="Path 56" d="M225.912,59.541c-6.625-1.83-5.81-23.205-5.138-32.451a10.547,10.547,0,0,1,5.684-8.943c3.137-1.453,7.846-2.126,14.6.238" transform="translate(440.513 37.388)" fill="none" stroke="#171716" stroke-width="2"/>
        <path id="Path_57" data-name="Path 57" d="M149.368,88.7s20-9.613,22.063-16.752" transform="translate(298.632 159.844)" fill="none" stroke="#171716" stroke-width="2"/>
        <path id="Path_58" data-name="Path 58" d="M152.46,93.709s20-9.613,22.063-16.752" transform="translate(304.814 170.968)" fill="none" stroke="#171716" stroke-width="2"/>
        <path id="Path_59" data-name="Path 59" d="M155.551,97.616s19.124-8.022,21.184-15.158" transform="translate(310.994 183.189)" fill="none" stroke="#171716" stroke-width="2"/>
        <path id="Path_60" data-name="Path 60" d="M158.846,101.792s17.354-6.2,19.415-13.341" transform="translate(317.581 196.503)" fill="none" stroke="#171716" stroke-width="2"/>
        <path id="Path_61" data-name="Path 61" d="M172.847,94.676l-2.286,1.962c-7.885,6.775-6.5,20.28,2.735,24.674l.429.2" transform="translate(330.721 210.333)" fill="none" stroke="#171716" stroke-width="2"/>
        <path id="Path_62" data-name="Path 62" d="M239.211,127.814c.2,22.329-4.49,38.321-13.353,40.6-13.953,3.579-32.968-28.179-42.473-70.933s-5.9-80.315,8.053-83.894c10.09-2.587,22.831,13.308,32.7,38.482" transform="translate(356.03 29.564)" fill="none" stroke="#171716" stroke-width="2"/>
        <path id="Path_63" data-name="Path 63" d="M232.261,13.393,171.018,25.841c-13.953,3.579-17.558,41.14-8.053,83.894s28.52,74.512,42.47,70.933l61.246-12.448" transform="translate(315.205 29.754)" fill="none" stroke="#171716" stroke-width="2"/>
      </g>
    </g>
    <path id="Path_94" data-name="Path 94" d="M-8443.517-4025.764s7.88,66.251,122.959,24.478,94.6-131.817,272.956-114.007" transform="translate(10020 8802.309)" fill="none" stroke="#000" stroke-width="2"/>
  </g>
</svg>
