<svg xmlns="http://www.w3.org/2000/svg" xmlns:xlink="http://www.w3.org/1999/xlink" width="110.806" height="110.806" viewBox="0 0 110.806 110.806">
  <defs>
    <clipPath id="clip-path">
      <rect id="Rectangle_71" data-name="Rectangle 71" width="110.806" height="110.806" fill="none"/>
    </clipPath>
  </defs>
  <g id="Group_86" data-name="Group 86" opacity="0.998">
    <g id="Group_85" data-name="Group 85" clip-path="url(#clip-path)">
      <path id="Path_818" data-name="Path 818" d="M110.1,55.4A54.695,54.695,0,1,1,55.4.709,54.694,54.694,0,0,1,110.1,55.4Z" fill="none" stroke="#121212" stroke-width="1.417"/>
      <path id="Path_819" data-name="Path 819" d="M55.4,110.1c4.282-5.045,3.569-7.393,2.291-13.557-1.283-6.187-9.823-11.794-9.909-11.85a.075.075,0,0,1-.032-.044m9.461-52.152h0Z" fill="none" stroke="#121212" stroke-width="1.417"/>
      <path id="Path_820" data-name="Path 820" d="M33.6,67.432s2.257.963,1.307,2.743S27.483,84.608,40.25,90.859c4.491,2.2,7.91-4.6,7.575-6.232" fill="none" stroke="#121212" stroke-width="1.417"/>
      <path id="Path_821" data-name="Path 821" d="M53.606,64.716c.705-.461.754-1,.024-1.945" fill="none" stroke="#121212" stroke-width="1.417"/>
      <path id="Path_822" data-name="Path 822" d="M21.03,70.417s1.533,1.515,5.935,0c4.161-1.432,9.759-6.35,16.092-2.191" fill="none" stroke="#121212" stroke-width="1.417"/>
      <path id="Path_823" data-name="Path 823" d="M28.453,54.2s-9.866,5.764-8.7,16.16a.8.8,0,0,0,1.408.434c2.9-3.645,11.97-12.272,30.479-7.889,0,0,3.658,1.238,1.067-1.438-1.572-1.624-5.278-5.6-10.128-7.712" fill="none" stroke="#121212" stroke-width="1.417"/>
      <path id="Path_824" data-name="Path 824" d="M27.7,54.7s-1.107-2.4,1.683-6.3c1.633-2.287,1.418-7.441.436-12.292a1.412,1.412,0,0,1,2.68-.84l.045.113s.161-2.771.258-6.017a1.75,1.75,0,0,1,3.439-.4c.008.03.015.06.023.09,0,0,.181-.669.407-1.664a1.583,1.583,0,0,1,3.126.288v.074a55.392,55.392,0,0,0,1.516-5.388,2.164,2.164,0,0,1,4.243.134c0,.016.005.032.007.046v0a1.781,1.781,0,0,1,3.526.109c0,.027.005.053.007.079,0,0,.229-.524.569-1.335a2.229,2.229,0,0,1,4.277,1.042c0,.036-.007.072-.01.107,0,0,2.756-3.639,4.629-6.546a1.214,1.214,0,0,1,2.232.589c.1,1.566.036,3.173-.538,3.911a19.047,19.047,0,0,1,2.358-2.246A3.553,3.553,0,0,1,68.1,19.787c1.206,3.129,1.23,7.883-7.1,11.125-13.39,5.208-15.153,7.1-17.668,20.458,0,0-2.045,10.415-5.393,4.278,0,0-3.979-3.2-7.179.481C29.765,57.271,30.071,52.813,27.7,54.7Z" fill="none" stroke="#121212" stroke-width="1.417"/>
      <path id="Path_825" data-name="Path 825" d="M44.2,64.1c-.845,2.069-.139,19.846,7.786,23.5,0,0,6.4,7.315,12.192,0,4.826-6.1,3.512-11.319-1.91-15.183a40.294,40.294,0,0,1-7.8-7.079l-.537-.652s-6.054-.2-8.464-1.146A.991.991,0,0,0,44.2,64.1Z" fill="none" stroke="#121212" stroke-width="1.417"/>
      <path id="Path_826" data-name="Path 826" d="M58.686,47.114a4.362,4.362,0,1,0,4.362,4.361A4.366,4.366,0,0,0,58.686,47.114Z" fill="none" stroke="#121212" stroke-width="1.417"/>
      <circle id="Ellipse_9" data-name="Ellipse 9" cx="1.73" cy="1.73" r="1.73" transform="translate(56.809 49.745)" fill="none" stroke="#121212" stroke-width="1.417"/>
      <path id="Path_827" data-name="Path 827" d="M61,30.912s13.717-3.447,26.858,15.069,20.576,22.86,20.576,22.86" fill="none" stroke="#121212" stroke-width="1.417"/>
    </g>
  </g>
</svg>
