<svg id="Group_84" data-name="Group 84" xmlns="http://www.w3.org/2000/svg" xmlns:xlink="http://www.w3.org/1999/xlink" width="109.528" height="109.528" viewBox="0 0 109.528 109.528">
  <defs>
    <clipPath id="clip-path">
      <rect id="Rectangle_70" data-name="Rectangle 70" width="109.528" height="109.528" fill="none" stroke="#fff" stroke-width="1"/>
    </clipPath>
  </defs>
  <g id="Group_83" data-name="Group 83" clip-path="url(#clip-path)">
    <path id="Path_817" data-name="Path 817" d="M93.814,92.14,76.83,74.006a3.554,3.554,0,0,0-2.067-1.084,3.663,3.663,0,0,1-2.145-1.091,1.065,1.065,0,0,1,.13-1.576l5-3.814a6.56,6.56,0,0,0,.441-10.065C65.143,44.362,52.224,18.909,52.224,18.909s5.867,20.608,24.784,39.253a4.377,4.377,0,0,1-.449,6.488l-2.016,1.667a1.929,1.929,0,0,1-2.678-.21C67,60.6,49.269,39.831,43.678,23.7c0,0,3.375,18.316,26.233,43.606a1.862,1.862,0,0,1-.264,2.736l-2.952,2.215a1.859,1.859,0,0,1-2.431-.169c-4.92-4.907-24.281-24.82-30.939-40.765,0,0,4.49,18.028,28.791,41.812a1.931,1.931,0,0,1-.132,2.877l-1.757,1.429a6.374,6.374,0,0,1-8.64-.55c-7.742-8.14-22.125-25.468-27.9-39.294,0,0,3.674,17.715,26.119,40.082l.863.814a8.165,8.165,0,0,0,10.552.551l6.231-4.752a1.066,1.066,0,0,1,1.422.117l.51.543a3.546,3.546,0,0,1,.951,2.137l.005.061a3.547,3.547,0,0,0,.947,2.132l16.859,18" fill="none" stroke="#fff" stroke-width="1.417"/>
    <circle id="Ellipse_8" data-name="Ellipse 8" cx="54.055" cy="54.055" r="54.055" transform="translate(0.709 0.709)" fill="none" stroke="#fff" stroke-width="1.417"/>
  </g>
</svg>
