<svg id="Group_28" data-name="Group 28" xmlns="http://www.w3.org/2000/svg" xmlns:xlink="http://www.w3.org/1999/xlink" width="531.845" height="595" viewBox="0 0 531.845 595">
  <defs>
    <clipPath id="clip-path">
      <rect id="Rectangle_32" data-name="Rectangle 32" width="531.845" height="595" fill="none" stroke="#707070" stroke-width="2"/>
    </clipPath>
  </defs>
  <g id="Group_27" data-name="Group 27" clip-path="url(#clip-path)">
    <path id="Path_550" data-name="Path 550" d="M530.342,556.7,314.657,326.418a20.982,20.982,0,0,0-12.22-6.411,21.652,21.652,0,0,1-12.679-6.45,6.294,6.294,0,0,1,.77-9.317L320.1,281.688a38.781,38.781,0,0,0,2.6-59.5C245.567,151.158,171.779,4.659,171.779,4.659s32.093,117.858,143.935,228.084c10.878,10.722,9.257,28.8-2.655,38.357l-11.919,9.859a11.413,11.413,0,0,1-15.833-1.239C256.529,247.129,151.716,124.372,118.66,29.007c0,0,19.955,108.282,155.093,257.8a11.007,11.007,0,0,1-1.561,16.176L254.74,316.074a10.991,10.991,0,0,1-14.37-1C211.281,286.067,96.82,168.339,57.455,74.073c0,0,26.548,106.581,170.212,247.2a11.413,11.413,0,0,1-.777,17.007L216.5,346.724a37.68,37.68,0,0,1-51.078-3.25C119.651,295.349,34.621,192.9.489,111.166c0,0,21.724,104.729,154.414,236.965l5.1,4.81a48.271,48.271,0,0,0,62.383,3.259l36.84-28.092a6.294,6.294,0,0,1,8.4.693l3.019,3.208a20.988,20.988,0,0,1,5.622,12.632l.03.364a20.979,20.979,0,0,0,5.594,12.6L497.682,587.992" transform="translate(0.652 6.21)" fill="none" stroke="#171716" stroke-width="2"/>
    <path id="Path_551" data-name="Path 551" d="M171.508,162.387l16.332,25.972c7.579,14.354-8.517,29.595-22.435,21.243L139.97,194.34" transform="translate(186.56 216.439)" fill="none" stroke="#171716" stroke-width="2"/>
    <path id="Path_552" data-name="Path 552" d="M162.085,178.336a5.81,5.81,0,1,1-5.809-5.809A5.809,5.809,0,0,1,162.085,178.336Z" transform="translate(200.548 229.954)" fill="none" stroke="#171716" stroke-width="2"/>
  </g>
</svg>
