<svg id="Group_32" data-name="Group 32" xmlns="http://www.w3.org/2000/svg" xmlns:xlink="http://www.w3.org/1999/xlink" width="462.914" height="354.292" viewBox="0 0 462.914 354.292">
  <defs>
    <clipPath id="clip-path">
      <rect id="Rectangle_39" data-name="Rectangle 39" width="462.914" height="354.292" fill="none" stroke="#fff" stroke-width="2"/>
    </clipPath>
  </defs>
  <g id="Group_31" data-name="Group 31" clip-path="url(#clip-path)">
    <path id="Path_584" data-name="Path 584" d="M85.218,81.512q-3.366-2.163-6.729-4.334L72.674,73.47c-1.794-1.09-3.59-2.189-5.312-3.076a50.307,50.307,0,0,0-9.783-4.164,24.685,24.685,0,0,0-8.534-1.016,30.143,30.143,0,0,0-9.11,2.192l-2.491,1.044L35,69.666a1.1,1.1,0,0,0-.294.14,14.426,14.426,0,0,0-5.029,19.817c7.828,13.288,24.549,30.037,20.182,35.132-2.546,2.969-20.245-10.278-35.59-22.742C-1.52,89.189-4.245,65.826,8.777,50.192c.222-.266.434-.514.634-.733a39.829,39.829,0,0,1,8.737-7.542L22.054,39.5l4.073-2.173a63.072,63.072,0,0,1,18.836-5.982,59.313,59.313,0,0,1,20.5.681A84.167,84.167,0,0,1,83.073,37.9c2.7,1.176,5.164,2.455,7.625,3.733l6.792,3.7q4.894,2.694,9.781,5.4" transform="translate(0.874 53.717)" fill="none" stroke="#fff" stroke-width="2"/>
    <path id="Path_585" data-name="Path 585" d="M62.612,116.771a46,46,0,0,0,10.769-6.737A50.877,50.877,0,0,0,80.509,103l1.579-1.945,1.574-2.167c1.379-2.011,2.793-4,4.216-5.974,5.644-7.951,11.464-15.782,17.155-23.7,5.735-7.888,11.4-15.823,16.8-23.945l2.041-3.032c.711-1.041,1.25-1.9,2.291-3.3,1.914-2.532,3.669-5.2,5.812-7.561,2.195-2.315,4.233-4.8,6.65-6.908l3.628-3.161a35.865,35.865,0,0,1,3.755-3.008,85.36,85.36,0,0,1,16.6-9.789,68.813,68.813,0,0,1,9-3.54L176.239,3.5c1.56-.417,3.15-.72,4.732-1.068a88.469,88.469,0,0,1,38.875.467,86.79,86.79,0,0,1,35.332,17.534,88.684,88.684,0,0,1,24.184,31.6,91.4,91.4,0,0,1-1.552,78.083,90.3,90.3,0,0,1-25.618,31.067l-4.013,3.068-3.043,2.112-5.971,4.114-11.945,8.232-12.011,8.13-6.007,4.065-1.5,1.016c-.464.327-.654.541-1,.816-.61.519-1.241,1.016-1.87,1.513l-1.92,1.464L201.1,197.51a35.857,35.857,0,0,0-3.568,3.656c-1.055,1.335-2.238,2.574-3.257,3.939-.926,1.431-1.9,2.829-2.9,4.216a63.688,63.688,0,0,0-7.784,19.015,59.205,59.205,0,0,0-1.28,20.751,63.643,63.643,0,0,0,5.7,20.179,62.312,62.312,0,0,0,12.294,17.485,63.077,63.077,0,0,0,17.611,12.695,70.4,70.4,0,0,0,21.231,6.279,68.989,68.989,0,0,0,11.148.4c.785.025,2.12-.132,3.321-.247l3.639-.354,17.5.005a85.075,85.075,0,0,1,46.8,13.593c1.478.972,2.887,1.975,4.186,3,15.268,12.044,29.292,26.477,25.931,28.988-3.5,2.615-9.679-.566-19.839-5.562a83.205,83.205,0,0,0-37.23-8.517h-.1a36.514,36.514,0,0,0-4.793.332c-.827.107-1.5.261-2.2.4l-3.59.733-14.354,2.942-7.182,1.456-3.592.7c-1.211.233-2.282.478-3.93.681-3.035.439-6.081.84-9.047.981-2.988.272-5.99.225-9,.233a105.431,105.431,0,0,1-66.759-25.771c-18.674-16.054-31.377-39.007-35.656-63.7a110.393,110.393,0,0,1,13.368-72.752c1.678-2.683,3.387-5.356,5.142-8,1.837-2.576,3.9-5,5.875-7.476a81.483,81.483,0,0,1,6.474-6.952l3.376-3.351,3.768-3.134,3.81-3.084c.618-.478,1.338-1.077,1.87-1.453l1.522-1.038,6.081-4.164,12.167-8.322,12.233-8.223,6.117-4.112,2.988-2.021,1.78-1.4A40.1,40.1,0,0,0,232.459,107.1a41.163,41.163,0,0,0,1.519-34.994,44.432,44.432,0,0,0-26.252-24.634c-11.9-4.079-26.414-2.818-37.532,4.587a36.855,36.855,0,0,0-4.007,2.98c-1.343,1-2.384,2.343-3.642,3.458-1.214,1.17-2.134,2.623-3.268,3.886a28.909,28.909,0,0,0-1.934,2.661l-2.074,3.01c-5.587,7.99-10.9,16.169-16.139,24.393-5.287,8.193-10.445,16.477-15.779,24.637-1.321,2.052-2.65,4.092-4.018,6.111l-2.664,3.79q-1.45,1.912-2.961,3.785a88.619,88.619,0,0,1-13.89,13.222,86.814,86.814,0,0,1-13.656,8.5" transform="translate(109.358 0.874)" fill="none" stroke="#fff" stroke-width="2"/>
    <path id="Path_586" data-name="Path 586" d="M26.974,39.819a5.611,5.611,0,0,1,7.306-2.637,5.325,5.325,0,0,1,2.826,3.1,5.426,5.426,0,0,1-.162,4.2" transform="translate(47.113 64.08)" fill="none" stroke="#fff" stroke-width="2"/>
    <path id="Path_587" data-name="Path 587" d="M21.1,39.139a5.515,5.515,0,0,1,6.455-4.312c.961.192,1.923.412,2.966.659a5.513,5.513,0,0,1,3.983,6.7" transform="translate(36.86 60.639)" fill="none" stroke="#fff" stroke-width="2"/>
    <path id="Path_588" data-name="Path 588" d="M16.065,40.453a5.324,5.324,0,0,1,1.209-4.01A5.5,5.5,0,0,1,27,39.409" transform="translate(27.999 60.149)" fill="none" stroke="#fff" stroke-width="2"/>
    <path id="Path_589" data-name="Path 589" d="M140.77,87.14a3.92,3.92,0,0,1-1.373,5.685C81.454,119.383,42.664,83.619,32.625,75.981l-.033-.025a4.013,4.013,0,0,1-.835-5.521L54.238,38.929a4.008,4.008,0,0,1,5.683-.871c.327.25.659.5.994.755,7.7,5.861,15.65,11.915,33.9,13.741a3.974,3.974,0,0,0,.511.022l4.079-.071a29.473,29.473,0,0,0,12.456-2.991,4.024,4.024,0,0,1,5.177,1.371L140.77,87.14" transform="translate(54.165 65.054)" fill="none" stroke="#fff" stroke-width="2"/>
    <path id="Path_590" data-name="Path 590" d="M79.4,42.38a8.6,8.6,0,0,0-5.056,1.332l-.233.148-1.7,1.088-.283.179a8.559,8.559,0,0,0-3.345,4.079,8.5,8.5,0,0,0-4.293-.1" transform="translate(112.638 74.004)" fill="none" stroke="#fff" stroke-width="2"/>
    <path id="Path_591" data-name="Path 591" d="M67.239,131.541a8.565,8.565,0,0,0,2.3-3.183,8.6,8.6,0,0,0,6.919-.873l2.238-1.36c.041-.025.118-.071.159-.1a8.625,8.625,0,0,0,3.821-5.567,8.723,8.723,0,0,0,6.5-2.3l.961-.887c.036-.036.1-.1.14-.132a8.769,8.769,0,0,0,2.681-6.106,8.873,8.873,0,0,0,5.966-3.6l1.544-2.14c.027-.041.082-.118.11-.157a8.845,8.845,0,0,0,1.5-5.883,8.989,8.989,0,0,0,5.051-3.521l.667-.956c.027-.041.08-.118.107-.157a9,9,0,0,0,1.447-5.837,9.1,9.1,0,0,0,5.106-3.568l1.335-1.912.107-.159a9.141,9.141,0,0,0,1.483-5.809,9.256,9.256,0,0,0,5.07-3.59l.667-.959.11-.162a9.287,9.287,0,0,0,1.516-5.784,9.392,9.392,0,0,0,5.035-3.612l1.332-1.912.115-.168A9.413,9.413,0,0,0,132.77,55.4a9.534,9.534,0,0,0,5-3.636l.667-.956c.027-.044.085-.126.113-.168a9.581,9.581,0,0,0,1.607-5.273,9.664,9.664,0,0,0,4.345-2.686l.261-.283,1.34-1.453.253-.275c.036-.038.071-.08.107-.121a9.679,9.679,0,0,0,2.142-4.216,9.771,9.771,0,0,0,4.743-1.728l.176-.124.808-.571.165-.115.132-.1a9.83,9.83,0,0,0,3.018-3.735,9.9,9.9,0,0,0,4.861-.728l.368-.157,1.8-.775.352-.148c.052-.025.1-.047.154-.069a9.968,9.968,0,0,0,3.667-2.9,10.084,10.084,0,0,0,4.993.3l.214-.041.961-.192.2-.038c.058-.014.113-.025.168-.036a10.083,10.083,0,0,0,4.26-2.129,10.207,10.207,0,0,0,4.708,1.244l.409,0,1.956.019.39.005h.173a10.241,10.241,0,0,0,4.48-1.118,10.339,10.339,0,0,0,4.411,2.219l.222.049.95.211.2.047.168.033a10.376,10.376,0,0,0,4.721-.179,10.441,10.441,0,0,0,3.771,2.928l.371.168,1.772.8.387.176.06.025a10.438,10.438,0,0,0,4.592.846,10.514,10.514,0,0,0,3.145,3.766l.168.124.777.571.184.135.058.041a10.541,10.541,0,0,0,4.444,1.8,10.606,10.606,0,0,0,2.3,4.23l.272.3,1.3,1.445.286.316.044.049a10.629,10.629,0,0,0,3.837,2.634,10.65,10.65,0,0,0,1.373,4.669l.11.192.483.838.118.2.036.06a10.7,10.7,0,0,0,3.263,3.422,10.735,10.735,0,0,0,.4,4.721l.129.4.591,1.84.132.415.022.066a10.773,10.773,0,0,0,2.379,3.955,10.831,10.831,0,0,0-.623,4.809l.022.217.1.964.025.233.008.069a10.841,10.841,0,0,0,1.549,4.438,10.916,10.916,0,0,0-1.511,4.529l-.038.39-.184,1.923-.036.374a10.889,10.889,0,0,0,.593,4.721,10.889,10.889,0,0,0-2.458,4.169l-.058.184-.288.923-.052.168a10.878,10.878,0,0,0-.368,4.848,10.874,10.874,0,0,0-3.17,3.5l-.2.346L231.6,105.2l-.187.33a10.876,10.876,0,0,0-1.365,4.537,10.815,10.815,0,0,0-3.936,2.791l-.132.146-.637.722-.118.135a10.805,10.805,0,0,0-2.318,4.285,10.84,10.84,0,0,0-4.356,1.906l-.308.228-1.557,1.151-.291.217a10.834,10.834,0,0,0-3.458,4.373,10.826,10.826,0,0,0-5.677,1.859l-.961.656a10.817,10.817,0,0,0-3.862,4.7,10.831,10.831,0,0,0-5.765,1.868l-1.923,1.313a10.789,10.789,0,0,0-3.862,4.7,10.8,10.8,0,0,0-5.765,1.865l-.961.656a10.759,10.759,0,0,0-3.823,4.636,10.787,10.787,0,0,0-6.2,2.337l-2.054,1.64a10.748,10.748,0,0,0-3.683,5.757,10.611,10.611,0,0,0-5.878,3.277l-.882.975a10.608,10.608,0,0,0-2.681,6.21,10.458,10.458,0,0,0-5.37,4.18l-1.431,2.211a10.435,10.435,0,0,0-1.585,6.743,10.133,10.133,0,0,0-4.436,4.9l-.5,1.195a10.129,10.129,0,0,0-.352,6.773,9.783,9.783,0,0,0-3.788,5.6l-.618,2.53a9.786,9.786,0,0,0,.876,6.866A9.3,9.3,0,0,0,139,215.442l-.088,1.294a9.364,9.364,0,0,0,2.074,6.493,8.844,8.844,0,0,0-1.958,6.416l.239,2.565a8.779,8.779,0,0,0,3.337,6.051,8.277,8.277,0,0,0-1.082,6.592l.321,1.241a8.3,8.3,0,0,0,4.4,5.326,7.783,7.783,0,0,0-.244,6.759l1.03,2.332a7.774,7.774,0,0,0,5.46,4.419,7.274,7.274,0,0,0,.637,6.729l.692,1.06a7.264,7.264,0,0,0,7.235,3.159,5.633,5.633,0,0,0,.151,7.314l1.4,1.563a5.583,5.583,0,0,0,8.542-7.182l-.115-.143-1.1-1.4-.091-.115c-.069-.082-.137-.165-.209-.244A5.613,5.613,0,0,0,165,273.823a7.2,7.2,0,0,0,1.225-8.517l-.071-.132-.508-.937-.033-.06c-.091-.159-.184-.319-.288-.478a7.228,7.228,0,0,0-4.232-3.032,7.7,7.7,0,0,0,.3-5.837l-.091-.261-.7-1.994-.06-.168c-.066-.19-.14-.374-.22-.56a7.759,7.759,0,0,0-3.367-3.65,8.191,8.191,0,0,0,1.052-5.622l-.03-.181-.184-1.033-.011-.069c-.038-.209-.082-.415-.137-.623a8.29,8.29,0,0,0-2.546-4.15,8.688,8.688,0,0,0,1.681-5.238l0-.319-.027-2.085,0-.192c0-.228-.016-.456-.038-.684a8.762,8.762,0,0,0-1.64-4.309,9.277,9.277,0,0,0,2.379-4.96l.03-.211.151-1.024.011-.066c.033-.239.06-.478.077-.72a9.283,9.283,0,0,0-.838-4.449,9.715,9.715,0,0,0,2.922-4.507l.1-.321.593-1.969.071-.236c.047-.157.091-.313.129-.475a9.8,9.8,0,0,0-.038-4.664,10.074,10.074,0,0,0,3.51-3.966l.093-.189.442-.909.049-.1c.074-.157.143-.313.212-.472a10.127,10.127,0,0,0,.753-4.537,10.384,10.384,0,0,0,3.955-3.414l.187-.272,1.151-1.684.179-.264c.038-.055.074-.113.113-.17a10.457,10.457,0,0,0,1.588-4.573,10.566,10.566,0,0,0,4.4-2.73l.129-.135.7-.733.118-.124c.047-.049.1-.1.143-.154a10.6,10.6,0,0,0,2.337-4.315,10.72,10.72,0,0,0,4.683-2l.264-.2,1.621-1.228.253-.192c.055-.044.11-.088.168-.132a10.745,10.745,0,0,0,3.106-4.1,10.8,10.8,0,0,0,5.625-1.837l.964-.654.022-.014a10.824,10.824,0,0,0,3.831-4.675,10.849,10.849,0,0,0,5.787-1.857l1.928-1.307.022-.014a10.843,10.843,0,0,0,3.831-4.675,10.842,10.842,0,0,0,5.787-1.857l.964-.654.019-.014a10.855,10.855,0,0,0,3.774-4.548,10.9,10.9,0,0,0,6.029-2.126l2.181-1.609.022-.016a10.846,10.846,0,0,0,3.963-5.782,10.844,10.844,0,0,0,6.048-3.422l.909-1.019.016-.019a10.865,10.865,0,0,0,2.683-6.38,10.876,10.876,0,0,0,5.3-4.658l1.349-2.376.014-.025a10.875,10.875,0,0,0,1.266-6.91,10.87,10.87,0,0,0,4.109-5.6l.412-1.3.008-.027a10.923,10.923,0,0,0-.148-6.9,10.9,10.9,0,0,0,2.933-6.389l.269-2.711,0-.027a10.915,10.915,0,0,0-1.642-6.847,10.848,10.848,0,0,0,1.442-6.726l-.154-1.354a10.855,10.855,0,0,0-2.977-6.27,10.759,10.759,0,0,0,.093-7.034l-.865-2.587a10.748,10.748,0,0,0-4.334-5.573,10.709,10.709,0,0,0-1.382-6.8l-.695-1.173a10.69,10.69,0,0,0-5.315-4.488,10.622,10.622,0,0,0-2.758-6.471l-1.84-2a10.616,10.616,0,0,0-6.218-3.274,10.552,10.552,0,0,0-3.966-5.652l-1.093-.783a10.561,10.561,0,0,0-6.658-1.931,10.47,10.47,0,0,0-5.1-4.829L214.77,9.224a10.451,10.451,0,0,0-7-.461,10.385,10.385,0,0,0-5.941-3.571L200.5,4.926a10.4,10.4,0,0,0-6.861,1.022,10.248,10.248,0,0,0-6.592-2.337l-2.7.03a10.245,10.245,0,0,0-6.562,2.516,10.108,10.108,0,0,0-6.82-.912l-1.318.294a10.109,10.109,0,0,0-5.817,3.749,9.974,9.974,0,0,0-6.974.456L154.4,10.859a9.992,9.992,0,0,0-4.949,5,9.846,9.846,0,0,0-6.628,1.879l-1.09.8a9.867,9.867,0,0,0-3.741,5.837,9.716,9.716,0,0,0-6.2,3.208L130.007,29.6a9.7,9.7,0,0,0-2.409,6.548,9.537,9.537,0,0,0-5.1,3.8l-.645.97a9.566,9.566,0,0,0-1.549,5.99,9.424,9.424,0,0,0-4.911,3.708L114.1,52.555a9.41,9.41,0,0,0-1.516,6.012,9.262,9.262,0,0,0-4.944,3.686l-.645.97a9.282,9.282,0,0,0-1.483,6.034,9.132,9.132,0,0,0-4.977,3.664L99.245,74.86a9.132,9.132,0,0,0-1.45,6.059,8.992,8.992,0,0,0-5.01,3.639l-.645.97a8.98,8.98,0,0,0-1.425,5.99,8.855,8.855,0,0,0-4.875,3.474l-.159.233L84.532,96.89l-.2.286a8.868,8.868,0,0,0-1.563,4.958,8.72,8.72,0,0,0-4.716,2.343l-.093.088-.725.7-.135.129a8.736,8.736,0,0,0-2.5,4.688" transform="translate(117.439 6.305)" fill="none" stroke="#fff" stroke-width="2"/>
    <path id="Path_592" data-name="Path 592" d="M115.719,112.579a4.416,4.416,0,0,0-1.357-3.148,4.6,4.6,0,0,0-6.356.069,4.444,4.444,0,0,0-1.283,3.183" transform="translate(186.402 188.965)" fill="none" stroke="#fff" stroke-width="2"/>
  </g>
</svg>
