<svg id="Group_82" data-name="Group 82" xmlns="http://www.w3.org/2000/svg" xmlns:xlink="http://www.w3.org/1999/xlink" width="110.806" height="110.806" viewBox="0 0 110.806 110.806">
  <defs>
    <clipPath id="clip-path">
      <rect id="Rectangle_69" data-name="Rectangle 69" width="110.806" height="110.806" fill="none" stroke="#fff" stroke-width="1"/>
    </clipPath>
  </defs>
  <g id="Group_81" data-name="Group 81" clip-path="url(#clip-path)">
    <path id="Path_813" data-name="Path 813" d="M27.125,50.488l-1.114-.717-.962-.614c-.3-.18-.594-.362-.879-.509a8.315,8.315,0,0,0-1.619-.689,4.072,4.072,0,0,0-1.413-.168,4.99,4.99,0,0,0-1.507.362l-.413.173-.4.2a.14.14,0,0,0-.049.023,2.388,2.388,0,0,0-.833,3.279c1.3,2.2,4.063,4.971,3.341,5.815-.422.491-3.351-1.7-5.891-3.764a6.073,6.073,0,0,1-.909-8.576c.037-.045.072-.085.105-.122a6.613,6.613,0,0,1,1.446-1.248l.646-.4.674-.36a10.455,10.455,0,0,1,3.118-.99,9.824,9.824,0,0,1,3.393.113,13.918,13.918,0,0,1,2.914.973c.446.195.854.406,1.262.618l1.124.612q.81.446,1.619.894" fill="none" stroke="#fff" stroke-width="1.417"/>
    <path id="Path_814" data-name="Path 814" d="M41.338,47.578a7.6,7.6,0,0,0,1.782-1.115A8.376,8.376,0,0,0,44.3,45.3l.261-.322.261-.358c.228-.333.462-.662.7-.989.934-1.316,1.9-2.612,2.839-3.923s1.887-2.618,2.78-3.962l.338-.5c.118-.173.207-.314.379-.547.317-.419.607-.86.962-1.252s.7-.8,1.1-1.143l.6-.523a5.836,5.836,0,0,1,.621-.5,14.175,14.175,0,0,1,2.747-1.62,11.56,11.56,0,0,1,1.491-.586l.766-.242c.258-.069.521-.119.783-.177a14.651,14.651,0,0,1,6.434.077,14.361,14.361,0,0,1,5.847,2.9,14.668,14.668,0,0,1,4,5.229,15.125,15.125,0,0,1-.257,12.923,14.937,14.937,0,0,1-4.24,5.142l-.664.507-.5.35-.989.681-1.976,1.362-1.989,1.346-.994.673-.248.168c-.077.054-.108.09-.165.135-.1.086-.206.168-.31.25l-.317.243-.3.3a5.92,5.92,0,0,0-.591.6c-.174.221-.37.425-.539.651-.153.237-.314.469-.48.7a10.542,10.542,0,0,0-1.288,3.147,9.788,9.788,0,0,0-.212,3.434,10.521,10.521,0,0,0,.945,3.34,10.312,10.312,0,0,0,2.034,2.894,10.443,10.443,0,0,0,2.915,2.1,11.642,11.642,0,0,0,3.514,1.039,11.466,11.466,0,0,0,1.845.067c.13,0,.35-.022.549-.041l.6-.059h2.9a14.09,14.09,0,0,1,7.746,2.249c.244.161.478.327.693.5,2.526,1.993,4.848,4.382,4.291,4.8-.578.432-1.6-.094-3.283-.921a13.778,13.778,0,0,0-6.162-1.41h-.016a5.957,5.957,0,0,0-.793.056c-.137.017-.249.043-.364.065l-.594.121-2.376.487L74.4,85l-.6.116c-.2.039-.378.08-.651.113-.5.073-1.006.139-1.5.162-.5.046-.991.038-1.489.039a17.45,17.45,0,0,1-11.049-4.265,18.044,18.044,0,0,1-5.9-10.543,18.267,18.267,0,0,1,2.213-12.04c.278-.444.56-.887.851-1.323s.645-.828.972-1.238a13.534,13.534,0,0,1,1.071-1.15l.559-.555.624-.519.631-.51c.1-.079.221-.178.309-.24l.252-.173,1.006-.688,2.014-1.378,2.025-1.361,1.012-.68.494-.335.295-.231a6.626,6.626,0,0,0,1.9-2.224,6.809,6.809,0,0,0,.251-5.792,7.35,7.35,0,0,0-4.344-4.077,7.217,7.217,0,0,0-6.212.759,6.09,6.09,0,0,0-.663.493c-.222.166-.4.388-.6.572s-.353.434-.541.644a5.024,5.024,0,0,0-.32.44l-.343.5c-.925,1.323-1.8,2.676-2.671,4.037s-1.729,2.727-2.612,4.078c-.218.339-.438.677-.665,1.011l-.44.627c-.161.211-.324.421-.491.627a14.6,14.6,0,0,1-2.3,2.188,14.391,14.391,0,0,1-2.259,1.407" fill="none" stroke="#fff" stroke-width="1.417"/>
    <path id="Path_815" data-name="Path 815" d="M45.139,53.3a.649.649,0,0,1-.227.941c-9.59,4.4-16.01-1.524-17.671-2.788l-.006,0a.665.665,0,0,1-.138-.914l3.721-5.214a.663.663,0,0,1,.94-.144l.165.125a9.558,9.558,0,0,0,5.611,2.274.805.805,0,0,0,.085,0l.675-.012a4.875,4.875,0,0,0,2.061-.495.665.665,0,0,1,.857.227l3.927,6" fill="none" stroke="#fff" stroke-width="1.417"/>
    <path id="Path_816" data-name="Path 816" d="M110.1,55.4A54.695,54.695,0,1,1,55.4.709,54.694,54.694,0,0,1,110.1,55.4Z" fill="none" stroke="#fff" stroke-width="1.417"/>
  </g>
</svg>
